<svg xmlns="http://www.w3.org/2000/svg" viewBox="0 0 1364 960" width="550" height="550"><circle cx="1063.337" cy="438.827" r="35.657" fill="#365787" class="color365787 svgShape"></circle><path fill="#9972e8" d="M879.416,470.092l26.577,72.645c-18.025,2.427-35.954-7.879-42.459-25.659    C857.03,499.297,864.081,479.87,879.416,470.092z" class="color9972E8 svgShape"></path><path fill="#e6e6e6" d="M872.819,475.424l12.958,35.419c3.91,10.688-7.59,20.743-17.491,15.132    c-0.075-0.042-0.149-0.085-0.224-0.128c8.398,12.274,23.126,18.883,37.931,16.889l-26.577-72.645    C876.995,471.636,874.807,473.443,872.819,475.424z" class="colorE6E6E6 svgShape"></path><path fill="#ffb64d" d="M937.938,489.857c7.516,20.545-3.037,43.301-23.581,50.817c-2.764,1.011-5.56,1.696-8.364,2.063    l-26.577-72.645c2.379-1.529,4.956-2.81,7.72-3.822C907.682,458.754,930.422,469.312,937.938,489.857z" class="colorFFB64D svgShape"></path><path fill="#9972e8" d="M1098.811,533.587c-42.614-20.995-124.151-5.804-180.507,2.824l-25.405-69.441    c47.822-28.394,117.147-66.608,139.715-114.327L1098.811,533.587z" class="color9972E8 svgShape"></path><path fill="#e6e6e6" d="M1015.495,378.41L1015.495,378.41c20.432,55.85-16.19,116.246-75.161,123.936    c-11.176,1.457-22.2,3.108-32.758,4.744l10.727,29.321c56.356-8.628,137.893-23.819,180.507-2.824l-66.197-180.944    C1028.394,361.565,1022.538,370.155,1015.495,378.41z" class="colorE6E6E6 svgShape"></path><path fill="#4b3a94" d="M936.471,438.48l33.501,91.571c0.793,2.168-0.329,4.555-2.496,5.348l-52.666,19.267    c-2.167,0.793-4.565-0.307-5.358-2.474l-33.501-91.571c-0.787-2.152,0.329-4.555,2.496-5.348l52.666-19.267    C933.281,435.213,935.683,436.328,936.471,438.48z" class="color4B3A94 svgShape"></path><path fill="#4b3a94" d="M988.008,620.633l-33.882,12.396c-4.504,1.648-9.419-1.096-10.38-5.794l-15.886-77.617l26.388-9.654    l37.952,69.544C994.496,613.718,992.511,618.985,988.008,620.633z" class="color4B3A94 svgShape"></path><path fill="#365787" d="M992.198,609.509l-37.951-69.544l-10.119,3.702l22.355,57.813c2.297,4.21,0.313,9.477-4.19,11.124    l-20.042,7.332l1.494,7.3c0.961,4.698,5.876,7.442,10.38,5.794l33.883-12.396C992.511,618.985,994.496,613.718,992.198,609.509z" class="color365787 svgShape"></path><rect width="7.606" height="192.673" x="1065.481" y="345.472" fill="#4b3a94" transform="rotate(-20.099 1069.162 441.832)" class="color4B3A94 svgShape"></rect><path fill="#365787" d="M930.237 454.157l-39.41 14.418c-.212.077-.446-.031-.523-.243l-1.135-3.103c-.077-.212.031-.446.243-.523l39.41-14.418c.212-.077.446.031.523.243l1.135 3.103C930.558 453.845 930.449 454.079 930.237 454.157zM935.216 467.766l-39.41 14.418c-.212.077-.446-.031-.523-.243l-1.135-3.103c-.077-.212.031-.446.243-.523l39.41-14.418c.212-.077.446.031.523.243l1.135 3.103C935.537 467.454 935.428 467.688 935.216 467.766zM940.195 481.375l-39.41 14.418c-.212.077-.446-.031-.523-.243l-1.135-3.103c-.077-.212.031-.446.243-.523l39.41-14.418c.212-.077.446.031.523.243l1.135 3.103C940.516 481.063 940.407 481.298 940.195 481.375zM945.174 494.984l-39.41 14.418c-.212.077-.446-.031-.523-.243l-1.135-3.103c-.077-.212.031-.446.243-.523l39.41-14.418c.212-.077.446.031.523.243l1.135 3.103C945.494 494.673 945.386 494.907 945.174 494.984zM950.153 508.594l-39.41 14.418c-.212.077-.446-.031-.523-.243l-1.135-3.103c-.077-.212.031-.446.243-.523l39.41-14.418c.212-.077.446.031.523.243l1.135 3.103C950.473 508.282 950.365 508.516 950.153 508.594zM955.132 522.203l-39.41 14.418c-.212.077-.446-.031-.523-.243l-1.135-3.103c-.077-.212.031-.446.243-.523l39.41-14.418c.212-.077.446.031.523.243l1.135 3.103C955.452 521.891 955.343 522.125 955.132 522.203z" class="color365787 svgShape"></path><ellipse cx="717.26" cy="822.018" fill="#e4ecf2" rx="522.739" ry="23.808" class="colorE4ECF2 svgShape"></ellipse><path fill="#ff7a9e" d="M359.005,602.069c21.433-21.433,42.866-42.866,64.299-64.299     c-33.325-110.484-66.65-220.968-196.424-235.003c-34.293,34.293-68.586,68.586-102.878,102.879     C266.635,406.82,312.82,504.445,359.005,602.069z" class="colorFF7A9E svgShape"></path><path fill="#ffffff" d="M158.516 389.875c-3.603-.312-7.274-.556-11.015-.729-3.567 3.567-7.134 7.134-10.701 10.701 3.778.137 7.486.344 11.125.619C151.455 396.935 154.986 393.405 158.516 389.875zM179.617 392.603c-3.333-.581-6.731-1.099-10.195-1.549-3.493 3.493-6.985 6.985-10.478 10.478 3.501.414 6.935.895 10.305 1.439C172.705 399.515 176.161 396.059 179.617 392.603zM199.127 396.922c-3.08-.835-6.22-1.61-9.423-2.322-3.418 3.418-6.837 6.837-10.255 10.255 3.24.676 6.417 1.413 9.533 2.212C192.364 403.685 195.746 400.304 199.127 396.922zM217.143 402.735c-2.842-1.072-5.742-2.088-8.699-3.045-3.344 3.344-6.688 6.688-10.032 10.032 2.994.921 5.93 1.9 8.809 2.936C210.529 409.35 213.836 406.042 217.143 402.735zM233.763 409.944c-2.621-1.294-5.295-2.535-8.023-3.721-3.27 3.27-6.539 6.539-9.809 9.809 2.765 1.15 5.475 2.355 8.133 3.612C227.297 416.41 230.53 413.177 233.763 409.944zM249.085 418.452c-2.416-1.499-4.88-2.949-7.395-4.349-3.195 3.195-6.391 6.391-9.586 9.586 2.552 1.363 5.053 2.777 7.505 4.239C242.767 424.769 245.926 421.61 249.085 418.452zM263.205 428.161c-2.226-1.688-4.498-3.332-6.816-4.929-3.121 3.121-6.242 6.242-9.363 9.363 2.354 1.56 4.662 3.168 6.926 4.82C257.036 434.33 260.121 431.245 263.205 428.161zM276.221 438.973c-2.053-1.862-4.147-3.683-6.284-5.461-3.047 3.047-6.093 6.093-9.14 9.14 2.173 1.742 4.304 3.526 6.394 5.351C270.201 444.993 273.211 441.983 276.221 438.973zM288.232 450.792c-1.896-2.019-3.829-4.001-5.8-5.945-2.972 2.972-5.945 5.945-8.917 8.917 2.008 1.907 3.977 3.852 5.91 5.835C282.36 456.664 285.296 453.728 288.232 450.792zM299.334 463.52c-1.755-2.16-3.542-4.288-5.364-6.38-2.898 2.898-5.796 5.796-8.694 8.694 1.859 2.056 3.683 4.147 5.474 6.271C293.611 469.242 296.472 466.381 299.334 463.52zM309.624 477.058c-1.629-2.286-3.288-4.542-4.977-6.768-2.824 2.824-5.647 5.647-8.471 8.471 1.726 2.189 3.421 4.409 5.087 6.658C304.05 482.632 306.837 479.845 309.624 477.058zM319.201 491.311c-1.52-2.395-3.065-4.765-4.637-7.107-2.749 2.749-5.499 5.499-8.248 8.248 1.609 2.306 3.19 4.639 4.747 6.998C313.776 496.736 316.488 494.023 319.201 491.311zM328.162 506.179c-1.427-2.488-2.875-4.955-4.346-7.399-2.675 2.675-5.35 5.35-8.025 8.025 1.507 2.407 2.992 4.838 4.456 7.289C322.885 511.456 325.524 508.817 328.162 506.179zM336.604 521.566c-1.35-2.565-2.717-5.114-4.102-7.643-2.601 2.601-5.201 5.201-7.802 7.802 1.422 2.492 2.826 5.004 4.212 7.533C331.476 526.694 334.04 524.13 336.604 521.566zM344.625 537.374c-1.288-2.626-2.59-5.24-3.907-7.838-2.526 2.526-5.053 5.053-7.579 7.579 1.353 2.561 2.692 5.138 4.017 7.728C339.646 542.353 342.136 539.864 344.625 537.374zM352.323 553.505c-1.244-2.672-2.496-5.334-3.76-7.985-2.452 2.452-4.904 4.904-7.356 7.356 1.3 2.615 2.589 5.24 3.869 7.875C347.492 558.336 349.908 555.921 352.323 553.505zM359.795 569.863c-1.214-2.701-2.434-5.396-3.66-8.084-2.378 2.378-4.755 4.755-7.133 7.133 1.263 2.652 2.519 5.311 3.77 7.975C355.113 574.545 357.454 572.204 359.795 569.863zM367.138 586.349c-1.201-2.714-2.404-5.426-3.609-8.136-2.303 2.303-4.607 4.607-6.91 6.91 1.242 2.673 2.481 5.349 3.719 8.026C362.604 590.883 364.871 588.616 367.138 586.349zM237.126 311.264c-3.331-.584-6.73-1.1-10.2-1.545-3.567 3.567-7.134 7.134-10.701 10.701 3.506.409 6.942.888 10.309 1.435C230.065 318.325 233.596 314.795 237.126 311.264zM256.572 315.648c-3.061-.853-6.187-1.642-9.379-2.365-3.493 3.493-6.985 6.985-10.478 10.478 3.229.686 6.391 1.439 9.489 2.255C249.66 322.56 253.116 319.104 256.572 315.648zM274.427 321.622c-2.808-1.107-5.677-2.153-8.608-3.138-3.418 3.418-6.837 6.837-10.255 10.255 2.968.948 5.873 1.957 8.717 3.028C267.664 328.385 271.045 325.004 274.427 321.622zM290.788 329.09c-2.57-1.344-5.198-2.632-7.883-3.861-3.344 3.344-6.688 6.688-10.032 10.032 2.722 1.193 5.386 2.444 7.993 3.751C284.173 335.705 287.481 332.398 290.788 329.09zM305.753 337.954c-2.349-1.566-4.751-3.079-7.207-4.537-3.27 3.27-6.539 6.539-9.809 9.809 2.493 1.422 4.931 2.898 7.317 4.427C299.287 344.42 302.52 341.187 305.753 337.954zM319.419 348.117c-2.144-1.771-4.336-3.493-6.579-5.165-3.195 3.195-6.391 6.391-9.586 9.586 2.28 1.635 4.509 3.321 6.689 5.055C313.101 354.435 316.26 351.276 319.419 348.117zM331.884 359.482c-1.954-1.96-3.954-3.876-6-5.745-3.121 3.121-6.242 6.242-9.363 9.363 2.082 1.832 4.119 3.712 6.11 5.635C325.715 365.65 328.8 362.566 331.884 359.482zM343.245 371.949c-1.781-2.134-3.603-4.227-5.468-6.277-3.047 3.047-6.093 6.093-9.14 9.14 1.901 2.014 3.76 4.07 5.578 6.167C337.225 377.97 340.235 374.96 343.245 371.949zM353.6 385.423c-1.624-2.291-3.285-4.545-4.984-6.761-2.972 2.972-5.945 5.945-8.917 8.917 1.736 2.179 3.433 4.396 5.094 6.651C347.729 391.295 350.665 388.359 353.6 385.423zM363.047 399.806c-1.483-2.432-2.998-4.832-4.549-7.196-2.898 2.898-5.796 5.796-8.694 8.694 1.587 2.328 3.139 4.691 4.659 7.086C357.324 405.529 360.186 402.668 363.047 399.806zM371.682 415c-1.357-2.557-2.744-5.086-4.161-7.584-2.824 2.824-5.647 5.647-8.471 8.471 1.454 2.461 2.877 4.953 4.271 7.474C366.108 420.574 368.895 417.787 371.682 415zM379.604 430.907c-1.248-2.667-2.521-5.308-3.821-7.923-2.749 2.749-5.499 5.499-8.248 8.248 1.337 2.578 2.647 5.183 3.931 7.813C374.179 436.333 376.892 433.62 379.604 430.907zM386.91 447.431c-1.155-2.76-2.331-5.499-3.53-8.215-2.675 2.675-5.35 5.35-8.025 8.025 1.235 2.679 2.448 5.382 3.64 8.105C381.633 452.707 384.271 450.069 386.91 447.431zM393.697 464.473c-1.078-2.837-2.173-5.658-3.287-8.458-2.601 2.601-5.201 5.201-7.802 7.802 1.15 2.764 2.282 5.548 3.396 8.348C388.569 469.601 391.133 467.037 393.697 464.473zM400.063 481.936c-1.017-2.898-2.046-5.784-3.091-8.654-2.526 2.526-5.053 5.053-7.579 7.579 1.081 2.833 2.148 5.682 3.201 8.544C395.084 486.916 397.573 484.426 400.063 481.936zM406.105 499.723c-.972-2.944-1.952-5.878-2.944-8.801-2.452 2.452-4.904 4.904-7.356 7.356 1.028 2.887 2.046 5.784 3.054 8.691C401.275 504.554 403.69 502.138 406.105 499.723zM411.922 517.736c-.942-2.973-1.89-5.94-2.845-8.9-2.378 2.378-4.755 4.755-7.133 7.133.991 2.923 1.976 5.854 2.955 8.79C407.24 522.418 409.581 520.077 411.922 517.736zM417.61 535.877c-.929-2.986-1.86-5.97-2.793-8.951-2.303 2.303-4.607 4.607-6.91 6.91.97 2.945 1.937 5.892 2.903 8.841C413.076 540.411 415.343 538.144 417.61 535.877zM257.351 337.834c-14.336-5.177-30.179-8.848-47.768-10.772-18.443 18.443-36.885 36.885-55.328 55.328 18.533.98 35.32 3.706 50.6 7.939C222.354 372.831 239.853 355.332 257.351 337.834zM303.672 363.174c-11.01-8.503-23.232-15.795-36.905-21.635-17.287 17.287-34.574 34.574-51.86 51.86 14.618 4.896 27.783 11.243 39.738 18.802C270.987 395.859 287.329 379.517 303.672 363.174zM339.104 399.402c-8.406-11.107-17.729-21.297-28.208-30.331-16.131 16.131-32.262 32.262-48.393 48.393 11.424 8.09 21.69 17.336 31.041 27.498C308.73 429.776 323.917 414.589 339.104 399.402zM366.299 443.867c-6.525-12.989-13.671-25.356-21.678-36.861-14.975 14.975-29.95 29.95-44.926 44.926 8.952 10.561 17.042 21.984 24.511 34.029C338.237 471.929 352.268 457.898 366.299 443.867zM387.91 493.916c-5.365-14.148-11.056-27.97-17.315-41.225-13.819 13.819-27.639 27.639-41.458 41.458 7.203 12.311 13.838 25.188 20.147 38.392C362.16 519.667 375.035 506.791 387.91 493.916zM406.589 546.898c-4.928-14.586-9.886-29.14-15.117-43.422-12.664 12.664-25.327 25.327-37.991 37.991 6.175 13.338 12.078 26.948 17.95 40.59C383.15 570.337 394.869 558.618 406.589 546.898z" class="colorFFF svgShape"></path><g fill="#000000" class="color000 svgShape"><path fill="#ff7a9e" d="M594.009,798.492c8.573-8.573,17.146-17.146,25.72-25.72C489.955,758.737,456.63,648.254,423.304,537.77     c-21.433,21.433-42.866,42.866-64.299,64.299C405.19,699.693,451.375,797.317,594.009,798.492z" class="colorFF7A9E svgShape"></path><path fill="#ffffff" d="M375.219 604.599c-1.205-2.709-2.407-5.422-3.609-8.136-2.221 2.221-4.442 4.442-6.664 6.664 1.238 2.677 2.477 5.353 3.718 8.026C370.85 608.968 373.035 606.783 375.219 604.599zM382.61 621.037c-1.226-2.689-2.445-5.385-3.659-8.086-2.147 2.147-4.294 4.294-6.441 6.441 1.25 2.664 2.506 5.324 3.768 7.976C378.39 625.257 380.5 623.147 382.61 621.037zM390.175 637.301c-1.263-2.652-2.514-5.316-3.757-7.988-2.073 2.073-4.145 4.145-6.218 6.218 1.279 2.636 2.567 5.262 3.866 7.878C386.104 641.372 388.14 639.337 390.175 637.301zM398.012 653.293c-1.315-2.6-2.615-5.214-3.903-7.842-1.998 1.998-3.996 3.996-5.995 5.995 1.324 2.591 2.661 5.169 4.013 7.732C394.089 657.216 396.051 655.255 398.012 653.293zM406.219 668.916c-1.384-2.531-2.749-5.081-4.097-7.648-1.924 1.924-3.848 3.848-5.772 5.772 1.385 2.53 2.786 5.044 4.207 7.538C402.444 672.69 404.331 670.803 406.219 668.916zM414.892 684.072c-1.469-2.446-2.914-4.915-4.339-7.406-1.85 1.849-3.699 3.699-5.549 5.549 1.461 2.454 2.944 4.886 4.449 7.296C411.266 687.698 413.079 685.885 414.892 684.072zM424.129 698.664c-1.569-2.346-3.112-4.718-4.629-7.115-1.775 1.775-3.55 3.55-5.326 5.326 1.554 2.361 3.133 4.696 4.739 7.005C420.652 702.141 422.39 700.403 424.129 698.664zM434.028 712.595c-1.686-2.229-3.341-4.488-4.968-6.777-1.701 1.701-3.402 3.402-5.103 5.102 1.663 2.252 3.355 4.475 5.078 6.667C430.699 715.923 432.363 714.259 434.028 712.595zM444.686 725.765c-1.819-2.096-3.603-4.227-5.354-6.391-1.627 1.627-3.253 3.253-4.88 4.88 1.788 2.127 3.609 4.221 5.464 6.281C441.506 728.945 443.096 727.355 444.686 725.765zM456.201 738.08c-1.967-1.947-3.896-3.933-5.789-5.956-1.552 1.552-3.104 3.104-4.657 4.657 1.929 1.986 3.895 3.936 5.899 5.846C453.17 741.111 454.686 739.595 456.201 738.08zM468.67 749.44c-2.132-1.783-4.222-3.608-6.271-5.474-1.478 1.478-2.956 2.956-4.434 4.434 2.086 1.829 4.212 3.618 6.381 5.364C465.788 752.322 467.229 750.881 468.67 749.44zM482.191 759.748c-2.313-1.602-4.58-3.25-6.802-4.943-1.404 1.404-2.807 2.807-4.211 4.211 2.259 1.656 4.562 3.268 6.912 4.833C479.458 762.481 480.825 761.115 482.191 759.748zM496.862 768.907c-2.51-1.405-4.969-2.86-7.381-4.365-1.329 1.329-2.658 2.658-3.988 3.988 2.448 1.468 4.944 2.886 7.491 4.255C494.277 771.492 495.57 770.199 496.862 768.907zM512.779 776.818c-2.723-1.192-5.391-2.438-8.007-3.738-1.255 1.255-2.51 2.51-3.765 3.765 2.653 1.262 5.358 2.472 8.117 3.628C510.343 779.255 511.561 778.037 512.779 776.818zM530.041 783.386c-2.952-.963-5.845-1.985-8.682-3.063-1.18 1.181-2.361 2.361-3.542 3.542 2.874 1.041 5.803 2.026 8.792 2.953C527.753 785.674 528.897 784.53 530.041 783.386zM548.744 788.512c-3.196-.718-6.331-1.499-9.405-2.34-1.106 1.106-2.212 2.212-3.319 3.319 3.111.804 6.281 1.548 9.515 2.23C546.605 790.651 547.675 789.581 548.744 788.512zM568.987 792.098c-3.458-.458-6.849-.981-10.176-1.569-1.032 1.032-2.064 2.064-3.096 3.096 3.364.552 6.791 1.038 10.286 1.459C566.997 794.089 567.992 793.093 568.987 792.098zM590.867 794.048c-3.734-.181-7.399-.431-10.995-.75-.958.957-1.915 1.915-2.872 2.872 3.633.282 7.333.497 11.104.64C589.025 795.889 589.946 794.969 590.867 794.048zM423.862 555.955c-.933-2.982-1.864-5.966-2.793-8.952-2.221 2.221-4.442 4.442-6.664 6.664.966 2.949 1.933 5.897 2.903 8.842C419.493 560.325 421.678 558.14 423.862 555.955zM429.598 574.049c-.954-2.961-1.901-5.929-2.843-8.902-2.147 2.147-4.294 4.294-6.441 6.441.978 2.936 1.962 5.868 2.953 8.792C425.378 578.269 427.488 576.159 429.598 574.049zM435.508 591.968c-.991-2.924-1.97-5.86-2.941-8.804-2.073 2.073-4.145 4.145-6.218 6.218 1.007 2.908 2.023 5.806 3.051 8.694C431.436 596.04 433.472 594.004 435.508 591.968zM441.69 609.615c-1.043-2.872-2.072-5.758-3.087-8.658-1.998 1.998-3.996 3.996-5.995 5.995 1.052 2.863 2.117 5.713 3.197 8.548C437.767 613.539 439.728 611.577 441.69 609.615zM448.241 626.894c-1.112-2.803-2.205-5.625-3.281-8.464-1.924 1.924-3.848 3.848-5.772 5.772 1.113 2.802 2.242 5.587 3.391 8.354C444.467 630.668 446.354 628.781 448.241 626.894zM455.259 643.705c-1.197-2.718-2.37-5.459-3.523-8.221-1.85 1.85-3.699 3.699-5.549 5.549 1.19 2.725 2.4 5.43 3.633 8.111C451.633 647.331 453.446 645.518 455.259 643.705zM462.841 659.952c-1.297-2.618-2.568-5.262-3.814-7.931-1.775 1.775-3.55 3.55-5.326 5.326 1.282 2.633 2.589 5.24 3.923 7.821C459.364 663.429 461.102 661.691 462.841 659.952zM471.085 675.538c-1.414-2.501-2.797-5.032-4.152-7.593-1.701 1.701-3.402 3.402-5.103 5.103 1.391 2.524 2.811 5.019 4.262 7.483C467.756 678.866 469.42 677.202 471.085 675.538zM480.087 690.364c-1.547-2.368-3.059-4.771-4.538-7.206-1.626 1.626-3.253 3.253-4.88 4.88 1.516 2.399 3.065 4.765 4.648 7.096C476.908 693.544 478.498 691.954 480.087 690.364zM489.948 704.333c-1.696-2.219-3.353-4.477-4.973-6.772-1.552 1.552-3.104 3.104-4.657 4.657 1.657 2.258 3.351 4.48 5.083 6.662C486.917 707.364 488.432 705.849 489.948 704.333zM500.762 717.348c-1.86-2.055-3.678-4.151-5.455-6.289-1.478 1.478-2.956 2.956-4.434 4.434 1.814 2.101 3.668 4.161 5.565 6.179C497.879 720.231 499.32 718.789 500.762 717.348zM512.627 729.312c-2.041-1.874-4.036-3.794-5.986-5.759-1.404 1.404-2.807 2.807-4.211 4.211 1.987 1.928 4.018 3.812 6.096 5.649C509.894 732.045 511.261 730.678 512.627 729.312zM525.643 740.126c-2.238-1.677-4.426-3.404-6.565-5.18-1.329 1.329-2.658 2.658-3.988 3.988 2.176 1.739 4.4 3.43 6.675 5.07C523.058 742.711 524.35 741.418 525.643 740.126zM539.905 749.693c-2.451-1.464-4.847-2.982-7.191-4.553-1.255 1.255-2.51 2.51-3.765 3.765 2.381 1.534 4.814 3.016 7.301 4.443C537.469 752.129 538.687 750.911 539.905 749.693zM555.511 757.915c-2.68-1.235-5.301-2.529-7.866-3.879-1.181 1.181-2.361 2.361-3.542 3.542 2.602 1.313 5.26 2.57 7.976 3.769C553.224 760.203 554.367 759.059 555.511 757.915zM572.56 764.696c-2.925-.99-5.787-2.043-8.589-3.156-1.106 1.106-2.212 2.212-3.319 3.319 2.839 1.076 5.738 2.092 8.699 3.046C570.421 766.835 571.49 765.766 572.56 764.696zM591.147 769.938c-3.186-.729-6.305-1.525-9.36-2.385-1.032 1.032-2.064 2.064-3.096 3.096 3.092.823 6.248 1.582 9.47 2.275C589.157 771.928 590.152 770.933 591.147 769.938zM611.372 773.542c-3.463-.453-6.855-.975-10.179-1.566-.958.957-1.915 1.915-2.873 2.873 3.361.554 6.79 1.04 10.289 1.456C609.53 775.384 610.451 774.463 611.372 773.542zM425.378 601.234c-5.225-14.288-10.182-28.845-15.108-43.431-11.484 11.484-22.969 22.969-34.453 34.453 5.871 13.642 11.771 27.255 17.941 40.599C404.298 622.315 414.838 611.774 425.378 601.234zM446.223 652.05c-6.247-13.266-11.929-27.097-17.288-41.252-10.328 10.329-20.657 20.657-30.985 30.986 6.303 13.211 12.929 26.097 20.12 38.419C427.454 670.819 436.839 661.434 446.223 652.05zM472.145 697.788c-7.99-11.522-15.121-23.905-21.634-36.906-9.173 9.173-18.345 18.345-27.518 27.518 7.456 12.057 15.531 23.495 24.466 34.073C455.688 714.245 463.916 706.017 472.145 697.788zM505.796 735.797c-10.456-9.057-19.758-19.268-28.146-30.394-8.017 8.017-16.034 16.034-24.051 24.051 9.332 10.181 19.578 19.448 30.978 27.561C491.651 749.943 498.724 742.87 505.796 735.797zM549.829 763.425c-13.644-5.869-25.839-13.188-36.825-21.715-6.861 6.861-13.722 13.722-20.583 20.584 11.93 7.583 25.069 13.957 39.657 18.882C537.995 775.259 543.912 769.342 549.829 763.425zM606.894 778.02c-17.554-1.959-33.364-5.662-47.67-10.87-5.705 5.705-11.411 11.411-17.116 17.116 15.25 4.263 32.004 7.022 50.502 8.037C597.372 787.542 602.133 782.781 606.894 778.02z" class="colorFFF svgShape"></path></g><g fill="#000000" class="color000 svgShape"><circle cx="654.59" cy="607.913" r="213.022" fill="#ffb64d" transform="rotate(-45.001 654.586 607.923)" class="colorFFB64D svgShape"></circle><path fill="#ffffff" d="M654.59,807.576c-110.094,0-199.663-89.569-199.663-199.663S544.496,408.25,654.59,408.25     c110.094,0,199.663,89.569,199.663,199.663S764.684,807.576,654.59,807.576z M654.59,413.484     c-107.209,0-194.429,87.22-194.429,194.429c0,107.208,87.22,194.429,194.429,194.429c107.208,0,194.428-87.22,194.428-194.429     C849.018,500.704,761.798,413.484,654.59,413.484z" class="colorFFF svgShape"></path><circle cx="654.59" cy="468.219" r="40.556" fill="#ffffff" transform="rotate(-80.781 654.6 468.209)" class="colorFFF svgShape"></circle><path fill="#ffffff" d="M527.134,537.812c-15.838-15.838-15.838-41.517,0-57.355c15.838-15.838,41.517-15.838,57.355,0    c15.838,15.838,15.838,41.517,0,57.355C568.652,553.65,542.973,553.65,527.134,537.812z" class="colorFFF svgShape"></path><circle cx="514.897" cy="607.913" r="40.556" fill="#ffffff" class="colorFFF svgShape"></circle><path fill="#ffffff" d="M584.49,735.368c-15.838,15.838-41.517,15.838-57.355,0c-15.838-15.838-15.838-41.517,0-57.355    c15.838-15.838,41.517-15.838,57.355,0C600.328,693.851,600.328,719.531,584.49,735.368z" class="colorFFF svgShape"></path><circle cx="654.59" cy="747.606" r="40.556" fill="#ffffff" class="colorFFF svgShape"></circle><circle cx="753.369" cy="706.691" r="40.556" fill="#ffffff" class="colorFFF svgShape"></circle><circle cx="794.284" cy="607.913" r="40.556" fill="#ffffff" class="colorFFF svgShape"></circle><circle cx="753.369" cy="509.134" r="40.556" fill="#ffffff" class="colorFFF svgShape"></circle><path fill="#ffffff" d="M640.976,607.913c0-7.519,6.096-13.615,13.615-13.615c7.519,0,13.614,6.096,13.614,13.615    c0,7.519-6.096,13.614-13.614,13.614C647.071,621.527,640.976,615.432,640.976,607.913z" class="colorFFF svgShape"></path></g><g fill="#000000" class="color000 svgShape"><path fill="#b7cce6" d="M388.528,480.108v-32.919c0-1.241,0.745-2.36,1.89-2.839l49.885-20.871     c1.568-0.656,3.371,0.083,4.027,1.652l0,0c0.656,1.568-0.083,3.371-1.652,4.027l-46.105,19.289     c-1.145,0.479-1.89,1.598-1.89,2.84v28.822c0,1.7-1.378,3.078-3.078,3.078l0,0C389.906,483.186,388.528,481.808,388.528,480.108z     " class="colorB7CCE6 svgShape"></path><path fill="#4b3a94" d="M503.793,358.225h-6.122v-1.696c0-4.604-3.535-8.336-7.895-8.336h-0.58c0-2.705-2.077-4.898-4.639-4.898     h-10.17c-2.562,0-4.639,2.193-4.639,4.898H458.06v-5.181c0-3.33-2.556-6.028-5.71-6.028h-3.925v-3.485     c0-1.925-1.478-3.485-3.301-3.485h-27.121c-1.823,0-3.301,1.561-3.301,3.485v3.485h-3.925c-3.153,0-5.71,2.699-5.71,6.028v5.181     h-7.092c-4.361,0-7.895,3.732-7.895,8.336v53.691c0,4.604,3.535,8.336,7.895,8.336h91.799c4.089,0,7.452-3.283,7.855-7.488h6.163     c3.159,0,5.721-2.705,5.721-6.04v-40.763C509.514,360.929,506.952,358.225,503.793,358.225z" class="color4B3A94 svgShape"></path><path fill="#9972e8" d="M393.896,418.556h24.034c2.107,0,3.815-1.708,3.815-3.815v-62.702c0-2.107-1.708-3.815-3.815-3.815     h-24.034c-2.107,0-3.815,1.708-3.815,3.815v62.702C390.081,416.848,391.789,418.556,393.896,418.556z" class="color9972E8 svgShape"></path><path fill="#ffffff" d="M412.052 363.066h-11.509c-1.182 0-2.141-.958-2.141-2.141l0 0c0-1.182.958-2.141 2.141-2.141h11.509c1.182 0 2.141.959 2.141 2.141l0 0C414.193 362.108 413.234 363.066 412.052 363.066zM412.051 372.438h-11.508c-1.182 0-2.141-.958-2.141-2.141l0 0c0-1.182.958-2.141 2.141-2.141h11.508c1.182 0 2.141.958 2.141 2.141l0 0C414.193 371.48 413.234 372.438 412.051 372.438z" class="colorFFF svgShape"></path><circle cx="406.245" cy="387.715" r="2.647" fill="#ffffff" class="colorFFF svgShape"></circle><path fill="#ffffff" d="M397.296,394.316c0-1.462,1.185-2.647,2.647-2.647c1.462,0,2.647,1.185,2.647,2.647      c0,1.461-1.185,2.647-2.647,2.647C398.481,396.962,397.296,395.777,397.296,394.316z" class="colorFFF svgShape"></path><circle cx="412.965" cy="394.316" r="2.647" fill="#ffffff" class="colorFFF svgShape"></circle><path fill="#ffffff" d="M403.599,401.323c0-1.462,1.185-2.647,2.647-2.647c1.462,0,2.647,1.185,2.647,2.647      c0,1.461-1.185,2.647-2.647,2.647C404.784,403.97,403.599,402.785,403.599,401.323z" class="colorFFF svgShape"></path><path fill="#9972e8" d="M486.567 366.434h-55.783c-1.182 0-2.141-.959-2.141-2.141l0 0c0-1.182.959-2.141 2.141-2.141h55.783c1.182 0 2.141.958 2.141 2.141v0C488.708 365.475 487.75 366.434 486.567 366.434zM486.567 377.452h-55.783c-1.182 0-2.141-.958-2.141-2.141l0 0c0-1.182.959-2.141 2.141-2.141h55.783c1.182 0 2.141.958 2.141 2.141v0C488.708 376.493 487.75 377.452 486.567 377.452zM486.567 388.469h-55.783c-1.182 0-2.141-.958-2.141-2.141l0 0c0-1.182.959-2.141 2.141-2.141h55.783c1.182 0 2.141.958 2.141 2.141l0 0C488.708 387.511 487.749 388.469 486.567 388.469zM486.567 399.487h-55.783c-1.182 0-2.141-.959-2.141-2.141l0 0c0-1.182.958-2.141 2.141-2.141h55.784c1.182 0 2.141.958 2.141 2.141v0C488.708 398.529 487.75 399.487 486.567 399.487z" class="color9972E8 svgShape"></path><rect width="36.192" height="33.673" x="509.514" y="370.297" fill="#4b3a94" class="color4B3A94 svgShape"></rect><rect width="18.672" height="42.194" x="544.693" y="366.036" fill="#9972e8" class="color9972E8 svgShape"></rect><path fill="#9972e8" d="M405.477,348.224h8.715v-9.974h-8.716c-2.754,0-4.987,2.233-4.987,4.987l0,0     C400.49,345.991,402.723,348.224,405.477,348.224z" class="color9972E8 svgShape"></path><rect width="6.156" height="178.206" x="439.214" y="420.329" fill="#b7cce6" class="colorB7CCE6 svgShape"></rect><rect width="6.156" height="217.41" x="439.214" y="599.873" fill="#b7cce6" class="colorB7CCE6 svgShape"></rect><polygon fill="#b7cce6" points="383.39 817.283 377.234 817.283 439.214 599.873 445.37 599.873" class="colorB7CCE6 svgShape"></polygon><polygon fill="#b7cce6" points="500.615 817.283 506.77 817.283 444.791 599.873 438.635 599.873" class="colorB7CCE6 svgShape"></polygon><path fill="#4b3a94" d="M396.691,482.316V457.16c0-2.18-1.768-3.947-3.947-3.947h-2.142c-2.18,0-3.947,1.768-3.947,3.948v25.156    c0,2.18,1.768,3.947,3.947,3.947h2.142C394.923,486.264,396.691,484.497,396.691,482.316z" class="color4B3A94 svgShape"></path><rect width="6.602" height="42.108" x="438.88" y="556.426" fill="#4b3a94" class="color4B3A94 svgShape"></rect><rect width="20.341" height="12.847" x="432.122" y="592.111" fill="#4b3a94" class="color4B3A94 svgShape"></rect><path fill="#4b3a94" d="M380.141 812.639c-3.162 0-5.725 2.563-5.725 5.725v1.506h11.449v-1.506C385.865 815.202 383.303 812.639 380.141 812.639zM442.292 812.639c-3.162 0-5.725 2.563-5.725 5.725v1.506h11.449v-1.506C448.016 815.202 445.453 812.639 442.292 812.639zM503.313 812.639c-3.161 0-5.724 2.563-5.724 5.725v1.506h11.449v-1.506C509.037 815.202 506.474 812.639 503.313 812.639z" class="color4B3A94 svgShape"></path><rect width="10.126" height="6.245" x="437.229" y="553.304" fill="#4b3a94" class="color4B3A94 svgShape"></rect><path fill="#9972e8" d="M470.525,312.562h-78.071c-2.732,0-4.562,2.808-3.46,5.307l8.272,18.758    c0.604,1.371,1.962,2.255,3.46,2.255h61.527c1.498,0,2.855-0.885,3.46-2.255l8.272-18.758    C475.087,315.37,473.257,312.562,470.525,312.562z" class="color9972E8 svgShape"></path><path fill="#ffffff" d="M421.561,331.174l-5.416-12.681c-0.356-0.834-1.176-1.375-2.082-1.375h-15.757    c-1.624,0-2.72,1.66-2.082,3.154l5.416,12.681c0.356,0.834,1.176,1.375,2.083,1.375h15.757    C421.103,334.327,422.199,332.668,421.561,331.174z" class="colorFFF svgShape"></path><path fill="#4b3a94" d="M428.643,413.872c0,5.174,4.194,9.367,9.367,9.367h8.563c5.174,0,9.367-4.194,9.367-9.367H428.643z" class="color4B3A94 svgShape"></path></g><g fill="#000000" class="color000 svgShape"><rect width="290.073" height="190.133" x="724.137" y="631.593" fill="#8795ff" transform="rotate(-180 869.174 726.66)" class="color8795FF svgShape"></rect><rect width="263.906" height="2.795" x="738.769" y="790.323" fill="#ffffff" class="colorFFF svgShape"></rect><rect width="261.118" height="2.795" x="738.769" y="756.809" fill="#ffffff" class="colorFFF svgShape"></rect><path fill="#ffffff" d="M814.932,724.015h89.81h2.363h92.647v-2.795h-92.647V684.89h92.647v-2.795h-92.647h-2.363h-89.81h-2.363     h-73.975v2.795h73.975v36.331h-73.975v2.795h73.975H814.932z M814.932,684.89h89.81v36.331h-89.81V684.89z" class="colorFFF svgShape"></path><path fill="#e4eaef" d="M724.137,631.593v38.263h221.044c24.224,0,43.86,19.637,43.86,43.86v108.01h25.17V631.593H724.137z" class="colorE4EAEF svgShape"></path><rect width="290.093" height="35.984" x="724.141" y="617.159" fill="#4b3a94" class="color4B3A94 svgShape"></rect><polygon fill="#ffffff" points="738.769 620.701 753.521 649.654 784.174 649.654 769.376 620.701" class="colorFFF svgShape"></polygon><polygon fill="#ffffff" points="799.628 620.701 814.38 649.654 845.032 649.654 830.235 620.701" class="colorFFF svgShape"></polygon><polygon fill="#ffffff" points="859.304 620.701 874.056 649.654 904.709 649.654 889.911 620.701" class="colorFFF svgShape"></polygon><polygon fill="#ffffff" points="911.595 620.701 926.347 649.654 957 649.654 942.202 620.701" class="colorFFF svgShape"></polygon><polygon fill="#ffffff" points="963.591 620.701 978.343 649.654 1008.995 649.654 994.197 620.701" class="colorFFF svgShape"></polygon><polygon fill="#4b3a94" points="728.368 568.91 990.874 614.079 1008.751 617.159 1013.778 618.023 1013.949 617.159 1020.575 582.579 1007.038 580.256 735.165 533.52" class="color4B3A94 svgShape"></polygon><polygon fill="#ffffff" points="748.92 539.484 757.958 570.467 788.116 575.656 779.033 544.665" class="colorFFF svgShape"></polygon><polygon fill="#ffffff" points="808.797 549.786 817.834 580.769 847.992 585.957 838.909 554.966" class="colorFFF svgShape"></polygon><polygon fill="#ffffff" points="867.51 559.887 876.547 590.87 906.705 596.058 897.623 565.068" class="colorFFF svgShape"></polygon><polygon fill="#ffffff" points="918.957 568.738 927.994 599.721 958.152 604.909 949.07 573.919" class="colorFFF svgShape"></polygon><polygon fill="#ffffff" points="970.113 577.539 979.151 608.522 1009.309 613.71 1000.226 582.72" class="colorFFF svgShape"></polygon><polygon fill="#4b3a94" points="1004.81 653.143 1014.234 653.143 1014.234 617.159 1013.949 617.159 1020.575 582.579 1007.038 580.256 1002.354 589.982 992.473 610.783 990.874 614.079 989.389 617.159 987.733 620.725 976.081 645.147 972.254 653.143" class="color4B3A94 svgShape"></polygon><path fill="#ffffff" d="M980.776 646.461c3.675 0 3.681 5.403 0 5.403C977.1 651.864 977.094 646.461 980.776 646.461zM999.753 646.461c3.675 0 3.681 5.403 0 5.403C996.078 651.864 996.072 646.461 999.753 646.461zM1006.237 597.933c3.675 0 3.681 5.403 0 5.403C1002.561 603.336 1002.555 597.933 1006.237 597.933z" class="colorFFF svgShape"></path></g><g fill="#000000" class="color000 svgShape"><path fill="#ffb64d" d="M422.592,143.289l-104.136,29.838c-2.493,0.714-3.935,3.314-3.22,5.807l18.832,65.725    c0.714,2.493,3.314,3.935,5.807,3.22l104.136-29.838c2.493-0.714,3.935-3.314,3.22-5.807l-18.832-65.725    C427.685,144.017,425.085,142.575,422.592,143.289z" class="colorFFB64D svgShape"></path><path fill="#ffffff" d="M419.501,162.131l-88.445,25.342c-2.493,0.714-3.935,3.314-3.22,5.807l9.323,32.538    c0.714,2.493,3.314,3.935,5.807,3.22l88.445-25.342c2.493-0.714,3.935-3.314,3.22-5.807l-9.323-32.538    C424.594,162.858,421.994,161.417,419.501,162.131z" class="colorFFF svgShape"></path><path fill="#ffb64d" d="M389.359,192.06l-15.348-2.69c-0.956-0.168-1.758,0.724-1.491,1.657l3.86,13.471    c0.271,0.945,1.446,1.27,2.163,0.597l11.488-10.781C390.822,193.572,390.426,192.247,389.359,192.06z" class="colorFFB64D svgShape"></path><path fill="#ffffff" d="M336.958 172.358l-12.224 3.503c-.964.276-1.521 1.281-1.245 2.245l.8 2.792c.276.964 1.281 1.521 2.245 1.245l12.224-3.503c.964-.276 1.521-1.281 1.245-2.245l-.8-2.792C338.927 172.639 337.922 172.082 336.958 172.358zM357.397 166.502l-12.224 3.503c-.964.276-1.521 1.281-1.245 2.245l.8 2.792c.276.964 1.281 1.521 2.245 1.245l12.224-3.503c.964-.276 1.521-1.281 1.245-2.245l-.8-2.792C359.367 166.783 358.361 166.226 357.397 166.502zM377.837 160.645l-12.224 3.503c-.964.276-1.522 1.281-1.245 2.245l.8 2.792c.276.964 1.281 1.521 2.245 1.245l12.224-3.503c.964-.276 1.521-1.281 1.245-2.245l-.8-2.792C379.806 160.927 378.801 160.369 377.837 160.645zM398.276 154.789l-12.224 3.503c-.964.276-1.521 1.281-1.245 2.245l.8 2.792c.276.964 1.281 1.521 2.245 1.245l12.224-3.503c.964-.276 1.521-1.281 1.245-2.245l-.8-2.792C400.245 155.07 399.24 154.513 398.276 154.789zM418.715 148.933l-12.224 3.503c-.964.276-1.521 1.281-1.245 2.245l.8 2.792c.276.964 1.281 1.521 2.245 1.245l12.224-3.503c.964-.276 1.522-1.281 1.245-2.245l-.8-2.792C420.684 149.214 419.679 148.656 418.715 148.933zM354.176 232.45l-12.224 3.503c-.964.276-1.521 1.282-1.245 2.245l.8 2.792c.276.964 1.281 1.521 2.245 1.245l12.224-3.503c.964-.276 1.521-1.281 1.245-2.245l-.8-2.792C356.145 232.731 355.14 232.174 354.176 232.45zM374.615 226.594l-12.224 3.503c-.964.276-1.521 1.282-1.245 2.245l.8 2.792c.276.964 1.281 1.521 2.245 1.245l12.224-3.503c.964-.276 1.521-1.281 1.245-2.245l-.8-2.792C376.585 226.875 375.579 226.317 374.615 226.594zM395.055 220.737l-12.224 3.503c-.964.276-1.521 1.282-1.245 2.245l.8 2.792c.276.964 1.281 1.521 2.245 1.245l12.224-3.503c.964-.276 1.521-1.281 1.245-2.245l-.8-2.792C397.024 221.019 396.019 220.461 395.055 220.737zM415.494 214.881l-12.224 3.503c-.964.276-1.521 1.282-1.245 2.245l.8 2.792c.276.964 1.281 1.521 2.245 1.245l12.224-3.503c.964-.276 1.521-1.281 1.245-2.245l-.8-2.792C417.463 215.162 416.458 214.605 415.494 214.881zM435.933 209.024l-12.224 3.503c-.964.276-1.521 1.282-1.245 2.245l.8 2.792c.276.964 1.281 1.521 2.245 1.245l12.224-3.503c.964-.276 1.521-1.281 1.245-2.245l-.8-2.792C437.902 209.306 436.897 208.748 435.933 209.024z" class="colorFFF svgShape"></path></g><g fill="#000000" class="color000 svgShape"><path fill="#ff7a9e" d="M1122.616,225.587l-101.03-39.084c-2.418-0.936-5.137,0.266-6.073,2.685l-24.668,63.765    c-0.936,2.418,0.267,5.137,2.685,6.073l101.03,39.084c2.418,0.936,5.137-0.267,6.073-2.685l24.668-63.765    C1126.237,229.242,1125.035,226.523,1122.616,225.587z" class="colorFF7A9E svgShape"></path><path fill="#ffffff" d="M1108.777,238.741l-85.806-33.195c-2.418-0.936-5.137,0.266-6.073,2.685l-12.212,31.567    c-0.936,2.418,0.266,5.137,2.685,6.073l85.806,33.195c2.418,0.936,5.137-0.266,6.073-2.685l12.212-31.567    C1112.397,242.396,1111.195,239.677,1108.777,238.741z" class="colorFFF svgShape"></path><path fill="#ff7a9e" d="M1066.679,244.403l-10.611-11.41c-0.661-0.711-1.839-0.485-2.189,0.421l-5.056,13.069    c-0.355,0.917,0.386,1.885,1.364,1.782l15.667-1.659C1066.932,246.491,1067.416,245.196,1066.679,244.403z" class="colorFF7A9E svgShape"></path><path fill="#ffffff" d="M1036.8 197.06l-11.86-4.588c-.935-.362-1.987.103-2.348 1.038l-1.048 2.709c-.362.935.103 1.987 1.038 2.348l11.86 4.588c.935.362 1.986-.103 2.348-1.038l1.048-2.709C1038.2 198.474 1037.735 197.422 1036.8 197.06zM1056.63 204.732l-11.86-4.588c-.935-.362-1.986.103-2.348 1.038l-1.048 2.709c-.362.935.103 1.987 1.038 2.348l11.86 4.588c.935.362 1.987-.103 2.348-1.038l1.048-2.709C1058.03 206.145 1057.565 205.093 1056.63 204.732zM1076.459 212.403l-11.86-4.588c-.935-.362-1.987.103-2.348 1.038l-1.048 2.709c-.362.935.103 1.987 1.038 2.348l11.86 4.588c.935.362 1.986-.103 2.348-1.038l1.048-2.709C1077.859 213.816 1077.395 212.765 1076.459 212.403zM1096.289 220.074l-11.86-4.588c-.935-.362-1.986.103-2.348 1.038l-1.048 2.709c-.362.935.103 1.987 1.038 2.348l11.86 4.588c.935.362 1.986-.103 2.348-1.038l1.048-2.709C1097.689 221.487 1097.224 220.436 1096.289 220.074zM1116.118 227.745l-11.86-4.588c-.935-.362-1.986.103-2.348 1.038l-1.048 2.709c-.362.935.103 1.987 1.038 2.348l11.86 4.588c.935.362 1.987-.103 2.348-1.038l1.048-2.709C1117.518 229.159 1117.053 228.107 1116.118 227.745zM1014.247 255.36l-11.86-4.588c-.935-.362-1.987.103-2.348 1.038l-1.048 2.709c-.362.935.103 1.986 1.038 2.348l11.86 4.588c.935.362 1.987-.103 2.348-1.038l1.048-2.709C1015.646 256.773 1015.182 255.722 1014.247 255.36zM1034.076 263.031l-11.86-4.588c-.935-.362-1.987.103-2.348 1.038l-1.048 2.709c-.362.935.103 1.986 1.038 2.348l11.86 4.588c.935.362 1.987-.103 2.348-1.038l1.048-2.709C1035.476 264.444 1035.011 263.393 1034.076 263.031zM1053.906 270.702l-11.86-4.588c-.935-.362-1.987.103-2.348 1.038l-1.048 2.709c-.362.935.103 1.986 1.038 2.348l11.86 4.588c.935.362 1.986-.103 2.348-1.038l1.048-2.709C1055.306 272.116 1054.841 271.064 1053.906 270.702zM1073.735 278.374l-11.86-4.588c-.935-.362-1.986.103-2.348 1.038l-1.048 2.709c-.362.935.103 1.986 1.038 2.348l11.86 4.588c.935.362 1.986-.103 2.348-1.038l1.048-2.709C1075.135 279.787 1074.67 278.735 1073.735 278.374zM1093.565 286.045l-11.86-4.588c-.935-.362-1.986.103-2.348 1.038l-1.048 2.709c-.362.935.103 1.986 1.038 2.348l11.86 4.588c.935.362 1.987-.103 2.348-1.038l1.048-2.709C1094.965 287.458 1094.5 286.407 1093.565 286.045z" class="colorFFF svgShape"></path></g><g fill="#000000" class="color000 svgShape"><path fill="#205749" d="M1130.935 720.439c-4.873 10.932-7.641 22.724-8.851 34.607-1.051 10.322-.865 20.705-.836 31.064.017 5.94-.085 11.879-.346 17.813-.042.962 1.404.939 1.482 0 .855-10.275.407-20.607.464-30.905.059-10.711.722-21.415 2.954-31.914 1.472-6.927 3.559-13.667 5.886-20.348C1131.839 720.322 1131.125 720.011 1130.935 720.439L1130.935 720.439zM1116.258 690.296c-.541 15.15-.894 30.304-1.07 45.463-.17 14.659-.138 29.32.363 43.974.281 8.206.655 16.412 1.415 24.589.097 1.049 1.725 1.081 1.663 0-.825-14.549-1.535-29.085-1.731-43.659-.199-14.826-.117-29.651.062-44.477.104-8.631.182-17.258.17-25.89C1117.13 689.733 1116.278 689.735 1116.258 690.296L1116.258 690.296z" class="color205749 svgShape"></path><path fill="#205749" d="M1150.185 646.494c-6.796 7.409-12.09 15.997-16.14 25.178-4.338 9.836-7.378 20.177-9.59 30.686-2.314 10.989-3.731 22.154-4.6 33.345-.87 11.205-1.183 22.448-1.152 33.684.029 10.473.395 20.933.873 31.394.054 1.18.11 2.361.167 3.541.063 1.298 2.089 1.305 2.026 0-.493-10.182-.834-20.375-.935-30.569-.109-11.094.094-22.195.807-33.267.717-11.133 1.947-22.246 3.989-33.218 1.964-10.551 4.698-21 8.605-31.006 3.618-9.266 8.332-18.267 14.419-26.159.744-.965 1.513-1.91 2.3-2.84C1151.399 646.735 1150.663 645.972 1150.185 646.494L1150.185 646.494zM1093.795 690.87c3.201 6.822 5.76 14.045 7.867 21.275 2.077 7.127 3.749 14.347 5.005 21.664 2.55 14.859 3.552 29.927 4.37 44.964.458 8.411.833 16.826 1.344 25.233.084 1.39 2.256 1.4 2.174 0-.892-15.166-1.338-30.36-2.661-45.499-1.313-15.019-3.417-30.051-7.604-44.564-2.368-8.21-5.637-16.034-9.642-23.573C1094.347 689.803 1093.529 690.302 1093.795 690.87L1093.795 690.87z" class="color205749 svgShape"></path><path fill="#205749" d="M1094.623,647.06c2.992,20.827,7.203,41.461,10.729,62.202c3.421,20.123,6.449,40.325,8.312,60.658     c0.518,5.65,0.946,11.308,1.272,16.972c0.334,5.803,0.341,11.633,0.747,17.428c0.087,1.239,1.901,1.262,1.943,0     c0.171-5.125-0.197-10.307-0.469-15.425c-0.271-5.113-0.627-10.221-1.059-15.323c-0.859-10.169-2.018-20.311-3.38-30.425     c-2.759-20.485-6.377-40.84-10.104-61.167c-2.158-11.77-4.389-23.523-6.88-35.227     C1095.577,646.013,1094.521,646.346,1094.623,647.06L1094.623,647.06z" class="color205749 svgShape"></path><path fill="#205749" d="M1103.887 604.395c.408 5.824.691 11.657 1.093 17.482.431 6.261.914 12.517 1.39 18.775 1.016 13.372 1.997 26.746 2.951 40.122.983 13.786 1.91 27.576 2.746 41.372.808 13.33 1.555 26.665 2.162 40.006.546 12.003.982 24.012 1.184 36.026.023 1.375.053 2.75.092 4.125.037 1.3 2.019 1.308 2.026 0 .059-11.775-.479-23.576-.972-35.339-.554-13.223-1.253-26.44-2.067-39.649-.848-13.787-1.792-27.568-2.796-41.344-.982-13.48-2.04-26.953-3.144-40.423-1.009-12.309-2.086-24.604-3.38-36.887-.15-1.421-.294-2.842-.429-4.265C1104.692 603.854 1103.848 603.84 1103.887 604.395L1103.887 604.395zM1136.5 609.63c-3.966 12.304-6.893 25.015-9.349 37.7-2.438 12.594-4.381 25.287-5.856 38.03-1.481 12.797-2.517 25.643-3.176 38.508-.652 12.727-.935 25.472-.911 38.216.023 12.665.349 25.33.918 37.982.07 1.553.146 3.106.229 4.658.072 1.348 2.169 1.36 2.108 0-.57-12.571-1.01-25.143-1.112-37.727-.103-12.729.092-25.462.647-38.179.556-12.739 1.473-25.464 2.816-38.144 1.357-12.815 3.13-25.587 5.413-38.271 2.285-12.694 5.036-25.288 8.225-37.785.397-1.557.759-3.124 1.142-4.685C1137.771 609.219 1136.724 608.935 1136.5 609.63L1136.5 609.63z" class="color205749 svgShape"></path><path fill="#276b5a" d="M1096.231,691.818c-25.034,3.64-20.579-30.915-52.189-29.439c-4.216,0.197-9.071,1.033-14.727,2.684      c0.99-4.827,10.876-12.275,17.024-13.321c1.988,0.822,3.731,2.382,4.911,4.982c0.52-0.316,0.007-3.415-2.867-5.923      c6.106-0.45,10.293-4.391,15.549-4.089h0.007c1.56,1.89,2.319,4.328,2.403,7.251c0.639,0.175,2.115-2.944,0.014-7.398      c6.007,2.044,17.65,1.454,23.783,9.127c0.661,2.431-0.169,6.541-1.595,8.754c1.377,0.415,3.471-3.33,3.33-6.731      C1105.274,674.478,1096.231,691.818,1096.231,691.818z" class="color276B5A svgShape"></path><path fill="#205749" d="M1096.231,691.818c-25.034,3.64-20.579-30.915-52.189-29.439c7.265-1.813,20.803-3.673,27.28,1.537      C1085.01,674.927,1083.758,688.881,1096.231,691.818z" class="color205749 svgShape"></path><path fill="#50a673" d="M1148.552,648.656c25.034,3.639,20.579-30.915,52.189-29.439c4.216,0.197,9.071,1.033,14.727,2.684      c-3.122-6.679-10.876-12.275-17.024-13.321c-1.988,0.822-3.731,2.382-4.911,4.982c-0.52-0.316-0.007-3.415,2.867-5.923      c-6.106-0.45-10.293-4.391-15.549-4.089h-0.007c-1.56,1.89-2.319,4.328-2.403,7.251c-0.639,0.176-2.115-2.944-0.014-7.398      c-6.007,2.044-17.65,1.454-23.783,9.127c-0.661,2.431,0.169,6.541,1.595,8.754c-1.377,0.415-3.471-3.33-3.33-6.731      C1139.51,631.316,1148.552,648.656,1148.552,648.656z" class="color50A673 svgShape"></path><path fill="#398c5b" d="M1148.552,648.656c25.034,3.639,20.579-30.915,52.189-29.439c-7.265-1.813-20.804-3.673-27.28,1.537      C1159.773,631.766,1161.025,645.72,1148.552,648.656z" class="color398C5B svgShape"></path><path fill="#50a673" d="M1097.448,648.62c-0.731,0.576-17.375,1.497-25.512-9.527c-4.047-5.494-5.818-13.638-8.249-20.01      c-0.52-1.349-2.41-4.953-3.063-6.204c3.021-0.134,6.246,1.047,6.836,1.482c-2.424-3.457-6.359-1.742-8.895-4.764      c-2.895-3.443-9.52-12.696-16.104-13.244c5.789-3.457,12.668-5.052,18.268-4.672c0.935,0.056,1.813,0.478,2.396,1.208      c1.082,1.363,1.335,3.197,1.778,5.565c0.527-0.176,1.082-3.309-0.857-6.457c3.892-0.808,9.38,0.794,12.366,3.295      c1.286,2.094,0.26,3.977-0.162,7.103c0.696,0.056,2.241-2.621,1.447-6.169C1098.017,607.371,1107.319,636.739,1097.448,648.62z" class="color50A673 svgShape"></path><path fill="#398c5b" d="M1097.448,648.62c-0.731,0.576-17.375,1.497-25.512-9.527c-4.047-5.494-5.818-13.638-8.249-20.01      c-0.52-1.349-2.41-4.953-3.063-6.204c3.021-0.134,6.246,1.047,6.836,1.482c-2.424-3.457-6.359-1.742-8.895-4.764      c-2.895-3.443-9.52-12.696-16.104-13.244c0,0,26.699,0.098,32.404,16.975C1080.571,630.205,1089.965,646,1097.448,648.62z" class="color398C5B svgShape"></path><path fill="#276b5a" d="M1130.632,721.794c0.731,0.576,17.375,1.496,25.512-9.527c4.047-5.494,5.818-13.638,8.249-20.01      c0.52-1.349,2.41-4.953,3.063-6.204c-3.021-0.134-6.246,1.047-6.836,1.483c2.424-3.457,6.359-1.743,8.895-4.764      c2.895-3.443,9.52-12.696,16.104-13.244c-5.789-3.457-12.668-5.052-18.268-4.672c-0.935,0.056-1.813,0.478-2.396,1.208      c-1.082,1.363-1.335,3.197-1.778,5.565c-0.527-0.176-1.082-3.309,0.857-6.457c-3.892-0.808-9.38,0.794-12.366,3.295      c-1.286,2.094-0.26,3.977,0.162,7.103c-0.696,0.056-2.241-2.621-1.447-6.169C1130.063,680.544,1120.76,709.913,1130.632,721.794      z" class="color276B5A svgShape"></path><path fill="#205749" d="M1130.632,721.794c0.731,0.576,17.375,1.496,25.512-9.527c4.047-5.494,5.818-13.638,8.249-20.01      c0.52-1.349,2.41-4.953,3.063-6.204c-3.021-0.134-6.246,1.047-6.836,1.483c2.424-3.457,6.359-1.743,8.895-4.764      c2.895-3.443,9.52-12.696,16.104-13.244c0,0-26.699,0.098-32.404,16.975C1147.508,703.379,1138.114,719.173,1130.632,721.794z" class="color205749 svgShape"></path><path fill="#80bf9a" d="M1143.033,648.993c-0.92,22.638-12.879,38.348-25.856,42.093c-10.939-9.323-17.052-23.973-16.202-38.292      c2.227,4.932,5.164,6.731,5.291,6.12c-2.74-3.267-4.349-6.689-4.862-10.202c0-0.007,0-0.007,0-0.007      c-0.168-5.256,1.602-10.441,4.546-15.675c1.483,4.904,4.623,6.991,5.424,6.302c-2.593-2.6-3.843-5.895-4.377-8.958      c1.033-2.579,2.108-5.143,3.12-7.714c0.204-0.52,0.407-1.04,0.611-1.567c1.328,4.131,3.281,5.178,3.457,4.623      c-1.173-2.234-2.009-4.525-2.536-7.103c2.712-7.539,4.651-15.429,3.661-23.319c4.096,3.871,8.01,7.939,9.942,14.01      c-0.07,1.728-0.548,3.478-1.904,5.066c0.365,0.246,2.115-0.92,2.846-3.682c2.571,2.48,5.41,5.565,5.818,9.092      c0.021,2.846-1.314,4.883-3.099,7.469c0.506-0.077,3.309-2.318,4.173-5.761c0.155,0.26,0.337,0.492,0.457,0.773      c1.728,4.04,5.607,6.907,5.754,10.462c0.19,3-2.206,5.888-5.157,8.642c0.822,0.239,5.017-1.806,5.951-5.853      C1141.726,639.852,1143.349,645.557,1143.033,648.993z" class="color80BF9A svgShape"></path><path fill="#62a67e" d="M1121.983,637.547c-5.67,18.858-9.703,42.999-4.806,53.538c-10.939-9.323-17.052-23.973-16.202-38.292      c2.227,4.932,5.164,6.731,5.291,6.12c-2.74-3.267-4.349-6.689-4.862-10.202c0-0.007,0-0.007,0-0.007      c-0.168-5.256,1.602-10.441,4.546-15.675c1.483,4.904,4.623,6.991,5.424,6.302c-2.593-2.6-3.843-5.895-4.377-8.958      c1.033-2.579,2.108-5.143,3.12-7.714c0.204-0.52,0.407-1.04,0.611-1.567c1.328,4.131,3.281,5.178,3.457,4.623      c-1.173-2.234-2.009-4.525-2.536-7.103c2.712-7.539,4.651-15.429,3.661-23.319      C1115.308,595.293,1127.653,618.69,1121.983,637.547z" class="color62A67E svgShape"></path><path fill="#ff7a9e" d="M1140.374,815.132h-46.998c-5.268,0-9.104-8.308-7.746-16.777l6.991-43.608h48.509l6.991,43.608      C1149.478,806.824,1145.642,815.132,1140.374,815.132z" class="colorFF7A9E svgShape"></path><path fill="#e6537a" d="M1148.121,798.355l-6.991-43.608h-48.509l-1.905,11.88h7.031c20.479,0,37.925,14.873,41.167,35.093     l1.365,8.515c0.266,1.657,0.33,3.306,0.226,4.89C1145.705,814.988,1149.467,806.753,1148.121,798.355z" class="colorE6537A svgShape"></path><path fill="#ff7a9e" d="M1139.536,757.522h-45.322c-2.747,0-4.975-2.227-4.975-4.975l0,0c0-2.747,2.227-4.975,4.975-4.975h45.322     c2.747,0,4.975,2.227,4.975,4.975l0,0C1144.511,755.295,1142.284,757.522,1139.536,757.522z" class="colorFF7A9E svgShape"></path><g fill="#000000" class="color000 svgShape"><path fill="#276b5a" d="M1135.698,612.446c0.577,0.377,12.916-0.038,18.194-8.705c2.625-4.319,3.396-10.443,4.77-15.304      c0.295-1.029,1.453-3.813,1.852-4.778c-2.238,0.1-4.539,1.183-4.946,1.543c1.561-2.709,4.576-1.703,6.249-4.099      c1.909-2.73,6.189-9.992,11.01-10.828c-4.498-2.17-9.677-2.895-13.783-2.247c-0.686,0.103-1.306,0.471-1.688,1.049      c-0.708,1.077-0.775,2.446-0.946,4.222c-0.4-0.095-1.016-2.37,0.208-4.82c-2.925-0.34-6.867,1.202-8.906,3.243      c-0.811,1.629,0.069,2.951,0.586,5.23c-0.51,0.087-1.826-1.786-1.473-4.456C1132.568,582.053,1127.635,604.33,1135.698,612.446z      " class="color276B5A svgShape"></path><path fill="#205749" d="M1135.698,612.446c0.577,0.377,12.916-0.038,18.194-8.705c2.625-4.319,3.396-10.443,4.77-15.304      c0.295-1.029,1.453-3.813,1.852-4.778c-2.238,0.1-4.539,1.183-4.946,1.543c1.561-2.709,4.576-1.703,6.249-4.099      c1.909-2.73,6.189-9.992,11.01-10.828c0,0-19.69,1.827-22.79,14.652C1146.938,597.752,1141.046,610.021,1135.698,612.446z" class="color205749 svgShape"></path></g><g fill="#000000" class="color000 svgShape"><path fill="#80bf9a" d="M1109.572,581.519c4.637,12.584,1.667,23.887-4.577,28.881c-8.097-2.613-14.765-9.233-17.551-17.254      c2.337,2.19,4.351,2.507,4.282,2.144c-2.24-1.164-3.896-2.669-4.974-4.473c-0.002-0.004-0.002-0.004-0.002-0.004      c-1.286-2.835-1.495-6.071-1.074-9.601c1.924,2.344,4.115,2.772,4.396,2.214c-2.008-0.832-3.439-2.35-4.427-3.903      c-0.021-1.644-0.016-3.29-0.046-4.926c-0.007-0.331-0.013-0.661-0.022-0.995c1.664,1.957,2.969,2.086,2.939,1.742      c-1.149-0.955-2.126-2.017-2.999-3.307c-0.229-4.737-0.961-9.491-3.294-13.579c3.118,1.186,6.181,2.522,8.616,5.401      c0.354,0.961,0.49,2.026,0.109,3.201c0.256,0.052,0.947-0.983,0.72-2.659c1.969,0.772,4.221,1.813,5.245,3.649      c0.658,1.551,0.391,2.968,0.002,4.786c0.259-0.157,1.283-2.019,0.973-4.097c0.144,0.107,0.296,0.192,0.425,0.319      c1.862,1.816,4.633,2.503,5.521,4.413c0.785,1.597,0.131,3.719-0.857,5.895c0.504-0.056,2.332-2.126,1.924-4.551      C1106.782,576.819,1108.964,579.569,1109.572,581.519z" class="color80BF9A svgShape"></path><path fill="#62a67e" d="M1095.466,580.042c1.182,11.596,4.459,25.709,9.529,30.358c-8.097-2.613-14.765-9.233-17.551-17.254      c2.337,2.19,4.351,2.507,4.282,2.144c-2.24-1.164-3.896-2.669-4.974-4.473c-0.002-0.004-0.002-0.004-0.002-0.004      c-1.286-2.835-1.495-6.071-1.074-9.601c1.924,2.344,4.115,2.772,4.396,2.214c-2.008-0.832-3.439-2.35-4.427-3.903      c-0.021-1.644-0.016-3.29-0.046-4.926c-0.007-0.331-0.013-0.661-0.022-0.995c1.664,1.957,2.969,2.086,2.939,1.742      c-1.149-0.955-2.126-2.017-2.999-3.307c-0.229-4.737-0.961-9.491-3.294-13.579      C1082.223,558.458,1094.284,568.445,1095.466,580.042z" class="color62A67E svgShape"></path></g></g><path fill="#ffb64d" d="M1140.197 373.349c.574-.551.268-1.521-.519-1.642l-4.319-.663c-.312-.048-.581-.247-.719-.531l-1.902-3.934c-.346-.716-1.364-.725-1.722-.014l-1.966 3.903c-.142.282-.414.476-.727.519l-4.329.593c-.788.108-1.111 1.073-.545 1.633l3.104 3.076c.224.222.325.541.269.852l-.774 4.301c-.141.783.677 1.388 1.385 1.023l3.884-2.002c.281-.145.615-.142.894.007l3.851 2.065c.701.376 1.529-.215 1.401-1.001l-.704-4.313c-.051-.312.055-.629.283-.848L1140.197 373.349zM251.638 542.081c.574-.551.268-1.521-.519-1.642l-4.319-.663c-.312-.048-.581-.247-.719-.531l-1.902-3.934c-.346-.716-1.364-.725-1.722-.014l-1.966 3.903c-.142.282-.414.476-.727.519l-4.329.593c-.788.108-1.111 1.073-.545 1.633l3.104 3.076c.224.222.325.541.269.852l-.774 4.301c-.141.783.677 1.388 1.385 1.023l3.884-2.002c.281-.145.615-.142.893.007l3.851 2.065c.701.376 1.529-.215 1.401-1.001l-.704-4.313c-.051-.312.055-.629.283-.848L251.638 542.081zM721.181 121.487c.574-.551.268-1.521-.519-1.642l-4.319-.663c-.312-.048-.581-.247-.719-.531l-1.902-3.934c-.346-.716-1.364-.725-1.722-.014l-1.966 3.903c-.142.282-.414.476-.727.519l-4.329.593c-.788.108-1.111 1.073-.545 1.633l3.104 3.076c.224.222.325.541.269.852l-.774 4.301c-.141.783.677 1.388 1.385 1.023l3.884-2.002c.281-.145.615-.142.893.007l3.851 2.065c.701.376 1.529-.215 1.401-1.001l-.704-4.313c-.051-.312.055-.629.283-.848L721.181 121.487z" class="colorFFB64D svgShape"></path><path fill="#8795ff" d="M843.433 402.175c.574-.551.268-1.521-.519-1.642l-4.319-.663c-.312-.048-.581-.247-.719-.531l-1.902-3.934c-.346-.716-1.364-.725-1.722-.014l-1.966 3.903c-.142.282-.414.476-.727.519l-4.329.593c-.788.108-1.111 1.073-.545 1.633l3.104 3.076c.224.222.325.541.269.852l-.774 4.301c-.141.783.677 1.388 1.385 1.023l3.884-2.002c.281-.145.615-.142.893.007l3.851 2.065c.701.376 1.529-.215 1.401-1.001l-.704-4.313c-.051-.312.055-.629.283-.848L843.433 402.175zM1193.986 740.716c.574-.551.268-1.521-.519-1.642l-4.319-.663c-.312-.048-.581-.247-.719-.531l-1.902-3.934c-.346-.716-1.364-.725-1.722-.014l-1.966 3.903c-.142.282-.414.476-.727.519l-4.329.593c-.788.108-1.111 1.073-.545 1.633l3.104 3.076c.224.222.325.541.269.852l-.774 4.301c-.141.783.677 1.388 1.385 1.023l3.884-2.002c.281-.145.615-.142.894.007l3.851 2.065c.701.376 1.529-.215 1.401-1.001l-.704-4.313c-.051-.312.055-.629.283-.848L1193.986 740.716zM344.973 736.38c.574-.551.268-1.521-.519-1.642l-4.319-.663c-.312-.048-.581-.247-.719-.531l-1.902-3.934c-.346-.716-1.364-.725-1.722-.014l-1.966 3.903c-.142.282-.414.476-.727.519l-4.329.593c-.788.108-1.111 1.073-.545 1.633l3.104 3.076c.224.222.325.541.269.852l-.774 4.301c-.141.783.677 1.388 1.385 1.023l3.884-2.002c.281-.145.615-.142.893.007l3.851 2.065c.701.376 1.529-.215 1.401-1.001l-.704-4.313c-.051-.312.055-.629.283-.848L344.973 736.38zM491.344 255.305c.574-.551.268-1.521-.519-1.642l-4.319-.663c-.312-.048-.581-.247-.719-.531l-1.902-3.934c-.346-.716-1.364-.725-1.722-.014l-1.966 3.903c-.142.282-.414.476-.727.519l-4.329.593c-.788.108-1.111 1.073-.545 1.633l3.104 3.076c.224.222.325.541.269.852l-.774 4.301c-.141.783.677 1.388 1.385 1.023l3.884-2.002c.281-.145.615-.142.893.007l3.851 2.065c.701.376 1.529-.215 1.401-1.001l-.704-4.313c-.051-.312.055-.629.283-.848L491.344 255.305z" class="color8795FF svgShape"></path></svg>