<svg xmlns="http://www.w3.org/2000/svg" viewBox="0 0 4680 3120" width="550" height="550"><g data-name="2" fill="#000000" class="color000 svgShape"><rect width="4680" height="3120" fill="#ffffff" data-name="2" opacity="0" class="colorfff svgShape"></rect><path fill="#d1dbed" d="M2283.73,397.19V1730.8a37.21,37.21,0,0,0,37.19,37.21H3975.45a37.23,37.23,0,0,0,37.22-37.21V397.19A37.21,37.21,0,0,0,3975.45,360H2320.92A37.19,37.19,0,0,0,2283.73,397.19Z" class="colord1dbed svgShape"></path><path fill="#99b1da" d="M2283.73,397.19V496H4012.67V397.19A37.21,37.21,0,0,0,3975.45,360H2320.92A37.19,37.19,0,0,0,2283.73,397.19Z" class="color99b1da svgShape"></path><path fill="#ffffff" d="M2515.9,428a20.46,20.46,0,1,0,20.46-20.45A20.46,20.46,0,0,0,2515.9,428Z" class="colorfff svgShape"></path><path fill="#b5cae8" d="M2449.62,428a20.46,20.46,0,1,0,20.46-20.45A20.46,20.46,0,0,0,2449.62,428Z" class="colorb5cae8 svgShape"></path><path fill="#d1dbed" d="M2386.55,428A20.45,20.45,0,1,0,2407,407.54,20.46,20.46,0,0,0,2386.55,428Z" class="colord1dbed svgShape"></path><path fill="#f19a6d" d="M2682,619.9l-59.26,833.77,1219.9,86.69,59.25-833.77Zm25.63,367,92.29,6.56-6.56,92.29-92.29-6.56ZM2770.72,1404l-92.28-6.56,6.55-92.29,92.29,6.56Zm11.16-157-92.29-6.55,6.56-92.29,92.29,6.56Zm22.31-314-92.28-6.55,6.56-92.29,92.28,6.56Zm11.46-161.23-92.28-6.56,6.55-92.29,92.29,6.56Zm988.27,705.65-92.29-6.56,6.56-92.29,92.29,6.56Zm11.15-157-92.28-6.56,6.56-92.28,92.28,6.55Zm11.46-161.24-92.28-6.55,6.55-92.29,92.29,6.56Zm10.86-152.75-92.29-6.56,6.56-92.28L3844,914.1Zm11.46-161.24-92.29-6.55,6.56-92.29,92.29,6.56Z" class="colorf19a6d svgShape"></path><rect width="778.45" height="852.89" x="2873.08" y="653.69" fill="#ffffff" transform="rotate(-85.93 3262.493 1080.04)" class="colorfff svgShape"></rect><circle cx="3265.43" cy="1084.49" r="360.2" fill="#f3ce90" class="colorf3ce90 svgShape"></circle><circle cx="3265.43" cy="1084.49" r="271.64" fill="#f19a6d" class="colorf19a6d svgShape"></circle><circle cx="3265.43" cy="1084.49" r="161.99" fill="#ef7c59" transform="rotate(-45 3265.432 1084.494)" class="coloref7c59 svgShape"></circle><path fill="#ef7c59" d="M3261.38,1093l323.75-169.74c-46.28-92.22-131-162.42-234.88-188.16Z" opacity=".3" class="coloref7c59 svgShape"></path><polygon fill="#d66b51" points="3184.56 1223.91 3203.05 963.68 3384.91 1111.89 3184.56 1223.91" opacity=".5" class="colord66b51 svgShape"></polygon><polygon fill="#ffffff" points="3197.55 1204.75 3216.04 944.52 3397.9 1092.73 3197.55 1204.75" class="colorfff svgShape"></polygon><ellipse cx="2461.35" cy="2658.86" fill="#7a8db0" rx="1301.38" ry="101.14" class="color7a8db0 svgShape"></ellipse><path fill="#f3ce90" d="M1297,1049.66l290.75-10.79,234.44,881.05,99.26,33.09c32.41,0-35.45,42.82-35.45,75.23H1839l-496.67-.07c-40.85,0-62.23-10.32-70-50.42l-158.94-693.21C1089.43,1166.45,1176.65,1054.92,1297,1049.66Z" class="colorf3ce90 svgShape"></path><path fill="#f19a6d" d="M1310,1966.74l521.11-18-102.08-799.72a127.93,127.93,0,0,0-131.56-109.5l-260.76,10.11c-120.38,5.26-207.61,116.79-183.69,234.89Z" class="colorf19a6d svgShape"></path><path fill="#ef7c59" d="M1869.91,2649.82h-33.69v-53.48c0-90-73.25-163.28-163.28-163.28H1560c-90,0-163.28,73.25-163.28,163.28v53.48H1363v-53.48c0-108.61,88.36-197,197-197h112.94c108.61,0,197,88.36,197,197Z" class="coloref7c59 svgShape"></path><circle cx="1859.05" cy="2589.92" r="59.9" fill="#d66b51" transform="rotate(-85.93 1859.25 2589.961)" class="colord66b51 svgShape"></circle><path fill="#ffffff" d="M1830.32,2589.92a28.74,28.74,0,1,1,28.73,28.73A28.73,28.73,0,0,1,1830.32,2589.92Z" class="colorfff svgShape"></path><rect width="33.69" height="383.79" x="1596.63" y="2026.44" fill="#ef7c59" class="coloref7c59 svgShape"></rect><path fill="#f19a6d" d="M1535.61,2416.22h155.73a53.91,53.91,0,0,0-53.91-53.91h-47.91a53.91,53.91,0,0,0-53.91,53.91Z" class="colorf19a6d svgShape"></path><circle cx="1385.87" cy="2589.92" r="59.9" fill="#d66b51" transform="rotate(-85.93 1386.041 2589.978)" class="colord66b51 svgShape"></circle><path fill="#ffffff" d="M1354.14,2589.92a28.73,28.73,0,1,1,28.73,28.73A28.73,28.73,0,0,1,1354.14,2589.92Z" class="colorfff svgShape"></path><path fill="#f5b0a6" d="M2473.08 2541.88s-44.15-57-63.56-128.15l-94.59 42.06s39.67 110.16 41.64 117.66 79.84 13.63 79.84 13.63zM2214.27 2560s-68.18-38.36-87.58-109.48l-87.58 48.4s32.93 117.29 34.9 124.78 79.84 13.64 79.84 13.64z" class="colorf5b0a6 svgShape"></path><path fill="#2c4da2" d="M1809.77,1576.78s427.45,65.32,467,104,194.19,758,194.19,758-63,42.58-168,55.36L2104.1,1879.6,2004,1858.9l170.56,609.47s-81.12,58.64-170.28,35.15l-232.62-563S1406,1911,1374,1857.43s-40.91-278.71-40.91-278.71Z" class="color2c4da2 svgShape"></path><path fill="#d1dbed" d="M2004.19,1861.52a2.3,2.3,0,0,1-2.28-1.61c-16.29-42.68-46.19-111.36-57.06-113.92-16-3.79-250.75-88.77-260.73-92.39a2.42,2.42,0,0,1-1.39-1.38l-43-99.29a2.79,2.79,0,0,1,1-3.51,2.15,2.15,0,0,1,3,1.24l42.52,98.25c16.64,6,244,88.3,259.34,91.91,16.79,4,56,105.49,60.39,117.06a2.76,2.76,0,0,1-1.11,3.45A2,2,0,0,1,2004.19,1861.52Z" class="colord1dbed svgShape"></path><path fill="#d1dbed" d="M1709.57 1660.25a2 2 0 01-1.14-.23 2.92 2.92 0 01-1.17-3.51l9.82-26.42-29.42-85.37a2.73 2.73 0 011.23-3.39 2.22 2.22 0 012.92 1.55l29.78 86.39a3 3 0 010 2l-10.2 27.44A2.2 2.2 0 011709.57 1660.25zM2366.05 2479.42a2.33 2.33 0 01-2.35-1.8c-55.53-180.68-202.26-652.49-214.13-665.59-10.1-7.36-138.84-34.1-187.59-43.78a2.7 2.7 0 01-1.91-3 2.22 2.22 0 012.53-2.15c7.2 1.43 176.29 35.07 189.4 44.64s195.21 600.88 215.91 668.27a2.68 2.68 0 01-1.33 3.32A1.42 1.42 0 012366.05 2479.42zM2034.7 2506.91a2.33 2.33 0 01-2.33-1.72c-2-6-190.32-558.91-212.06-585.74-13.71-16.92-159.53-42.13-266-60.55-63.74-11-114.09-19.73-127-24.71-32-12.33-36.3-100.11-40.82-193-.69-14.2-1.39-28.4-2.18-42.26a2.38 2.38 0 012.09-2.73 2.49 2.49 0 012.38 2.53c.8 13.88 1.49 28.1 2.19 42.32 4.24 87 8.62 177 37.62 188.19 12.56 4.84 65.25 14 126.27 24.5 113.09 19.56 253.85 43.9 268.68 62.2 22.35 27.58 204.64 562.86 213 587.48.46 1.36-1.13 2.16-2.27 2.67C2034.07 2506.13 2034.9 2506.89 2034.7 2506.91z" class="colord1dbed svgShape"></path><path fill="#d1dbed" d="M1400.14,1711a90.76,90.76,0,0,1-9.18.46,2.56,2.56,0,0,1-2.28-2.66,2.44,2.44,0,0,1,2.2-2.61c.54,0,54.73.28,80.35-38,13.69-20.48,16.93-48.42,9.64-83.06a2.59,2.59,0,0,1,1.63-3.13,2.35,2.35,0,0,1,2.72,2c7.64,36.3,4.13,65.75-10.45,87.53C1454.13,1702.36,1417.28,1709.41,1400.14,1711Z" class="colord1dbed svgShape"></path><polygon fill="#dadada" points="1823.85 1586.13 1788.05 1519.7 1724.96 1565.2 1734.7 1597.59 1823.85 1586.13" class="colordadada svgShape"></polygon><path fill="#f5b0a6" d="M1784.42,1223.73s75.43,175.62,92.91,197.46c22.41,28,176,37.81,285.26-329.13L2107,1029s-151.26,207.28-156.87,201.68l-42.33-111.4Z" class="colorf5b0a6 svgShape"></path><path fill="#9972e8" d="M1320.79,1664.13s237.49,34.47,492.81-115.84c0,0-62.7-153-65.68-185.09s18.8-156.33,18.8-156.33l13.83,33.42s96.8,13.82,165.94-43.79c0,0-51.86-243.16-124.46-290.4-53.2-34.63-233.89-73.81-233.89-73.81l-120.57-3.15s-214.46,68.41-243,108.77-37.71,231.5-37.71,231.5l80.3,14.08S1297.91,1591.75,1320.79,1664.13Z" class="color6fc183 svgShape"></path><path fill="#f5b0a6" d="M1616 765.07s-3.06 59.59-2.07 62.24c3.14 8.46 12.76 14.25 12.76 14.25s27.86 58.16-39.22 60.8S1452.41 835 1452.41 835l3.76-4.07a73.6 73.6 0 0019-41.25L1487 690.88zM1210.63 1174.38s21.82 205.78 35.48 236.82 293.45 192.19 305.12 201.88 97 35.64 102.51 36.92-.42-86-.42-86l-8-51.93s-37.74 8.35-59.62 12.69a13 13 0 01-12-3.77c-27.26-28.42-159.85-166.27-200.07-201.11l-3.25-146S1283.81 1189.12 1210.63 1174.38z" class="colorf5b0a6 svgShape"></path><path fill="#9972e8" d="M1189.54,1128.66l-10.39,127.19s141.85,33.94,202.23,2.74l18-110.73-22.2-50.45Z" class="color6fc183 svgShape"></path><path fill="#40947e" d="M1324.25,1272.29c-75,7-144.6-14.87-145.5-15.16a1.34,1.34,0,1,1,.81-2.55c1.15.37,116.06,36.42,209.21.49,0-14.39-.52-191.48-15.55-229.63a1.34,1.34,0,1,1,2.49-1c15.78,40,15.75,223.73,15.74,231.53a1.32,1.32,0,0,1-.85,1.24C1369.1,1265.64,1346.43,1270.23,1324.25,1272.29Z" class="color40947e svgShape"></path><path fill="#40947e" d="M1386.48 1101a1.34 1.34 0 01-1.2-2.13c17.09-23 18.14-70.92 18.16-71.41a1.31 1.31 0 011.36-1.31 1.33 1.33 0 011.31 1.37c0 2-1.08 49.25-18.68 73A1.36 1.36 0 011386.48 1101zM1770.48 1191a2.47 2.47 0 01-.51 0 1.35 1.35 0 01-1-1.36c1.32-24.15 14.51-107.48 14.65-108.32a1.34 1.34 0 012.64.42c-.12.78-11.58 73.18-14.19 102.42l27.78-46.46a1.34 1.34 0 112.3 1.38l-30.69 51.32A1.34 1.34 0 011770.48 1191z" class="color40947e svgShape"></path><path fill="#5681bf" d="M1783.88,1469.81c.55,6-30.83,13.73-70.09,17.38s-71.54,1.79-72.1-4.16,30.83-13.73,70.09-17.38S1783.33,1463.86,1783.88,1469.81Z" class="color5681bf svgShape"></path><path fill="#99b1da" d="M1790.56,1623.47c.74,7.93-27.12,17-62.22,20.27s-64.15-.52-64.88-8.45,27.11-17,62.21-20.28S1789.82,1615.54,1790.56,1623.47Z" class="color99b1da svgShape"></path><polygon fill="#99b1da" points="1790.56 1623.47 1783.88 1469.81 1641.69 1483.03 1663.45 1635.29 1790.56 1623.47" class="color99b1da svgShape"></polygon><path fill="#d1dbed" d="M1779.46,1472.57c.46,4.86-29.09,11.58-66,15s-67.17,2.27-67.62-2.58,29.09-11.58,66-15S1779,1467.72,1779.46,1472.57Z" class="colord1dbed svgShape"></path><path fill="#99b1da" d="M1806.43,1593l-22.31,2.08a10.82,10.82,0,0,1-2-21.55l21.9-2,5.53-62.28a1.42,1.42,0,0,0-.49-1.25,1.48,1.48,0,0,0-1.31-.36l-25.11,5a10.82,10.82,0,1,1-4.21-21.22l25.12-5a23.14,23.14,0,0,1,27.55,24.76l-5.57,62.69A21.12,21.12,0,0,1,1806.43,1593Z" class="color99b1da svgShape"></path><path fill="#f5b0a6" d="M1644.5,1539.78l47.92,15.74s66-6.81,66.95,3.2-63.69,17.37-63.69,17.37l-27.07-1.53,26.29,7.66s66.13-12.88,67.24-.87-67.86,23.14-67.86,23.14l-30.53-2.55,24.83,6.45s58.72-12.87,60.57-.25-66.12,24.75-66.12,24.75l-33.07-5.43,27.82,9.54s49-8.6,52.49-.17c2.77,6.7-34.15,15.39-49.39,18.67a24.29,24.29,0,0,1-12.52-.62L1609,1636Z" class="colorf5b0a6 svgShape"></path><path fill="#2a3c63" d="M2347.56,2548.49s-9.84,72.35,3.51,134.43l347.38,5.21s22.41-66.3-55.85-84.14-178.4-79.12-178.4-79.12S2394.54,2589.65,2347.56,2548.49Z" class="color2a3c63 svgShape"></path><path d="M2351,2682.92l347.38,5.2a73.06,73.06,0,0,0,1.51-34.88L2347.54,2648A169.77,169.77,0,0,0,2351,2682.92Z" fill="#000000" class="color000 svgShape"></path><path fill="#3d5891" d="M2446 2601.71c-3.87-2.22-6.39-6.68-6.75-11.92-.32-4.48.92-8.87 2.1-12.63a172 172 0 0111.59-27.93c3.07-5.85 6.66-11.87 12.15-16.33 7.83-6.31 18.23-8.23 27.37-9.27a216.49 216.49 0 0123.82-1.38h.8c10.43 0 22.36 1 31.76 7.58 4.22 3 6.19 6.72 5.39 10.29-.62 2.72-2.76 5-6.22 6.51a28 28 0 01-11.42 2.19 72.93 72.93 0 01-12.51-1.32c-17-2.9-34.08-6.58-50.86-11a113.79 113.79 0 012.25 26.74c-.41 11.5-2.62 20.72-6.75 28.21-2.52 4.56-5.43 7.75-8.89 9.74a15.67 15.67 0 01-7.59 2.08h0A12.38 12.38 0 012446 2601.71zm21.95-65.28c-4.85 4-8.15 9.49-11 14.9a166.73 166.73 0 00-11.28 27.2c-1.12 3.51-2.17 7.25-1.91 10.95s2 6.84 4.48 8.28a7.88 7.88 0 004 1h0a11.09 11.09 0 005.33-1.46c2.73-1.57 5.08-4.19 7.18-8 3.79-6.86 5.81-15.41 6.19-26.18a109.65 109.65 0 00-2.45-27.09zm25-8.28c-5.89.66-12.32 1.71-18 4.15 16.45 4.26 33.22 7.87 49.87 10.72a70.83 70.83 0 0011.74 1.26 23.47 23.47 0 009.59-1.82c1.2-.52 3.25-1.66 3.62-3.33.45-2-1.55-4.18-3.57-5.6-8.36-5.9-19.43-6.72-29.15-6.74h-.78A209.71 209.71 0 002493 2528.15zM2699.87 2655.52a2.28 2.28 0 000-4.55l-352.32-5.29a2.31 2.31 0 00-2.3 2.24 2.27 2.27 0 002.23 2.31l352.32 5.29z" class="color3d5891 svgShape"></path><path fill="#3d5891" d="M2486.89 2652.12a2.33 2.33 0 001.11-.29l1.4-.8a209.81 209.81 0 01101.85-27.27l88-.61a2.28 2.28 0 000-4.55h0l-88 .61a214.54 214.54 0 00-104.06 27.86l-1.4.8a2.27 2.27 0 001.13 4.25zM2560 2608.2a2.32 2.32 0 001.83-.95l16.95-23.32a2.27 2.27 0 10-3.68-2.66L2559.24 2603l-121.07-59a2.27 2.27 0 10-2 4.09L2559 2608A2.23 2.23 0 002560 2608.2z" class="color3d5891 svgShape"></path><path fill="#2f4171" d="M2051.4,2546.18s-9.84,72.36,3.51,134.44l347.38,5.2s22.41-66.3-55.86-84.13S2168,2522.56,2168,2522.56,2098.38,2587.34,2051.4,2546.18Z" class="color2f4171 svgShape"></path><path d="M2054.81,2680.61l347.38,5.21a73.08,73.08,0,0,0,1.51-34.88l-352.32-5.28A169,169,0,0,0,2054.81,2680.61Z" fill="#000000" class="color000 svgShape"></path><path fill="#3d5891" d="M2149.85 2599.4c-3.87-2.22-6.39-6.67-6.76-11.91-.31-4.48.92-8.87 2.11-12.64a171.84 171.84 0 0111.59-27.92c3.07-5.86 6.66-11.87 12.15-16.34 7.83-6.3 18.23-8.23 27.37-9.27a218.83 218.83 0 0123.82-1.38h.8c10.43 0 22.36.94 31.76 7.58 4.21 3 6.18 6.72 5.39 10.29-.62 2.71-2.76 5-6.22 6.5a28.06 28.06 0 01-11.42 2.2 73.92 73.92 0 01-12.51-1.33c-17-2.9-34.08-6.57-50.86-10.95a113.74 113.74 0 012.25 26.74c-.41 11.49-2.62 20.72-6.76 28.2-2.51 4.56-5.42 7.75-8.89 9.75a15.6 15.6 0 01-7.58 2.08h0A12.49 12.49 0 012149.85 2599.4zm22-65.28c-4.86 4-8.15 9.5-11 14.91a166.67 166.67 0 00-11.29 27.19c-1.11 3.51-2.16 7.26-1.9 11s2 6.83 4.48 8.28a7.85 7.85 0 004 1h0a11.12 11.12 0 005.33-1.46c2.72-1.58 5.07-4.2 7.18-8 3.78-6.85 5.81-15.4 6.19-26.18a109.73 109.73 0 00-2.45-27.09C2172.15 2533.86 2172 2534 2171.8 2534.12zm25-8.28c-5.88.66-12.31 1.71-18 4.15 16.45 4.27 33.21 7.87 49.87 10.73a71.92 71.92 0 0011.73 1.25 23.49 23.49 0 009.6-1.82c1.19-.52 3.24-1.65 3.62-3.33.44-2-1.55-4.18-3.57-5.59-8.36-5.91-19.43-6.73-29.15-6.74h-.78A214.83 214.83 0 002196.82 2525.84zM2190.72 2649.82a2.35 2.35 0 001.12-.3l1.4-.8a209.77 209.77 0 01101.85-27.26l88-.61a2.28 2.28 0 000-4.55h0l-88 .61A214.4 214.4 0 002191 2644.77l-1.4.79a2.28 2.28 0 001.12 4.26z" class="color3d5891 svgShape"></path><path fill="#3d5891" d="M2263.81 2605.89a2.28 2.28 0 001.83-.94l17-23.32a2.29 2.29 0 00-.5-3.17 2.26 2.26 0 00-3.18.5l-15.83 21.78-121.07-59a2.27 2.27 0 10-2 4.08l122.79 59.8A2.19 2.19 0 002263.81 2605.89zM2134.2 976.09l.05 13.93.38 109.83 0 16.48a13.39 13.39 0 006.1 11.26l.06 0c24.11 15.58 50.68 15.81 65.73 14.23a13.47 13.47 0 0012.06-13.57l-.22-20.42-.22-19.93-1-85.57-.35-31.32z" class="color3d5891 svgShape"></path><polygon fill="#2f4171" points="2134.2 976.09 2134.25 990.02 2217.24 1002.37 2216.89 971.05 2134.2 976.09" class="color2f4171 svgShape"></polygon><path fill="#2f4171" d="M2535.11,662.37s63.93,65.76,71.8,190.8c8.83,140.28-46.68,210.83-46.68,210.83s-71.29-70.56-85.2-181.8S2535.11,662.37,2535.11,662.37Z" class="color2f4171 svgShape"></path><path fill="#99b1da" d="M2404,839.8c-16,27.47-14.39,53,6.66,76.38l141.71-12.37q25-40.65-6.67-76.38Z" class="color99b1da svgShape"></path><path fill="#5681bf" d="M2552.36,903.81c25.31-9.49,22.26-65.74-6.67-76.38,0,0-20.73,5.83-17.57,40.23C2531.32,902.57,2552.36,903.81,2552.36,903.81Z" class="color5681bf svgShape"></path><path fill="#3d5891" d="M2126.43,884.26c0,.76,0,1.49,0,2.23.61,45.52,39.37,81.08,84.84,78.82l1.51-.07c10.85-.51,22.91-.77,36-.58,10.66.15,22,.61,33.86,1.45,53,3.77,117.32,15.45,183.15,44.12l0,0a507.19,507.19,0,0,1,50.27,25.27h0q6.24,3.59,12.47,7.39,15.91,9.75,31.65,21.09c-91.68-136.56-95.25-270.29-25.12-401.64q-16.41,15.28-33.34,28.46c-2.61,2-5.26,4.08-7.93,6.06-89.26,67-185.51,93-254.79,102.76-11.17,1.59-21.65,2.74-31.27,3.58l-6.59.54A80.69,80.69,0,0,0,2126.43,884.26Z" class="color3d5891 svgShape"></path><path fill="#2f4171" d="M2462,804.93c-7,43.89-6.12,85.52,2.51,123.7a261.14,261.14,0,0,0,51.55,106.9h0q6.24,3.59,12.47,7.39c-69.43-78.36-72.21-171.61-61.85-237.1,8.1-51.19,25.21-93.6,35-115-2.61,2-5.26,4.08-7.93,6.06C2483.73,720.21,2469.31,759.09,2462,804.93Z" class="color2f4171 svgShape"></path><path fill="#2f4171" d="M2351.36,955.05c66.39,14.52,113.1,54.25,114.44,55.19-65.83-28.67-130.09-40.36-183.14-44.13-2.22-.16-4.43-.3-6.6-.43l-3.2-.18-3.33-.17-4-.19-.4,0-3.63-.14q-6.48-.22-12.68-.32c-13.08-.19-25.13.07-36,.58l-18.65-38.13s-10.74-80.81,13.64-123.88c9.62-.84,20.09-2,31.26-3.58.91,10.77,2.4,25,4.82,41,8.37,55.48,49.36,100.81,104,113.61Z" opacity=".4" class="color2f4171 svgShape"></path><path fill="#5681bf" d="M2097.49,833.43l7.21,115.37a40.19,40.19,0,0,0,42.61,37.59l81.71-5.11a18.05,18.05,0,0,0,16.31-22.6q-18.76-72.2-9.14-152.77a18.06,18.06,0,0,0-19-20.22l-82.1,5.14a40.17,40.17,0,0,0-35.54,27.22l0,.09A40,40,0,0,0,2097.49,833.43Z" class="color5681bf svgShape"></path><path fill="#3d5891" d="M2097.49,833.43l7.21,115.37a40.19,40.19,0,0,0,42.61,37.59l81.71-5.11a18.05,18.05,0,0,0,16.31-22.6s-64.42,20.6-108.95-6.76c-34-20.9-36.85-133.87-36.85-133.87l0,.09A40,40,0,0,0,2097.49,833.43Z" opacity=".4" class="color3d5891 svgShape"></path><path fill="#99b1da" d="M2141.51 839.47a2.62 2.62 0 00.84.1l46.08-1.42a2.84 2.84 0 10-.18-5.67l-46.07 1.42a2.84 2.84 0 00-.67 5.57zM2142.42 862.11a2.93 2.93 0 00.84.1l46.07-1.43a2.84 2.84 0 10-.17-5.67l-46.08 1.42a2.84 2.84 0 00-.66 5.58zM2143.22 885.76a2.93 2.93 0 00.84.1l46.08-1.42a2.84 2.84 0 10-.18-5.68l-46.07 1.43a2.84 2.84 0 00-.67 5.57z" class="color99b1da svgShape"></path><polygon fill="#5681bf" points="2872.99 866.07 2763.68 865.12 2776.22 827.71 2642.45 861.18 2745.55 855.81 2722.87 889.86 2872.99 866.07" class="color5681bf svgShape"></polygon><polygon fill="#5681bf" points="2772.71 716.54 2715.67 757.53 2707.98 733.37 2651.32 801.47 2702.74 759.58 2703.9 785.83 2772.71 716.54" class="color5681bf svgShape"></polygon><polygon fill="#5681bf" points="2768.78 1011.34 2709.52 973.65 2703.21 998.2 2642.79 933.41 2696.49 972.33 2696.16 946.05 2768.78 1011.34" class="color5681bf svgShape"></polygon><path fill="#f5b0a6" d="M2215,1006.24s14.69,1.23,18,9.39-5.07,46-2.07,55.39.77,33.86-8.62,35.9-65.23,16.87-67.68,11.56-4.19-14.34,4-21.25c0,0-2.75-4.87.1-15.48a31.44,31.44,0,0,1,9.8-15.92s-17.35,1-12.13-16.19c3.84-12.61,34.32-32,40.57-35.64S2215,1006.24,2215,1006.24Z" class="colorf5b0a6 svgShape"></path><path fill="#f5b0a6" d="M2103.08,1045.94c4-2.7-6.63-3.86-3.57-7.59,9.44-11.48,22.35-26.39,33.47-38.46,9-9.74,19.91-16.52,33.15-16.84s26-.08,38.67,3.69c3.81,1.13,7.87,2.43,10.34,5.54a18.06,18.06,0,0,1,3,7.27,114.92,114.92,0,0,1,2.82,19c.33,5.09,0,10.93-3.94,14.18-4.25,3.51-11,2.11-15.09-1.6s-11.85-13.65-13.79-18.82c-1.06,15.14-21.1,41-31,50.66-8.17,8-19.53,29.49-30.78,31.64-11.09,2.13-22.6-14.75-33.89-14.52C2083.44,1080.27,2092.3,1053.24,2103.08,1045.94Z" class="colorf5b0a6 svgShape"></path><g data-name="15" fill="#000000" class="color000 svgShape"><path fill="#5681bf" d="M2786.57,2301c30.2-28.06,73.81-37.05,115-36.28s81.81,10,122.91,13.25c94.75,7.45,191.81-18.35,270.34-71.89s138-134.45,165.71-225.38c2.48,26.86,25.7,10.73,22.24,37.47-11.8,91.37-58.75,177.74-129,237.35s-163.1,91.84-255.16,88.62c-81-2.83-157.11-17.59-237.52,3.51-31.25,8.21-62.12,20.47-86.8,41.31a98.22,98.22,0,0,0-21.13,25.31C2741.59,2377.21,2748.73,2336.17,2786.57,2301Z" class="color5681bf svgShape"></path><path fill="#99b1da" d="M2832 2638.9c29.78 11.29 88.74 21.2 118.65-.84-2.59-37-6.82-93.81-9.85-122.5-77.39 24.06-165.79-31.6-187.55-101.26-14.8 24.77-19.35 55.73-15.67 87C2744.58 2560.13 2780.74 2619.62 2832 2638.9zM2860.65 2175.31c77.35 165.47 274.19 236.91 439.67 159.56s236.9-274.18 159.55-439.66-274.19-236.9-439.66-159.55S2783.3 2009.85 2860.65 2175.31z" class="color99b1da svgShape"></path><path fill="#b5cae8" d="M2877.86,2167.27c72.9,156,258.44,223.31,414.41,150.4s223.31-258.44,150.4-414.41S3184.22,1680,3028.25,1752.85,2805,2011.31,2877.86,2167.27Z" class="colorb5cae8 svgShape"></path><path fill="#99b1da" d="M2901.76,2156.1c66.73,142.78,236.56,204.41,379.34,137.67s204.4-236.57,137.67-379.34S3182.2,1710,3039.43,1776.76,2835,2013.33,2901.76,2156.1Z" class="color99b1da svgShape"></path><path fill="#b5cae8" d="M2930.91,2142.48c59.21,126.66,209.89,181.36,336.56,122.14s181.36-209.9,122.14-336.56-209.89-181.36-336.56-122.15S2871.69,2015.81,2930.91,2142.48Z" class="colorb5cae8 svgShape"></path><path fill="#99b1da" d="M2964.76,2126.65c50.48,108,178.92,154.57,286.88,104.1s154.57-178.9,104.11-286.86-178.9-154.59-286.87-104.11S2914.3,2018.68,2964.76,2126.65Z" class="color99b1da svgShape"></path><path fill="#243354" d="M2760.86,2251.22c106,226.78,375.79,324.69,602.56,218.68s324.7-375.78,218.69-602.56-375.78-324.69-602.56-218.68S2654.86,2024.44,2760.86,2251.22Zm129.54-335.5c81.72,58.46,113.42,85,121.21,101.21,5.7,12,4.87,21.75,4.24,29-.76,8.77-5.78,21.69-13.91,29.72-14.13,14.73-65,41.09-136.8,76.08l-8.53,4.16c-1.14.68-2.31,1.29-3.48,1.84-11.36,5.31-24.63,4.77-37.35-1.56-25-12.35-45.82-45-54.68-86a189.27,189.27,0,0,1,8.56-96c13.59-33.49,35.84-60.1,59.52-71.16,18.4-8.6,36.17-7.15,49,3.94C2881.43,1909.3,2885.58,1912.27,2890.4,1915.72Zm266.36-186.62c-.41,4-.91,9.09-1.49,15-9.78,100-16.87,140.67-27.05,155.53-7.5,10.95-16.43,15.13-22.95,18.17-8,3.73-21.69,5.85-32.72,2.82-19.81-4.86-68-35.65-134.13-80.33l-8-5.4c-11.26-6.28-18.46-17.41-20.31-31.51-3.68-28,14.42-64.74,46.81-94.08a189.21,189.21,0,0,1,87.4-40.59c42.4-5.87,82.17,3.76,101.32,24.58C3155.25,1703.76,3159.17,1716.42,3156.76,1729.1Zm319.73,121.18c-3.31,13.81-11.4,24.35-22.76,29.66a34.84,34.84,0,0,1-3.65,1.48c-3.65,1.64-8.29,3.74-13.65,6.18-91.53,41.56-130.35,55.79-148.34,54.39-13.2-1-21.27-6.66-27.18-10.79-7.23-5-15.92-15.85-18.81-26.94-5.7-19.6-3.12-76.77,2.5-156.46l.67-9.5c-.28-17,10-31.52,28.4-40.13,23.67-11.06,58.34-11.06,93.61.28a189.5,189.5,0,0,1,78.85,55.4C3471.37,1786.28,3483,1823.22,3476.49,1850.28Zm-23.92,352.56c-81.71-58.47-113.43-85-121.21-101.21-5.71-12-4.86-21.75-4.24-29,.77-8.76,5.78-21.68,13.91-29.71,14.12-14.75,65-41.1,136.8-76.09l8.54-4.15a38.62,38.62,0,0,1,3.47-1.85c11.35-5.3,24.63-4.76,37.36,1.56,24.93,12.36,45.82,45,54.66,86a189.33,189.33,0,0,1-8.55,96c-13.59,33.48-35.84,60.07-59.51,71.15-18.4,8.6-36.18,7.13-49-3.94C3461.54,2209.26,3457.4,2206.28,3452.57,2202.84Zm-266.36,186.62c.42-4,.91-9.09,1.5-15,9.76-100,16.85-140.68,27-155.53,7.5-10.95,16.44-15.13,23-18.18,8-3.73,21.68-5.85,32.72-2.81,19.81,4.85,68,35.64,134.14,80.32l8,5.41c11.26,6.27,18.45,17.41,20.3,31.5,3.7,28-14.41,64.74-46.79,94.09a189,189,0,0,1-87.41,40.58c-42.39,5.88-82.16-3.75-101.31-24.57C3187.72,2414.8,3183.81,2402.14,3186.21,2389.46Zm-289.38-24.76c-25.23-32.42-36.86-69.36-30.35-96.43,3.32-13.81,11.4-24.35,22.77-29.66,1.18-.55,2.4-1.05,3.65-1.49,3.64-1.62,8.28-3.72,13.65-6.16,91.52-41.56,130.34-55.79,148.34-54.39,13.19,1,21.25,6.66,27.18,10.79,7.22,5,15.9,15.85,18.81,26.94,5.69,19.6,3.11,76.76-2.51,156.46l-.67,9.49c.28,16.95-10,31.53-28.41,40.12-23.67,11.07-58.34,11.08-93.61-.27A189.38,189.38,0,0,1,2896.83,2364.7Z" class="color243354 svgShape"></path><path fill="#243354" d="M3093.53,2066.46a73.66,73.66,0,1,0,35.54-97.91A73.67,73.67,0,0,0,3093.53,2066.46Z" class="color243354 svgShape"></path><path fill="#2f4171" d="M2749.63,2227.21c106,226.78,375.8,324.68,602.58,218.68s324.68-375.79,218.67-602.57-375.78-324.68-602.56-218.68S2643.64,2000.43,2749.63,2227.21Zm129.55-335.49c81.71,58.45,113.42,84.94,121.21,101.21,5.7,11.94,4.85,21.74,4.24,29-.78,8.77-5.78,21.69-13.92,29.72-14.12,14.74-64.94,41.1-136.8,76.09l-8.52,4.14a39,39,0,0,1-3.49,1.85c-11.35,5.32-24.62,4.76-37.36-1.56-24.93-12.36-45.8-45-54.66-86a189.23,189.23,0,0,1,8.56-96c13.59-33.49,35.84-60.08,59.51-71.16,18.39-8.59,36.18-7.13,49,4C2870.21,1885.29,2874.36,1888.27,2879.18,1891.72Zm266.35-186.63c-.41,4-.91,9.08-1.5,15-9.76,100-16.85,140.67-27,155.54-7.5,10.93-16.43,15.11-22.95,18.17-8,3.72-21.69,5.85-32.73,2.8-19.8-4.85-68-35.64-134.12-80.32l-8-5.41c-11.27-6.27-18.46-17.41-20.31-31.5-3.69-28,14.42-64.74,46.81-94.08a188.85,188.85,0,0,1,87.39-40.59c42.41-5.88,82.17,3.77,101.31,24.58C3144,1679.76,3148,1692.42,3145.53,1705.09Zm-10,277.37a58.3,58.3,0,1,1-28.12,77.49A58.29,58.29,0,0,1,3135.57,1982.46Zm329.7-156.19c-3.32,13.82-11.4,24.35-22.76,29.66a37.87,37.87,0,0,1-3.66,1.49c-3.65,1.63-8.28,3.73-13.64,6.16-91.54,41.57-130.36,55.81-148.35,54.39-13.19-1-21.26-6.65-27.18-10.79-7.22-5-15.91-15.85-18.81-26.93-5.69-19.59-3.12-76.77,2.51-156.46l.67-9.5c-.28-16.94,10-31.53,28.4-40.12,23.67-11.06,58.34-11.08,93.61.27a189.47,189.47,0,0,1,78.85,55.39C3460.14,1762.26,3471.77,1799.21,3465.27,1826.27Zm-23.92,352.55c-81.71-58.46-113.43-84.94-121.22-101.21-5.7-12-4.85-21.75-4.24-29,.77-8.75,5.78-21.69,13.92-29.72,14.12-14.73,64.94-41.09,136.81-76.08l8.53-4.15a36.09,36.09,0,0,1,3.47-1.85c11.35-5.31,24.62-4.75,37.36,1.56,24.93,12.36,45.81,45,54.66,86a189.2,189.2,0,0,1-8.56,96c-13.59,33.49-35.83,60.09-59.51,71.16-18.39,8.59-36.17,7.14-49-4C3450.32,2185.24,3446.17,2182.28,3441.35,2178.82ZM3175,2365.44c.41-4,.91-9.07,1.5-15,9.76-100,16.85-140.68,27-155.53,7.5-11,16.43-15.14,23-18.18,8-3.73,21.68-5.85,32.71-2.81,19.81,4.85,68,35.64,134.13,80.33l8,5.4c11.26,6.27,18.46,17.4,20.31,31.51,3.7,28-14.42,64.73-46.8,94.07a188.95,188.95,0,0,1-87.4,40.59c-42.41,5.88-82.17-3.76-101.32-24.58C3176.5,2390.78,3172.57,2378.12,3175,2365.44Zm-289.38-24.74c-25.24-32.42-36.86-69.38-30.35-96.44,3.32-13.81,11.4-24.35,22.75-29.66,1.19-.55,2.41-1,3.66-1.48,3.65-1.64,8.28-3.74,13.65-6.18,91.54-41.56,130.35-55.79,148.33-54.39,13.2,1,21.27,6.66,27.19,10.81,7.22,5,15.91,15.84,18.81,26.92,5.7,19.61,3.12,76.77-2.51,156.46l-.67,9.5c.29,16.94-10,31.52-28.41,40.12-23.66,11.07-58.33,11.08-93.6-.27A189.29,189.29,0,0,1,2885.61,2340.7Z" class="color2f4171 svgShape"></path><path fill="#ffffff" d="M3067.85,2078.47a102,102,0,1,0,49.21-135.63A102,102,0,0,0,3067.85,2078.47Zm39.6-18.52a58.29,58.29,0,1,1,77.5,28.13A58.3,58.3,0,0,1,3107.45,2060Z" class="colorfff svgShape"></path><path fill="#3d5891" d="M2787,1778.26l750,509.24c85.2-127.5,103.62-295.12,34-444.18-106-226.77-375.78-324.68-602.56-218.68A451,451,0,0,0,2787,1778.26Zm678.32,48c-3.32,13.82-11.4,24.35-22.76,29.66a37.87,37.87,0,0,1-3.66,1.49c-3.65,1.63-8.28,3.73-13.64,6.16-91.54,41.57-130.36,55.81-148.35,54.39-13.19-1-21.26-6.65-27.18-10.79-7.22-5-15.91-15.85-18.81-26.93-5.69-19.59-3.12-76.77,2.51-156.46l.67-9.5c-.28-16.94,10-31.53,28.4-40.12,23.67-11.06,58.34-11.08,93.61.27a189.47,189.47,0,0,1,78.85,55.39C3460.14,1762.26,3471.77,1799.21,3465.27,1826.27Zm-145.14,251.34c-5.7-12-4.85-21.75-4.24-29,.77-8.75,5.78-21.69,13.92-29.72,14.12-14.73,64.94-41.09,136.81-76.08l8.53-4.15a36.09,36.09,0,0,1,3.47-1.85c11.35-5.31,24.62-4.75,37.36,1.56,24.93,12.36,45.81,45,54.66,86a189.2,189.2,0,0,1-8.56,96c-13.59,33.49-35.83,60.09-59.51,71.16-18.39,8.59-36.17,7.14-49-4-3.25-2.36-7.4-5.32-12.22-8.78C3359.64,2120.36,3327.92,2093.88,3320.13,2077.61Zm-401-266.74c-11.27-6.27-18.46-17.41-20.31-31.5-3.69-28,14.42-64.74,46.81-94.08a188.85,188.85,0,0,1,87.39-40.59c42.41-5.88,82.17,3.77,101.31,24.58,9.64,10.48,13.57,23.14,11.15,35.81-.41,4-.91,9.08-1.5,15-9.76,100-16.85,140.67-27,155.54-7.5,10.93-16.43,15.11-22.95,18.17-8,3.72-21.69,5.85-32.73,2.8-19.8-4.85-68-35.64-134.12-80.32Z" opacity=".5" class="color3d5891 svgShape"></path><path fill="#99b1da" d="M2756.07,2343.08a478.79,478.79,0,0,0-19.36,148.59c19.68,3.14,36.8,5.43,37.13,3.88a.25.25,0,0,0,0-.17c-1.26-2.72-21.73-85-21.73-85Z" class="color99b1da svgShape"></path><path fill="#5681bf" d="M2921.05 2536.73s-97 7.62-126.72-34.43l-24 47.25s27 84.67 151.88 82.12A546.48 546.48 0 012921.05 2536.73zM2745.1 2446c15.08 19 20.51 32.78 36.25 46.21L2760 2528.26S2736.57 2480.92 2745.1 2446z" class="color5681bf svgShape"></path></g><path fill="#f18a8b" d="M1617.82,738.07l-140.44-21.36S1509.65,853.54,1614,860.44Z" class="colorf18a8b svgShape"></path><path fill="#f5b0a6" d="M1522.62,452c76.7-5.34,121.93,22.17,138.05,102.07.81,4,1.36,8.12,2,12.2,2.85,19.24,4.4,42.61-1.55,52.78,0,0,31.53,101.8-54.48,178.82-9.8,8.77-52.34-.43-64.16-4-99.62-29.86-79-140.6-79-140.6-1.64-7-39.06-13.09-40.56-20.28C1408.52,564,1428.92,458.53,1522.62,452Z" class="colorf5b0a6 svgShape"></path><path fill="#f18a8b" d="M1630.3 676.68c-2.33 24.73 5.55 47.71 19.74 63.59 29.27-62.17 11-121.22 11-121.22.23-.4.43-.85.65-1.3C1644.74 630.71 1632.63 651.86 1630.3 676.68zM1471.42 623.32c-13.83-1.3-26.94 5.42-36.49 17 11.59 4.31 27.49 8.45 28.55 12.94 0 0-8.33 44.92 11.32 85.25 19-5.87 34.38-26.59 36.82-52.55C1514.65 653.76 1496.66 625.69 1471.42 623.32z" opacity=".6" class="colorf18a8b svgShape"></path><path d="M1555 574.35c-5.81-7-38.57 4.31-39.93 5-10.3 5.06-7.31 12-6 14.33.75 1.35 4.56-.36 13.84-2 19.76-3.44 27.88-.09 31.94-5.83C1557.25 582.47 1557.36 577.14 1555 574.35zM1619.33 578c4.21-6.27 27.84 3.23 28.89 3.86 8 4.73 7.5 12.26 6.6 14.34-.53 1.21-3.48-.4-10.57-2-15.11-3.43-21.18-.52-24.43-5.78C1617.9 585.27 1617.66 580.44 1619.33 578zM1531.26 627.22c.83 5.12 4.16 8.83 7.42 8.3s5.24-5.12 4.4-10.24-4.16-8.83-7.43-8.3S1530.42 622.1 1531.26 627.22zM1625 624.06c.83 5.11 3.92 8.85 6.89 8.36s4.71-5 3.88-10.12-3.92-8.85-6.9-8.36S1624.2 619 1625 624.06z" fill="#000000" class="color000 svgShape"></path><path d="M1660.67,554.07s60.62-78.91,19.81-95.52-109.26-49-180.66-15.58-94.56,80.39-106.09,94.7C1379,556,1410.92,636.38,1432.42,685c6.86,15.51,22.14,14.13,29.89-1l-2.32-7.59,8.82-30.92,15-117.36s127.94,18.6,163.41-8.77C1647.22,519.44,1658,534.59,1660.67,554.07Z" fill="#000000" class="color000 svgShape"></path><path d="M1435.34 502.59c-1.54-.14-35.58 11.39-36.32-9.62s28.7-12.42 28.7-12.42-1.72-31.19 8.66-30.21 11.95 33.7 12.23 34.89S1435.34 502.59 1435.34 502.59zM1457.19 476.44c88.13-89.55 219.67-36 221-35.41l1.71-4.08c-1.35-.56-135.63-55.27-225.85 36.39z" fill="#000000" class="color000 svgShape"></path><path d="M1388.58,530.81c88.13-89.54,219.66-36,221-35.4l1.7-4.08c-1.34-.57-135.63-55.27-225.84,36.38Z" fill="#000000" class="color000 svgShape"></path><path fill="#f5b0a6" d="M1404.14,660.28c5.06,23.12,26.08,38.16,47,33.6s33.72-27,28.67-50.13-26.08-38.17-47-33.6S1399.09,637.16,1404.14,660.28Z" class="colorf5b0a6 svgShape"></path><path fill="#dd8387" d="M1437.88,664.75c2.7-5.74,13.81-7.63,17.87-7.87l2.83-.17-.86-2.71c-3.16-10-8.15-16.55-14.81-19.41a21.36,21.36,0,0,0-16.66.28l1.93,4c.06,0,6.48-3,13-.18,4.86,2.11,8.69,6.85,11.41,14.11-5.08.72-15.43,3.05-18.74,10.09Z" class="colordd8387 svgShape"></path><path d="M1492.2 501.66s19.88 130.79-22 134.31l9.26-112.67zM1601.41 670.55c.55-.26 13.68-6.55 19.7-15.17a5.44 5.44 0 00.72-5.12c-2.86-8-25.66-14.94-30.2-16.23l-1.21 4.25c10.38 3 25.7 9.11 27.24 13.46a1.07 1.07 0 01-.17 1.11c-5.35 7.64-17.86 13.65-18 13.71zM1553.17 710.72a25.37 25.37 0 002.1 4.12c5.42 8.74 16 15.21 27 16.06a33.08 33.08 0 0014-2c7-2.67 12.79-7.54 15.59-13.75 1.62-3.57 1.94-8.43-1.66-11a9.79 9.79 0 00-2.79-1.22 35.82 35.82 0 00-5.69-.5 80.13 80.13 0 01-30-6.83 29.13 29.13 0 00-9.63-2.9c-3-.24-5.56.39-7.4 2.42C1551 699.3 1551.16 705.44 1553.17 710.72z" fill="#000000" class="color000 svgShape"></path><path fill="#ffffff" d="M1562.14,692.75c-.47,2.56-.48,5.22.79,7.37,1.36,2.4,3.88,3.79,6.39,4.87a67,67,0,0,0,28.84,6c2.36,0,4.91-.29,6.72-1.78s2.38-3.88,2.58-6.26a35.82,35.82,0,0,0-5.69-.5,80.13,80.13,0,0,1-30-6.83A29.13,29.13,0,0,0,1562.14,692.75Z" class="colorfff svgShape"></path><path fill="#dd8387" d="M1555.27,714.84c5.42,8.74,16,15.21,27,16.06a33.08,33.08,0,0,0,14-2c-2.64-5.64-8.4-9.84-14.37-12.28C1573.54,713.16,1563.88,712.21,1555.27,714.84Z" class="colordd8387 svgShape"></path><g data-name="4" fill="#000000" class="color000 svgShape"><polygon fill="#243354" points="1129.9 614.51 716.95 765.48 721.95 779.01 1134.89 628.05 1129.9 614.51" class="color243354 svgShape"></polygon><path fill="#3d5891" d="M722,779l86.86,235.49c4.39,11.91,19.59,17.3,34,12.06l360.91-131.95c14.37-5.26,22.46-19.17,18.07-31.07l-86.86-235.49Z" class="color3d5891 svgShape"></path><path fill="#2f4171" d="M1123.62,558.52,682,720l19.89,53.91L1143.5,612.42c4.63-1.69,6.72-7.6,4.67-13.17l-12.43-33.69C1133.68,560,1128.25,556.82,1123.62,558.52Z" class="color2f4171 svgShape"></path><polygon fill="#99b1da" points="763.69 698.22 730.61 763.37 813.62 733.03 846.72 667.86 763.69 698.22" class="color99b1da svgShape"></polygon><polygon fill="#99b1da" points="887.75 652.87 854.65 718.02 937.67 687.68 970.75 622.53 887.75 652.87" class="color99b1da svgShape"></polygon><polygon fill="#99b1da" points="1015.06 606.32 981.99 671.47 1064.98 641.13 1098.06 575.98 1015.06 606.32" class="color99b1da svgShape"></polygon><path fill="#2f4171" d="M1102.16,500,698.91,716.74l-26.2-49.87L1076,450.11c4.15-2.22,9.73.15,12.43,5.31l16.38,31.17C1107.48,491.76,1106.31,497.75,1102.16,500Z" class="color2f4171 svgShape"></path><polygon fill="#99b1da" points="774.69 668.27 706 648.6 781.14 608.29 849.85 627.96 774.69 668.27" class="color99b1da svgShape"></polygon><polygon fill="#99b1da" points="886.99 608.03 818.28 588.37 893.43 548.05 962.13 567.73 886.99 608.03" class="color99b1da svgShape"></polygon><polygon fill="#99b1da" points="1002.25 546.21 933.55 526.53 1008.68 486.23 1077.37 505.9 1002.25 546.21" class="color99b1da svgShape"></polygon><path fill="#5681bf" d="M836.7,682.31l-107.25-61.8-62.12,31.75L712.25,774,828,731.7C852,722.93,857.09,694.07,836.7,682.31Z" class="color5681bf svgShape"></path><path fill="#d1dbed" d="M730.58 721.71a12.45 12.45 0 1016 7.42A12.4 12.4 0 00730.58 721.71zM703.76 649a12.46 12.46 0 1016 7.43A12.4 12.4 0 00703.76 649zM809.42 692.88a12.46 12.46 0 1016 7.43A12.4 12.4 0 00809.42 692.88z" class="colord1dbed svgShape"></path><path fill="#5681bf" d="M727.08,777.14,722,779l86.86,235.49c4.39,11.91,19.59,17.3,34,12.06l360.92-131.95a30.22,30.22,0,0,0,16.5-14Z" opacity=".5" class="color5681bf svgShape"></path><path fill="#ffffff" d="M937.17,727.26c-57.77,21.12-87.3,85.16-65.95,143S956.7,958,1014.48,936.84s87.3-85.16,66-143S995,706.13,937.17,727.26Zm70.49,191.09A92,92,0,0,1,944,745.75c47.58-17.4,100.41,7.15,118,54.8A91.54,91.54,0,0,1,1007.66,918.35Z" class="colorfff svgShape"></path><path fill="#ffffff" d="M1039.24,802.57,924.52,782.45a6.79,6.79,0,0,0-7.55,9l40.34,109.38a6.83,6.83,0,0,0,11.64,2l74.38-89.26A6.83,6.83,0,0,0,1039.24,802.57Z" class="colorfff svgShape"></path></g></g></svg>