<svg xmlns="http://www.w3.org/2000/svg" viewBox="0 0 1364 960" width="550" height="550"><ellipse cx="682" cy="858.767" fill="#e4ecf2" rx="521" ry="24.498" class="colorE4ECF2 svgShape"/><path fill="#ffb64d" d="M822.297,409.456c-24.403,33.071-48.806,66.143-73.208,99.214      c-154.875-22.339-309.749-44.678-354.811-215.839c39.044-52.914,78.089-105.828,117.133-158.743      C541.831,325.092,682.064,367.274,822.297,409.456z" class="colorFFB64D svgShape"/><path fill="#ffffff" d="M497.246 183.554c-1.147-4.768-2.216-9.64-3.205-14.622 4.061-5.504 8.122-11.008 12.184-16.512.947 5.038 1.975 9.967 3.08 14.791C505.285 172.659 501.265 178.106 497.246 183.554zM505.17 211.294c-1.454-4.352-2.834-8.803-4.139-13.356 3.977-5.389 7.953-10.778 11.93-16.168 1.263 4.61 2.602 9.118 4.014 13.526C513.04 200.629 509.105 205.962 505.17 211.294zM514.907 236.58c-1.743-3.961-3.416-8.015-5.019-12.165 3.892-5.275 7.784-10.549 11.676-15.824 1.561 4.207 3.193 8.317 4.893 12.335C522.608 226.144 518.758 231.362 514.907 236.58zM526.344 259.56c-2.012-3.594-3.961-7.276-5.842-11.048 3.807-5.16 7.615-10.32 11.422-15.479 1.84 3.828 3.746 7.566 5.717 11.217C533.876 249.353 530.11 254.457 526.344 259.56zM539.371 280.386c-2.265-3.253-4.469-6.587-6.612-10.005 3.723-5.045 7.445-10.09 11.168-15.135 2.101 3.475 4.264 6.865 6.487 10.174C546.733 270.409 543.052 275.397 539.371 280.386zM553.877 299.208c-2.498-2.936-4.942-5.947-7.327-9.036 3.638-4.93 7.276-9.861 10.914-14.791 2.344 3.145 4.745 6.213 7.202 9.205C561.07 289.46 557.473 294.334 553.877 299.208zM569.75 316.177c-2.714-2.644-5.377-5.357-7.988-8.141 3.553-4.816 7.107-9.632 10.66-14.447 2.568 2.841 5.19 5.611 7.863 8.311C576.774 306.659 573.262 311.418 569.75 316.177zM586.88 331.443c-2.911-2.376-5.776-4.816-8.593-7.321 3.469-4.701 6.938-9.402 10.406-14.103 2.775 2.562 5.598 5.057 8.468 7.49C593.734 322.154 590.307 326.798 586.88 331.443zM605.155 345.156c-3.09-2.134-6.139-4.324-9.143-6.574 3.384-4.586 6.768-9.173 10.153-13.759 2.963 2.307 5.97 4.553 9.018 6.744C611.84 336.096 608.497 340.626 605.155 345.156zM624.465 357.467c-3.251-1.916-6.465-3.882-9.64-5.902 3.3-4.472 6.599-8.943 9.899-13.415 3.133 2.077 6.305 4.099 9.515 6.072C630.981 348.637 627.723 353.052 624.465 357.467zM644.698 368.527c-3.394-1.722-6.755-3.489-10.081-5.304 3.215-4.357 6.43-8.714 9.645-13.071 3.284 1.871 6.603 3.695 9.956 5.474C651.045 359.926 647.872 364.226 644.698 368.527zM665.744 378.485c-3.518-1.554-7.008-3.146-10.467-4.78 3.13-4.242 6.261-8.484 9.391-12.727 3.417 1.69 6.866 3.339 10.342 4.95C671.921 370.114 668.833 374.3 665.744 378.485zM687.492 387.493c-3.624-1.41-7.225-2.853-10.799-4.33 3.046-4.128 6.091-8.255 9.137-12.383 3.533 1.534 7.091 3.033 10.674 4.5C693.499 379.351 690.495 383.422 687.492 387.493zM709.83 395.701c-3.712-1.291-7.406-2.609-11.077-3.955 2.961-4.013 5.922-8.026 8.883-12.039 3.629 1.403 7.281 2.777 10.951 4.125C715.668 387.788 712.749 391.744 709.83 395.701zM732.647 403.259c-3.782-1.196-7.549-2.413-11.299-3.653 2.876-3.898 5.753-7.796 8.629-11.694 3.708 1.296 7.433 2.57 11.174 3.823C738.316 395.575 735.482 399.417 732.647 403.259zM755.832 410.317c-3.834-1.127-7.656-2.268-11.467-3.426 2.792-3.784 5.583-7.567 8.375-11.35 3.769 1.215 7.55 2.412 11.341 3.595C761.333 402.863 758.582 406.59 755.832 410.317zM779.276 417.027c-3.866-1.082-7.727-2.172-11.58-3.273 2.707-3.669 5.414-7.338 8.121-11.006 3.811 1.157 7.63 2.304 11.455 3.443C784.606 409.803 781.941 413.415 779.276 417.027zM802.865 423.538c-3.882-1.062-7.762-2.126-11.638-3.194 2.622-3.554 5.245-7.108 7.867-10.662 3.835 1.125 7.673 2.245 11.513 3.364C808.027 416.543 805.446 420.041 802.865 423.538zM407.743 304.85c-1.457-4.348-2.835-8.801-4.134-13.363 4.061-5.504 8.122-11.008 12.184-16.512 1.257 4.618 2.594 9.128 4.009 13.533C415.782 293.955 411.763 299.403 407.743 304.85zM417.553 330.037c-1.763-3.932-3.453-7.964-5.068-12.097 3.977-5.389 7.953-10.778 11.93-16.168 1.573 4.19 3.221 8.279 4.943 12.267C425.422 319.371 421.487 324.704 417.553 330.037zM429.174 352.768c-2.052-3.541-4.035-7.176-5.947-10.906 3.892-5.275 7.784-10.549 11.676-15.824 1.871 3.787 3.812 7.478 5.822 11.076C436.874 342.332 433.024 347.55 429.174 352.768zM442.496 373.194c-2.322-3.175-4.58-6.437-6.771-9.789 3.807-5.16 7.615-10.32 11.422-15.479 2.15 3.409 4.366 6.727 6.646 9.959C450.027 362.988 446.261 368.091 442.496 373.194zM457.407 391.466c-2.574-2.833-5.089-5.747-7.541-8.746 3.723-5.045 7.445-10.09 11.168-15.135 2.411 3.055 4.883 6.026 7.416 8.916C464.769 381.489 461.088 386.478 457.407 391.466zM473.797 407.735c-2.808-2.516-5.561-5.108-8.256-7.777 3.638-4.93 7.276-9.861 10.914-14.791 2.653 2.726 5.364 5.374 8.131 7.947C480.99 397.987 477.393 402.861 473.797 407.735zM491.555 422.15c-3.023-2.224-5.997-4.517-8.916-6.883 3.553-4.816 7.107-9.632 10.66-14.447 2.878 2.422 5.809 4.771 8.791 7.052C498.578 412.631 495.067 417.39 491.555 422.15zM510.569 434.861c-3.221-1.957-6.396-3.976-9.522-6.062 3.469-4.701 6.938-9.402 10.406-14.103 3.084 2.142 6.217 4.218 9.396 6.231C517.423 425.572 513.996 430.217 510.569 434.861zM530.729 446.02c-3.4-1.714-6.758-3.485-10.072-5.315 3.384-4.586 6.768-9.173 10.153-13.759 3.272 1.887 6.589 3.714 9.947 5.485C537.414 436.961 534.071 441.491 530.729 446.02zM551.923 455.778c-3.561-1.496-7.085-3.043-10.569-4.643 3.3-4.472 6.599-8.943 9.899-13.415 3.442 1.657 6.924 3.26 10.443 4.813C558.439 446.948 555.181 451.363 551.923 455.778zM574.041 464.284c-3.704-1.303-7.374-2.65-11.01-4.045 3.215-4.357 6.43-8.714 9.645-13.071 3.594 1.451 7.223 2.855 10.885 4.215C580.388 455.683 577.214 459.983 574.041 464.284zM596.972 471.688c-3.828-1.134-7.627-2.307-11.396-3.521 3.13-4.242 6.261-8.484 9.391-12.727 3.727 1.271 7.485 2.5 11.271 3.691C603.149 463.317 600.06 467.502 596.972 471.688zM620.603 478.142c-3.934-.99-7.844-2.013-11.728-3.072 3.046-4.128 6.091-8.255 9.137-12.383 3.842 1.115 7.711 2.194 11.603 3.241C626.611 470 623.607 474.071 620.603 478.142zM644.826 483.796c-4.022-.871-8.025-1.769-12.006-2.696 2.961-4.013 5.922-8.026 8.883-12.039 3.939.983 7.9 1.938 11.88 2.866C650.664 475.883 647.745 479.839 644.826 483.796zM669.528 488.799c-4.092-.777-8.168-1.574-12.228-2.395 2.876-3.898 5.753-7.796 8.629-11.694 4.018.877 8.053 1.731 12.103 2.564C675.197 481.116 672.362 484.958 669.528 488.799zM694.598 493.304c-4.143-.707-8.276-1.429-12.395-2.167 2.792-3.783 5.583-7.567 8.375-11.35 4.078.795 8.169 1.573 12.27 2.337C700.098 485.85 697.348 489.577 694.598 493.304zM719.926 497.46c-4.176-.662-8.347-1.333-12.509-2.014 2.707-3.669 5.414-7.338 8.121-11.006 4.12.738 8.249 1.465 12.383 2.184C725.256 490.236 722.591 493.848 719.926 497.46zM745.4 501.417c-4.191-.642-8.381-1.286-12.567-1.935 2.622-3.554 5.245-7.108 7.867-10.662 4.144.706 8.292 1.406 12.442 2.105C750.561 494.422 747.98 497.92 745.4 501.417zM447.457 326.595c-9.84-18.175-17.966-38.674-24.102-61.868 20.998-28.457 41.996-56.914 62.994-85.371 5.061 24.651 12.112 46.607 20.877 66.238C487.303 272.594 467.38 299.594 447.457 326.595zM490.8 383.576c-13.627-13.043-25.875-27.955-36.471-45.107 19.682-26.674 39.364-53.347 59.046-80.021 9.52 18.609 20.694 34.977 33.246 49.477C528.014 333.143 509.407 358.359 490.8 383.576zM546.539 423.757c-16.592-9.025-32.14-19.464-46.372-31.688 18.366-24.89 36.732-49.781 55.098-74.671 13.157 13.681 27.63 25.576 43.147 36.058C581.122 376.89 563.831 400.323 546.539 423.757zM611.657 451.228c-18.734-6.122-36.761-13.202-53.807-21.612 17.05-23.107 34.1-46.214 51.151-69.321 15.971 9.867 32.923 18.404 50.582 25.982C643.607 407.928 627.632 429.578 611.657 451.228zM683.132 470.083c-20.055-4.332-39.737-9.168-58.775-14.878 15.734-21.324 31.469-42.647 47.203-63.971 17.963 7.168 36.57 13.46 55.55 19.249C712.451 430.349 697.792 450.216 683.132 470.083zM757.948 484.412c-20.553-3.657-41.07-7.363-61.277-11.488 14.418-19.54 28.837-39.08 43.255-58.621 19.132 5.582 38.574 10.744 58.052 15.858C784.634 448.245 771.291 466.329 757.948 484.412z" class="colorFFF svgShape"/><g fill="#000000" class="color000 svgShape"><path fill="#ffb64d" d="M1133.183,684.823c-9.761,13.229-19.522,26.457-29.283,39.686      c-45.062-171.161-199.937-193.5-354.811-215.839c24.403-33.071,48.806-66.143,73.208-99.214      C962.53,451.638,1102.763,493.82,1133.183,684.823z" class="colorFFB64D svgShape"/><path fill="#ffffff" d="M828.968 430.684c-3.877-1.068-7.757-2.131-11.638-3.193 2.529-3.427 5.058-6.855 7.587-10.282 3.84 1.118 7.678 2.238 11.513 3.362C833.942 423.942 831.455 427.313 828.968 430.684zM852.502 437.269c-3.853-1.1-7.714-2.189-11.582-3.27 2.444-3.313 4.889-6.625 7.333-9.938 3.825 1.138 7.645 2.283 11.457 3.44C857.308 430.757 854.905 434.013 852.502 437.269zM875.839 444.124c-3.812-1.157-7.636-2.296-11.47-3.421 2.36-3.198 4.719-6.396 7.079-9.594 3.793 1.182 7.575 2.378 11.345 3.591C880.475 437.841 878.157 440.982 875.839 444.124zM898.866 451.397c-3.752-1.238-7.52-2.452-11.304-3.647 2.275-3.083 4.55-6.166 6.825-9.25 3.742 1.251 7.469 2.522 11.179 3.817C903.333 445.344 901.099 448.371 898.866 451.397zM921.472 459.241c-3.673-1.344-7.368-2.658-11.083-3.946 2.19-2.969 4.381-5.937 6.571-8.906 3.672 1.345 7.326 2.716 10.958 4.116C925.77 453.417 923.621 456.329 921.472 459.241zM943.548 467.804c-3.577-1.474-7.18-2.913-10.807-4.32 2.106-2.854 4.212-5.708 6.317-8.561 3.585 1.463 7.146 2.959 10.682 4.49C947.676 462.21 945.612 465.007 943.548 467.804zM964.981 477.238c-3.462-1.63-6.955-3.218-10.476-4.768 2.021-2.739 4.042-5.478 6.063-8.217 3.479 1.607 6.93 3.251 10.351 4.938C968.939 471.873 966.96 474.556 964.981 477.238zM985.66 487.694c-3.329-1.81-6.694-3.572-10.091-5.29 1.937-2.624 3.873-5.249 5.81-7.873 3.356 1.775 6.678 3.593 9.966 5.46C989.449 482.558 987.555 485.126 985.66 487.694zM1005.474 499.32c-3.178-2.015-6.396-3.976-9.651-5.886 1.852-2.51 3.704-5.019 5.556-7.529 3.213 1.967 6.39 3.985 9.526 6.056C1009.095 494.414 1007.285 496.867 1005.474 499.32zM1024.314 512.27c-3.009-2.244-6.062-4.429-9.157-6.557 1.767-2.395 3.535-4.79 5.302-7.185 3.053 2.185 6.065 4.426 9.032 6.727C1027.765 507.593 1026.04 509.931 1024.314 512.27zM1042.067 526.691c-2.821-2.499-5.691-4.931-8.607-7.301 1.683-2.28 3.365-4.561 5.048-6.841 2.874 2.427 5.702 4.916 8.482 7.471C1045.348 522.243 1043.707 524.467 1042.067 526.691zM1058.622 542.735c-2.615-2.777-5.284-5.483-8.003-8.12 1.598-2.166 3.196-4.331 4.794-6.497 2.677 2.694 5.304 5.456 7.878 8.29C1061.734 538.517 1060.178 540.626 1058.622 542.735zM1073.869 560.553c-2.391-3.081-4.84-6.084-7.344-9.013 1.513-2.051 3.027-4.102 4.54-6.153 2.463 2.985 4.87 6.045 7.219 9.183C1076.812 556.565 1075.34 558.559 1073.869 560.553zM1087.696 580.295c-2.149-3.41-4.36-6.735-6.63-9.98 1.429-1.936 2.857-3.872 4.286-5.809 2.229 3.301 4.398 6.683 6.505 10.15C1090.47 576.535 1089.083 578.415 1087.696 580.295zM1099.992 602.111c-1.888-3.763-3.843-7.435-5.862-11.021 1.344-1.822 2.688-3.643 4.032-5.465 1.978 3.642 3.891 7.371 5.737 11.191C1102.597 598.581 1101.295 600.346 1099.992 602.111zM1110.647 626.151c-1.609-4.141-3.29-8.185-5.039-12.136 1.259-1.707 2.519-3.414 3.778-5.121 1.708 4.008 3.346 8.109 4.914 12.306C1113.082 622.851 1111.865 624.501 1110.647 626.151zM1119.549 652.568c-1.313-4.544-2.701-8.984-4.162-13.326 1.175-1.592 2.35-3.184 3.524-4.776 1.42 4.398 2.766 8.896 4.037 13.496C1121.816 649.496 1120.682 651.032 1119.549 652.568zM1126.588 681.509c-.997-4.971-2.074-9.833-3.229-14.59 1.09-1.478 2.18-2.955 3.271-4.432 1.113 4.813 2.149 9.732 3.104 14.759C1128.685 678.668 1127.636 680.089 1126.588 681.509zM773.584 505.741c-4.186-.648-8.376-1.292-12.567-1.934 2.529-3.427 5.058-6.855 7.587-10.282 4.15.699 8.298 1.399 12.442 2.104C778.559 498.999 776.072 502.37 773.584 505.741zM799.004 509.772c-4.163-.68-8.334-1.35-12.511-2.011 2.444-3.313 4.889-6.625 7.333-9.938 4.135.718 8.264 1.444 12.385 2.181C803.809 503.26 801.406 506.516 799.004 509.772zM824.225 514.073c-4.121-.737-8.255-1.457-12.399-2.163 2.36-3.198 4.719-6.396 7.079-9.594 4.102.762 8.194 1.539 12.274 2.332C828.861 507.79 826.543 510.931 824.225 514.073zM849.136 518.792c-4.061-.818-8.14-1.613-12.233-2.388 2.275-3.083 4.55-6.167 6.825-9.25 4.051.832 8.088 1.683 12.108 2.558C853.603 512.739 851.37 515.766 849.136 518.792zM873.627 524.082c-3.983-.924-7.988-1.819-12.011-2.688 2.19-2.969 4.381-5.937 6.571-8.906 3.982.925 7.945 1.877 11.886 2.857C877.925 518.258 875.776 521.17 873.627 524.082zM897.587 530.091c-3.887-1.055-7.799-2.074-11.736-3.061 2.106-2.854 4.212-5.708 6.317-8.561 3.895 1.044 7.766 2.12 11.61 3.231C901.715 524.497 899.651 527.294 897.587 530.091zM920.905 536.972c-3.772-1.21-7.574-2.379-11.405-3.509 2.021-2.739 4.042-5.478 6.063-8.217 3.789 1.187 7.55 2.412 11.28 3.679C924.863 531.606 922.884 534.289 920.905 536.972zM943.468 544.873c-3.639-1.39-7.313-2.733-11.02-4.031 1.937-2.624 3.873-5.249 5.81-7.873 3.665 1.355 7.297 2.754 10.895 4.201C947.258 539.737 945.363 542.305 943.468 544.873zM965.167 553.946c-3.488-1.595-7.015-3.137-10.58-4.628 1.852-2.51 3.704-5.019 5.556-7.529 3.523 1.548 7.009 3.146 10.455 4.797C968.788 549.039 966.978 551.492 965.167 553.946zM985.892 564.341c-3.318-1.825-6.681-3.59-10.086-5.298 1.767-2.395 3.535-4.79 5.302-7.185 3.363 1.765 6.684 3.587 9.96 5.468C989.343 559.664 987.617 562.002 985.892 564.341zM1005.529 576.208c-3.131-2.079-6.31-4.092-9.536-6.043 1.683-2.28 3.365-4.561 5.048-6.841 3.184 2.007 6.321 4.077 9.411 6.212C1008.81 571.761 1007.17 573.984 1005.529 576.208zM1023.968 589.699c-2.925-2.358-5.903-4.644-8.932-6.861 1.598-2.166 3.196-4.331 4.794-6.497 2.987 2.274 5.923 4.616 8.807 7.031C1027.081 585.48 1025.525 587.589 1023.968 589.699zM1041.1 604.963c-2.701-2.661-5.459-5.245-8.273-7.754 1.513-2.051 3.027-4.102 4.54-6.153 2.772 2.566 5.489 5.206 8.148 7.924C1044.043 600.974 1042.572 602.968 1041.1 604.963zM1056.811 622.15c-2.458-2.99-4.979-5.896-7.559-8.721 1.429-1.936 2.857-3.872 4.286-5.809 2.539 2.882 5.017 5.844 7.434 8.891C1059.585 618.391 1058.198 620.271 1056.811 622.15zM1070.992 641.412c-2.198-3.343-4.462-6.596-6.791-9.762 1.344-1.822 2.688-3.643 4.032-5.465 2.287 3.223 4.51 6.532 6.666 9.932C1073.597 637.882 1072.295 639.647 1070.992 641.412zM1083.531 662.899c-1.919-3.721-3.909-7.346-5.968-10.878 1.26-1.707 2.519-3.414 3.778-5.121 2.017 3.588 3.966 7.27 5.843 11.047C1085.967 659.598 1084.749 661.249 1083.531 662.899zM1094.318 686.761c-1.622-4.124-3.32-8.145-5.091-12.067 1.175-1.592 2.35-3.184 3.524-4.776 1.729 3.979 3.385 8.057 4.966 12.237C1096.585 683.69 1095.452 685.226 1094.318 686.761zM1103.241 713.149c-1.307-4.551-2.693-8.994-4.158-13.331 1.09-1.477 2.18-2.955 3.271-4.432 1.423 4.394 2.768 8.893 4.033 13.5C1105.339 710.307 1104.29 711.728 1103.241 713.149zM834.6 498.616c-20.213-4.117-40.734-7.818-61.288-11.474 13.075-17.72 26.151-35.441 39.227-53.161 19.478 5.113 38.924 10.271 58.063 15.844C858.601 466.089 846.601 482.353 834.6 498.616zM906.949 516.289c-19.05-5.693-38.744-10.515-58.806-14.837 11.76-15.937 23.519-31.874 35.279-47.811 18.987 5.779 37.605 12.058 55.581 19.208C928.318 487.328 917.633 501.809 906.949 516.289zM973.516 541.795c-17.065-8.383-35.109-15.44-53.857-21.543 10.444-14.154 20.887-28.307 31.331-42.461 17.673 7.559 34.642 16.073 50.632 25.913C992.253 516.402 982.884 529.098 973.516 541.795zM1031.283 579.228c-14.258-12.188-29.83-22.595-46.443-31.592 9.128-12.37 18.256-24.74 27.384-37.11 15.538 10.454 30.035 22.317 43.218 35.962C1047.389 557.401 1039.336 568.315 1031.283 579.228zM1077.23 632.679c-10.628-17.107-22.907-31.977-36.561-44.983 7.812-10.587 15.624-21.174 23.436-31.761 12.58 14.462 23.783 30.79 33.337 49.353C1090.704 614.419 1083.967 623.549 1077.23 632.679zM1108.339 706.24c-6.176-23.14-14.339-43.588-24.214-61.717 6.496-8.803 12.992-17.607 19.488-26.41 8.8 19.585 15.887 41.491 20.989 66.087C1119.181 691.547 1113.76 698.894 1108.339 706.24z" class="colorFFF svgShape"/></g><circle cx="1010.761" cy="718.823" r="137.016" fill="#8795ff" class="color8795FF svgShape"/><path fill="#e6e6e6" d="M1145.312,692.95c-4.421-22.993-14.355-43.526-28.162-60.502c5.946,11.462,10.368,23.958,12.931,37.285    c14.29,74.31-34.367,146.135-108.679,160.424c-51.316,9.868-101.444-10.288-132.26-48.177    c27.21,52.448,86.51,83.12,147.493,71.393C1110.945,839.085,1159.602,767.26,1145.312,692.95z" class="colorE6E6E6 svgShape"/><g fill="#000000" class="color000 svgShape"><path fill="#ffffff" d="M1021.381,649.126c-0.341,2.572-0.827,5.255-1.506,7.807c-2.785,11.144-8.346,21.317-14.992,25.853     c-7.367-2.259-15.874-9.143-22.439-17.653c-1.769-2.249-3.312-4.625-4.789-7.098c-9.784-16.996-10.954-36.985,14.388-42.024     C1016.964,611.385,1023.726,630.048,1021.381,649.126z" class="colorFFF svgShape"/><path fill="#4b3a94" d="M1021.381,649.126c-0.341,2.572-0.827,5.255-1.506,7.807c-2.785,11.144-8.346,21.317-14.992,25.853     c-7.367-2.259-15.874-9.143-22.439-17.653c-1.769-2.249-3.312-4.625-4.789-7.098c4.443-6.868,11.559-11.995,20.339-13.684     C1006.452,642.725,1014.754,644.636,1021.381,649.126z" class="color4B3A94 svgShape"/></g><g fill="#000000" class="color000 svgShape"><path fill="#ffffff" d="M955.712,674.777c2.057,1.581,4.137,3.344,6.008,5.208c8.258,7.984,14.288,17.887,14.893,25.909     c-5.64,5.251-15.855,9.176-26.508,10.606c-2.832,0.407-5.662,0.555-8.542,0.599c-19.61-0.025-37.507-9.006-29.2-33.473     C920.819,659.733,940.363,663.207,955.712,674.777z" class="colorFFF svgShape"/><path fill="#4b3a94" d="M955.712,674.777c2.057,1.581,4.137,3.344,6.008,5.208c8.258,7.984,14.288,17.887,14.893,25.909     c-5.64,5.251-15.855,9.176-26.508,10.606c-2.832,0.407-5.662,0.555-8.542,0.599c-3.727-7.282-4.609-16.008-1.681-24.456     C942.704,684.506,948.511,678.272,955.712,674.777z" class="color4B3A94 svgShape"/></g><g fill="#000000" class="color000 svgShape"><path fill="#ffffff" d="M945.092,744.474c2.398-0.991,4.964-1.911,7.514-2.599c11.043-3.16,22.635-3.43,29.885,0.057     c1.728,7.51,0.019,18.319-4.068,28.259c-1.064,2.656-2.35,5.181-3.752,7.697c-9.827,16.971-26.552,27.979-43.588,8.552     C914.617,767.17,927.398,751.982,945.092,744.474z" class="colorFFF svgShape"/><path fill="#4b3a94" d="M945.092,744.474c2.398-0.991,4.964-1.911,7.514-2.599c11.043-3.16,22.635-3.43,29.885,0.057     c1.728,7.51,0.019,18.319-4.068,28.259c-1.064,2.656-2.35,5.181-3.752,7.697c-8.169-0.414-16.168-4.013-22.02-10.772     C947.014,760.604,944.518,752.458,945.092,744.474z" class="color4B3A94 svgShape"/></g><g fill="#000000" class="color000 svgShape"><path fill="#ffffff" d="M1000.142,788.52c0.341-2.572,0.827-5.255,1.506-7.807c2.785-11.144,8.346-21.317,14.992-25.853     c7.367,2.259,15.874,9.143,22.439,17.653c1.769,2.249,3.312,4.625,4.789,7.098c9.784,16.996,10.954,36.985-14.388,42.024     C1004.559,826.26,997.796,807.597,1000.142,788.52z" class="colorFFF svgShape"/><path fill="#4b3a94" d="M1000.142,788.52c0.341-2.572,0.827-5.255,1.506-7.807c2.785-11.144,8.346-21.317,14.992-25.853     c7.367,2.259,15.874,9.143,22.439,17.653c1.769,2.249,3.312,4.625,4.789,7.098c-4.443,6.868-11.559,11.995-20.339,13.684     C1015.071,794.921,1006.768,793.009,1000.142,788.52z" class="color4B3A94 svgShape"/></g><g fill="#000000" class="color000 svgShape"><path fill="#ffffff" d="M1065.811,762.868c-2.057-1.581-4.137-3.344-6.008-5.208c-8.258-7.984-14.288-17.887-14.894-25.909     c5.64-5.251,15.855-9.176,26.508-10.606c2.832-0.407,5.662-0.555,8.542-0.599c19.61,0.025,37.507,9.006,29.2,33.473     C1100.704,777.913,1081.16,774.438,1065.811,762.868z" class="colorFFF svgShape"/><path fill="#4b3a94" d="M1065.811,762.868c-2.057-1.581-4.137-3.344-6.008-5.208c-8.258-7.984-14.288-17.887-14.894-25.909     c5.64-5.251,15.855-9.176,26.508-10.606c2.832-0.407,5.662-0.555,8.542-0.599c3.727,7.282,4.609,16.008,1.681,24.456     C1078.819,753.139,1073.012,759.374,1065.811,762.868z" class="color4B3A94 svgShape"/></g><g fill="#000000" class="color000 svgShape"><path fill="#ffffff" d="M1076.431,693.171c-2.398,0.991-4.964,1.911-7.514,2.599c-11.043,3.16-22.635,3.43-29.885-0.057     c-1.728-7.51-0.019-18.319,4.068-28.259c1.063-2.656,2.35-5.181,3.752-7.697c9.827-16.971,26.552-27.979,43.588-8.552     C1106.906,670.475,1094.125,685.664,1076.431,693.171z" class="colorFFF svgShape"/><path fill="#4b3a94" d="M1076.431,693.171c-2.398,0.991-4.964,1.911-7.514,2.599c-11.043,3.16-22.635,3.43-29.885-0.057     c-1.728-7.51-0.019-18.319,4.068-28.259c1.063-2.656,2.35-5.181,3.752-7.697c8.169,0.414,16.168,4.013,22.02,10.772     C1074.509,677.042,1077.005,685.188,1076.431,693.171z" class="color4B3A94 svgShape"/></g><g fill="#000000" class="color000 svgShape"><path fill="#ffffff" d="M1015.148,741.633c-12.579,2.419-24.779-5.846-27.198-18.424c-2.419-12.578,5.846-24.778,18.425-27.197     c12.578-2.419,24.778,5.846,27.197,18.424C1035.991,727.014,1027.726,739.214,1015.148,741.633z M1007.338,701.017     c-9.818,1.888-16.27,11.412-14.383,21.229s11.412,16.269,21.23,14.381c9.817-1.888,16.269-11.412,14.381-21.229     C1026.679,705.582,1017.155,699.13,1007.338,701.017z" class="colorFFF svgShape"/></g><g fill="#000000" class="color000 svgShape"><path fill="#ffd4d1" d="M549.455,812.184l-46.805-5.05c-14.788-9.75-14.45-21.844,2.319-34.823l48.688,3.803L549.455,812.184z" class="colorFFD4D1 svgShape"/><path fill="#2c2257" d="M503.468,807.364c0.909,5.152-16.196,11.923-14.964,20.818c2.7,19.494-11.002,32.78-32.434,30.283     l10.693-91.777c-0.412-2.825,35.429,0.141,38.206,5.623c1.327,2.619-5.848,6.578-9.012,18.508S502.438,800.233,503.468,807.364z" class="color2C2257 svgShape"/><path fill="#ffd4d1" d="M912.936,770.534l9.83,43.861c-7.973,15.817-20.025,16.881-34.857,1.727l-11.286-45.587H912.936z" class="colorFFD4D1 svgShape"/><path fill="#2c2257" d="M922.899,813.555c5.012-1.499,13.717,14.708,22.41,12.455c19.051-4.938,33.833,7.135,33.833,28.711     l-92.398,0c-2.758,0.737-3.96-35.207,1.164-38.6c2.448-1.621,7.211,5.048,19.426,6.809     C919.55,824.692,915.935,815.404,922.899,813.555z" class="color2C2257 svgShape"/><path fill="#38287a" d="M638.292,628.497c0,0,13.166-7.063,31.817-16.459c37.827-19.057,158.948-36.031,171.656-25.518    c38.288,31.674,68.791,148.211,87.363,203.417l-52.506,17.979l-73.018-148.891c-20.353,9.158-114.356,45.921-137.697,40.578    L638.292,628.497z" class="color38287A svgShape"/><path fill="#38287a" d="M560.517,604.838c0,0-15.01,55.931,2.738,98.074c22.343,53.053,98.045,78.573,98.045,78.573    l-141.997-10.073l-3.625,45.221c31.178,0.338,221.624,66.998,242.515,15.744c22.661-55.599-99.442-191.007-102.018-215.2    L560.517,604.838z" class="color38287A svgShape"/><path fill="#ffd4d1" d="M657.881,430.595c17.718,10.952,80.184,42.336,103.47,37.686c11.829-2.354,27.271-42.476,37.988-75.18    c5.79-17.618,10.2-33.09,11.932-39.359c0.544-1.956-18.405-10.481-18.405-10.481l-19.75,36.049l-24.848,45.368    c0,0-57.891-29.977-80.434-36.555C633.765,378.217,624.537,409.902,657.881,430.595z" class="colorFFD4D1 svgShape"/><path fill="#9d83dd" d="M658.195,447.644c27.688,14.624,85.382,27.624,108.336,23.89c24.213-15.023,33.341-75.541,44.753-103.541    c-10.231-5.957-17.4-7.936-28.728-13.288c-7.862,15.085-35.66,64.127-35.66,64.127c-3.967,2.068-65.459-38.439-80.349-41.577    C634.87,370.581,624.851,426.951,658.195,447.644z" class="color9D83DD svgShape"/><path fill="#e6e6e6" d="M675.134,455.18c27.197,9.849,73.017,20.026,91.397,16.353c4.906-0.978,10.45-8.583,16.024-19.478    c-14.208,20.785-75.783,9.577-77.859-7.367c-2.302-18.798-14.3-35.613-14.3-35.613l-24.035,1.029    C665.719,413.265,669.554,435.607,675.134,455.18z" class="colorE6E6E6 svgShape"/><path fill="#9972e8" d="M702.288,599.108c-20.587,34.44-60.017,36.281-105.114,36.621c-13.248,0.121-26.981,0.097-40.859,0.726    c0,0-21.144-125.434-30.396-173.946c-4.287-22.428,0.896-42.022,9.858-56.771c8.67-14.194,20.877-23.929,31.606-27.418    c0,0,69.196-8.913,93.246-2.567c27.175,7.145,28.579,13.926,29.693,41.512c0,0.024,0,0.024,0,0.024    c-1.671,23.76-3.851,53.333-4.432,81.887c-0.315,14.483-0.218,28.701,0.557,41.756    C688.046,567.937,692.527,589.977,702.288,599.108z" class="color9972E8 svgShape"/><path fill="#e6e6e6" d="M686.448,540.932c-7.92,15.477-26.636,16.648-46.693,9.275c-38.762-14.249-76.849-63.951-87.625-36.89    c-20.377,51.171,28.114,103.592,45.044,122.411c-13.248,0.121-26.981,0.097-40.859,0.726c0,0-20.845-125.492-30.396-173.946    c-4.52-22.931,31.772-60.022,55.604-45.581l76.056,36.956l28.312,45.293C685.576,513.66,685.673,527.877,686.448,540.932z" class="colorE6E6E6 svgShape"/><path fill="#ffffff" d="M615.438,371.284c5-0.873,11.309,0.705,17.445,2.19l-13.719,23.241l-14.193-4.1l-13.256,7.428    l-24.33-21.716c4.909-2.168,11.78-3.37,16.77-3.422c0,0,7.9,16.006,19.907,15.202    C616.069,389.302,615.438,371.284,615.438,371.284z" class="colorFFF svgShape"/><path fill="#ffd4d1" d="M786.483 326.635c1.793-2.569 15.374-10.405 23.848-7.645 5.055 1.646 13.991 8.607 12.472 15.661-1.599 7.428-9.429 17.117-12.872 19.111l-18.68-6.163C787.967 343.872 781.356 333.982 786.483 326.635zM584.399 375.616c3.16 5.592 6.71 9.482 10.308 11.913.049 0 .049 0 .049 0 10.989 7.439 22.026 1.118 21.054-11.913l-3.161-20.276-.827-5.203-21.346-4.084L584.399 375.616z" class="colorFFD4D1 svgShape"/><path fill="#fac7c3" d="M584.399,375.616c3.16,5.592,6.71,9.482,10.308,11.913c0.049,0,0.049,0,0.049,0    c1.021,0.292,1.605,0.438,1.605,0.438s-12.421-30.384-2.416-27.011c5.341,1.8,21.16,2.026,18.704-5.614l-0.826-5.203    l-21.346-4.084L584.399,375.616z" class="colorFAC7C3 svgShape"/><path fill="#ffd4d1" d="M571.931,335.943c0,0,0.782,1.384,2.28,3.48l0.02-0.004c6.319,8.798,25.234,30.087,50.728,13.021     c21.837-14.628,14.447-53.568,6.816-75.643c-21.057,21.03-60.197-4.576-66.318,37.161     C546.859,310.064,554.829,336.892,571.931,335.943z" class="colorFFD4D1 svgShape"/><path fill="#2c2257" d="M638.598,295.413c6.424-8.607,6.641-47.261-21.274-38.758c-5.927,1.816-3.877-4.492-19.453-4.999     c-17.813-0.58-18.422,12.817-22.923,11.765c-4.501-1.051-16.647,0.217-21.576,8.672c-4.929,8.455,0.642,15.274-1.358,17.977     c-18.187,7.042-4.807,22.08,1.392,30.381c0,0,6.633-7.813,14.383-2.166c17.101-2.895-8.4-25.646,20.135-21.637     C609.053,303.029,625.017,272.629,638.598,295.413z" class="color2C2257 svgShape"/><path fill="#ffffff" d="M600.772,337.534c5.128,14.222,24.47-8.565,6.626-1.828        C605.261,336.047,600.287,334.478,600.772,337.534z" class="colorFFF svgShape"/><path fill="#ffe9e3" d="M618.937,310.036c2.256,5.607,9.552,2.572,7.164-2.981        C623.846,301.448,616.55,304.483,618.937,310.036z" class="colorFFE9E3 svgShape"/><path fill="#313980" d="M619.705,309.716c1.772,4.405,7.505,2.021,5.629-2.342        C623.562,302.969,617.829,305.354,619.705,309.716z" class="color313980 svgShape"/><path fill="#181a2e" d="M620.754,309.28c1.112,2.763,4.708,1.268,3.531-1.469C623.174,305.047,619.578,306.543,620.754,309.28        z" class="color181A2E svgShape"/><path fill="#ffffff" d="M623.933 306.556c-.408-1.024-2.008-.359-1.569.653C622.773 308.233 624.372 307.568 623.933 306.556zM621.588 306.447c-.183-.457-.897-.159-.701.292C621.069 307.196 621.784 306.899 621.588 306.447z" class="colorFFF svgShape"/><path fill="#ffe9e3" d="M597.124,315.726c1.855,5.752-5.692,8.09-7.413,2.295        C587.856,312.269,595.403,309.931,597.124,315.726z" class="colorFFE9E3 svgShape"/><path fill="#313980" d="M596.33,315.972c1.458,4.519-4.473,6.356-5.824,1.803C589.048,313.256,594.978,311.419,596.33,315.972        z" class="color313980 svgShape"/><path fill="#181a2e" d="M595.244,316.307c0.914,2.835-2.806,3.987-3.653,1.131        C590.676,314.604,594.397,313.452,595.244,316.307z" class="color181A2E svgShape"/><path fill="#ffffff" d="M591.058,316.25c-0.342-1.048,1.313-1.561,1.624-0.503        C593.024,316.795,591.369,317.308,591.058,316.25z" class="colorFFF svgShape"/><path fill="#313980" d="M616.56 302.065c.919-2.189 6.424-4.23 6.974-1.293-.754 1.14-2.508-.275-3.603.492C618.796 301.582 616.248 305.254 616.56 302.065zM587.577 311.061c.959-2.172 6.501-4.111 6.997-1.164-.775 1.126-2.503-.321-3.611.425C589.821 310.619 587.207 314.243 587.577 311.061z" class="color313980 svgShape"/><path fill="#eb9b9b" d="M609.629,326.643c4.546-0.508,2.252-3.496,0.981-6.318c1.025-2.231,4.774,5.83,1.967,6.5       C611.799,326.992,608.576,328.468,609.629,326.643z" class="colorEB9B9B svgShape"/><path fill="#ffffff" d="M593.55,315.663c-0.182-0.457-0.897-0.16-0.701,0.291C593.031,316.412,593.746,316.114,593.55,315.663z       " class="colorFFF svgShape"/><path fill="#ffb8b3" d="M588.028 327.403c.813 2.941 9.805.053 8.752-2.811C595.967 321.65 586.975 324.538 588.028 327.403zM623.455 316.33c.561 3 9.766.882 8.958-2.062C631.853 311.269 622.648 313.387 623.455 316.33z" class="colorFFB8B3 svgShape"/><path fill="#38287a" d="M836.876,265.68c-1.24,0.448-1.883,1.814-1.436,3.049l10.783,29.819c0.447,1.236,1.814,1.874,3.054,1.426     l12.347-4.469l-12.396-34.279L836.876,265.68z" class="color38287A svgShape"/><path fill="#4b3a94" d="M856.048,253.157c-0.387-1.071-1.422-1.679-2.31-1.358c-0.888,0.321-1.295,1.45-0.907,2.521     c0.002,0.005,0.004,0.009,0.006,0.014l-0.001,0l-3.682,6.918l12.396,34.279l7.215,2.854l0.002,0.004     c0.387,1.071,1.422,1.679,2.31,1.358c0.888-0.321,1.295-1.45,0.907-2.521l-15.932-44.056l-0.001,0     C856.05,253.167,856.049,253.162,856.048,253.157z" class="color4B3A94 svgShape"/><polygon fill="#4b3a94" points="691.165 293.994 695.681 293.959 691.012 274.328 686.496 274.364" class="color4B3A94 svgShape"/><polygon fill="#4b3a94" points="747.769 273.525 744.274 276.386 735.307 258.31 738.802 255.448" class="color4B3A94 svgShape"/><path fill="#38287a" d="M776.264,259.872l-114.71,41.482c-3.672,1.328-5.323,6.071-3.687,10.594l19.357,53.528     c2.488,6.88,9.032,10.819,14.618,8.799l137.229-49.626l-18.949-52.399L776.264,259.872z" class="color38287A svgShape"/><path fill="#e6e6e6" d="M673.838,356.114l3.385,9.362c2.488,6.88,9.032,10.819,14.618,8.799l137.229-49.626l-3.385-9.362     l-137.229,49.626C682.871,366.933,676.326,362.994,673.838,356.114z" class="colorE6E6E6 svgShape"/><path fill="#4b3a94" d="M744.949,297.906c-0.31-0.857-1.282-1.291-2.171-0.97c-0.889,0.322-1.359,1.277-1.049,2.134l12.67,35.037     c0.31,0.857,1.282,1.291,2.171,0.97l0,0c0.889-0.322,1.359-1.277,1.049-2.134L744.949,297.906L744.949,297.906z" class="color4B3A94 svgShape"/><rect width="9.855" height="36.464" x="833.409" y="266.308" fill="#4b3a94" transform="rotate(-19.881 838.28 284.505)" class="color4B3A94 svgShape"/><polygon fill="#4b3a94" points="812.913 279.967 816.525 276.622 826.634 304.578 821.718 304.316" class="color4B3A94 svgShape"/><path fill="#8795ff" d="M748.066,306.524l-0.006,0.002c-0.321-0.888-1.301-1.347-2.188-1.026     c-0.888,0.321-1.347,1.301-1.026,2.188l1.165,3.22l0.018-0.006c0.371,0.79,1.283,1.187,2.12,0.884     c0.837-0.303,1.285-1.191,1.064-2.036l0.018-0.006L748.066,306.524z" class="color8795FF svgShape"/><path fill="#38287a" d="M755.089,252.868l-81.46,29.458l-3.543-9.798l81.46-29.458c2.173-0.786,4.571,0.339,5.357,2.511     l0.698,1.93C758.386,249.684,757.261,252.083,755.089,252.868z" class="color38287A svgShape"/><polygon fill="#4b3a94" points="645.079 271.78 647.814 270.791 653.506 273.886 660.078 292.058 657.62 297.907 654.885 298.896" class="color4B3A94 svgShape"/><path fill="#4b3a94" d="M752.732 295.092c-.31-.857-1.282-1.291-2.171-.97-.889.322-1.359 1.277-1.049 2.134l0 0 12.67 35.037c.31.857 1.282 1.291 2.171.97l0 0c.889-.322 1.359-1.277 1.049-2.134L752.732 295.092 752.732 295.092zM760.514 292.277c-.31-.857-1.282-1.291-2.171-.97-.889.322-1.359 1.277-1.049 2.134l0 0 12.67 35.037c.31.857 1.282 1.291 2.171.97l0 0c.889-.322 1.359-1.277 1.049-2.134L760.514 292.277 760.514 292.277zM768.297 289.463c-.31-.857-1.282-1.291-2.171-.97-.889.322-1.359 1.277-1.049 2.134l12.67 35.037c.31.857 1.282 1.291 2.172.97l0 0c.889-.322 1.359-1.277 1.049-2.134L768.297 289.463 768.297 289.463zM739.354 291.046l-.37-1.022c-.416-1.151.179-2.422 1.331-2.839l45.28-16.375c1.151-.416 2.422.179 2.839 1.331l.37 1.022c.416 1.151-.18 2.422-1.331 2.839l-45.28 16.375C741.042 292.793 739.771 292.198 739.354 291.046z" class="color4B3A94 svgShape"/><path fill="#ffffff" d="M723.187,294.927l-51.224,18.524c-2.086,0.754-3.006,3.5-2.054,6.133l13.254,36.65     c0.952,2.633,3.415,4.155,5.502,3.401l51.224-18.524c2.086-0.754,3.006-3.5,2.054-6.133l-13.254-36.65     C727.736,295.695,725.273,294.172,723.187,294.927z" class="colorFFF svgShape"/><path fill="#4b3a94" d="M720.801,300.901l-43.212,15.539c-1.512,0.547-2.045,2.906-1.191,5.269l10.388,28.726     c0.855,2.363,2.773,3.835,4.285,3.289l43.212-15.539c1.512-0.547,2.045-2.906,1.191-5.269l-10.388-28.726     C724.232,301.826,722.313,300.354,720.801,300.901z" class="color4B3A94 svgShape"/><polygon fill="#38287a" points="647.814 270.791 673.731 271.21 677.274 281.008 657.62 297.907" class="color38287A svgShape"/><path fill="#8795ff" d="M775.723 309.999l-.006.002c-.321-.888-1.301-1.347-2.189-1.026-.888.321-1.347 1.301-1.026 2.188l1.165 3.22.018-.006c.371.79 1.283 1.187 2.12.884.837-.303 1.285-1.191 1.064-2.036l.018-.006L775.723 309.999zM763.049 299.285l-.006.002c-.321-.888-1.301-1.347-2.188-1.026-.888.321-1.347 1.301-1.026 2.188l1.165 3.22.018-.006c.371.79 1.283 1.187 2.12.884s1.285-1.191 1.064-2.036l.018-.006L763.049 299.285zM760.158 315.628l-.006.002c-.321-.888-1.301-1.347-2.189-1.026-.888.321-1.347 1.301-1.026 2.188l1.165 3.22.018-.006c.371.79 1.283 1.187 2.12.884s1.285-1.191 1.064-2.036l.018-.006L760.158 315.628z" class="color8795FF svgShape"/><rect width="12.948" height="29.728" x="821.141" y="273.553" fill="#38287a" transform="rotate(-19.881 827.559 288.382)" class="color38287A svgShape"/><rect width="7.391" height="1.219" x="829.392" y="269.416" fill="#ffffff" transform="rotate(-19.881 833.031 269.991)" class="colorFFF svgShape"/><rect width="7.391" height="1.219" x="830.886" y="273.547" fill="#ffffff" transform="rotate(-19.881 834.525 274.123)" class="colorFFF svgShape"/><rect width="7.391" height="1.219" x="832.38" y="277.679" fill="#ffffff" transform="rotate(-19.881 836.02 278.254)" class="colorFFF svgShape"/><rect width="7.391" height="1.219" x="833.874" y="281.81" fill="#ffffff" transform="rotate(-19.881 837.514 282.385)" class="colorFFF svgShape"/><rect width="7.391" height="1.219" x="835.368" y="285.942" fill="#ffffff" transform="rotate(-19.881 839.008 286.516)" class="colorFFF svgShape"/><rect width="7.391" height="1.219" x="836.862" y="290.074" fill="#ffffff" transform="rotate(-19.881 840.502 290.648)" class="colorFFF svgShape"/><rect width="7.391" height="1.219" x="838.357" y="294.205" fill="#ffffff" transform="rotate(-19.881 841.996 294.779)" class="colorFFF svgShape"/><rect width="7.391" height="1.219" x="839.851" y="298.337" fill="#ffffff" transform="rotate(-19.881 843.49 298.91)" class="colorFFF svgShape"/><path fill="#999999" d="M657.253,307.856l125.813-45.497l-6.802-2.487l-114.71,41.482     C661.554,301.354,657.779,302.179,657.253,307.856z" class="color999 svgShape"/><circle cx="789.131" cy="296.596" r="8.787" fill="#8795ff" class="color8795FF svgShape"/><circle cx="789.131" cy="296.596" r="4.566" fill="#4b3a94" class="color4B3A94 svgShape"/><circle cx="808.641" cy="314.67" r="10.426" fill="#8795ff" class="color8795FF svgShape"/><circle cx="808.641" cy="314.67" r="4.566" fill="#4b3a94" class="color4B3A94 svgShape"/><path fill="#e6e6e6" d="M866.257,281.396l5.727,15.835c0.388,1.073-0.024,2.193-0.905,2.511     c-0.892,0.323-1.925-0.274-2.313-1.347l-0.004-0.011l-7.211-2.846l-12.266,4.436c-0.045,0.016-0.083,0.017-0.117,0.03     l0.004,0.011l-9.261,3.349l-1.148-3.174l-12.176,4.403l-0.008-0.023l-4.854-0.25l-2.181-6.031L866.257,281.396z" class="colorE6E6E6 svgShape"/><g fill="#000000" class="color000 svgShape"><path fill="#ffc6c2" d="M696.03,384.647c0,0,4.984-9.89,5.111-15.742c0.127-5.851-5.457-20.878,1.145-19.558     c6.201,1.24,3.233,8.442,8.395,10.494c10.558,4.198,32.529-19.294,37.637-14.966c6.63,5.617-3.483,23.998-16.458,27.559     c-12.975,3.562-16.155,19.208-16.155,19.208L696.03,384.647z" class="colorFFC6C2 svgShape"/><path fill="#9972e8" d="M576.142,406.004c31.392,11.724,70.874,65.651,70.874,65.651l47.447-93.289l28.758,9.6     c0,0-26.061,151.588-59.02,153.124c-34.781,1.621-100.947-55.649-121.374-81.441     C521.885,433.207,550.752,396.521,576.142,406.004z" class="color9972E8 svgShape"/></g></g><g fill="#000000" class="color000 svgShape"><path fill="#205749" d="M316.587 597.653c6.875 6.846 11.599 15.266 14.992 24.293 3.627 9.651 6.362 19.678 8.723 29.705 5.047 21.442 7.68 43.441 7.888 65.467.117 12.41-.703 24.73-1.948 37.069-.152 1.502 2.132 1.449 2.322 0 1.453-11.082 1.982-22.341 2.01-33.512.028-11.131-.567-22.263-1.791-33.327-1.221-11.036-3.042-22.005-5.474-32.839-2.337-10.408-5.057-20.888-8.876-30.861-3.783-9.878-8.825-19.868-17.058-26.781C316.833 596.413 316.071 597.14 316.587 597.653L316.587 597.653zM359.568 586.59c-3.019 10.478-4.137 21.56-4.645 32.422-.518 11.09-.129 22.206.837 33.261.942 10.777 2.703 21.458 3.387 32.26.682 10.786.62 21.602.027 32.391-.336 6.103-.86 12.195-1.557 18.267-.701 6.098-1.738 12.147-2.487 18.237-.134 1.089 1.675 1.319 1.911.258 1.169-5.239 1.843-10.604 2.503-15.926.671-5.405 1.205-10.828 1.593-16.26.772-10.803.931-21.656.403-32.475-.259-5.307-.684-10.608-1.313-15.884-.646-5.417-1.466-10.81-2.062-16.233-1.206-10.978-1.871-22.02-1.73-33.066.079-6.168.417-12.333 1.068-18.467.661-6.235 1.705-12.418 2.726-18.601C360.301 586.345 359.693 586.156 359.568 586.59L359.568 586.59z" class="color205749 svgShape"/><path fill="#205749" d="M321.474,561.042c1.491,12.861,6.481,25.145,11.235,37.087c4.913,12.343,9.713,24.653,13.004,37.548     c3.153,12.358,5.211,24.962,6.335,37.663c1.117,12.624,1.364,25.307,1.21,37.974c-0.159,13.112-0.863,26.209-1.056,39.318     c-0.025,1.712-0.022,3.425-0.023,5.138c-0.001,1.032,1.511,1.007,1.586,0c0.991-13.228,1.486-26.529,1.742-39.791     c0.245-12.699,0.148-25.416-0.77-38.089c-0.918-12.667-2.653-25.301-5.537-37.677c-3.001-12.879-7.384-25.297-12.426-37.505     c-2.522-6.108-5.096-12.197-7.403-18.39c-2.277-6.114-4.156-12.302-5.754-18.625c-0.402-1.589-0.767-3.189-1.115-4.79     C322.379,560.337,321.405,560.45,321.474,561.042L321.474,561.042z" class="color205749 svgShape"/><path fill="#205749" d="M319.424,642.854c4.746,12.991,14.555,23.048,20.845,35.204c3.428,6.626,5.068,13.712,5.975,21.082     c0.995,8.09,1.096,16.251,1.126,24.391c0.016,4.51,0.032,9.02,0.165,13.529c0.133,4.49,0.213,9.075,1.072,13.495     c0.175,0.902,1.609,0.687,1.59-0.215c-0.085-4.046-0.45-8.081-0.553-12.128c-0.103-4.053-0.093-8.107-0.116-12.16     c-0.045-8.157-0.073-16.335-0.924-24.456c-0.768-7.336-2.194-14.681-5.332-21.398c-2.915-6.239-6.955-11.865-10.914-17.468     c-4.5-6.369-9.138-12.833-12.038-20.123C320.105,642.06,319.216,642.284,319.424,642.854L319.424,642.854z" class="color205749 svgShape"/><path fill="#205749" d="M321.852 676.252c7.15 1.947 13.069 7.124 16.332 13.724 2.166 4.382 2.735 9.199 3.304 13.988 1.409 11.874 2.386 23.801 4.042 35.646.394 2.817.824 5.633 1.389 8.422.402 1.983.802 4.013 1.736 5.825.443.859 1.828.264 1.554-.655-1.227-4.131-1.959-8.383-2.576-12.642-.889-6.137-1.545-12.306-2.193-18.472-.621-5.909-1.187-11.825-1.925-17.721-.602-4.813-1.163-9.644-3.152-14.122-3.379-7.606-10.134-13.17-18.22-15.05C321.458 675.036 321.168 676.066 321.852 676.252L321.852 676.252zM392.683 601.888c-6.357 7.516-11.444 16.109-15.289 25.16-3.895 9.168-6.376 18.678-6.953 28.635-.628 10.836.128 21.67.059 32.51-.034 5.318-.249 10.651-.898 15.933-.61 4.96-1.562 9.885-2.668 14.757-1.286 5.664-2.815 11.272-4.51 16.827-1.597 5.235-3.435 10.39-5.062 15.612-.269.865 1.123 1.493 1.495.63 1.886-4.383 3.412-8.964 4.846-13.513 1.545-4.899 2.96-9.839 4.207-14.822 2.47-9.878 4.132-19.838 4.444-30.027.329-10.733-.518-21.457-.31-32.191.101-5.221.36-10.457 1.332-15.597.914-4.832 2.284-9.57 3.985-14.182 3.838-10.408 9.277-20.377 16.054-29.166C393.736 602.037 393.024 601.485 392.683 601.888L392.683 601.888z" class="color205749 svgShape"/><path fill="#205749" d="M388.287 536.729c-3.336 6.04-5.479 12.527-6.668 19.313-1.198 6.836-1.657 13.773-2.1 20.691-.459 7.156-.874 14.336-2.048 21.419-1.212 7.31-3.484 14.295-6.161 21.188-2.76 7.108-5.794 14.121-7.888 21.466-2.108 7.398-2.473 14.943-1.866 22.584.623 7.843 2.061 15.589 2.925 23.404.795 7.198.7 14.352-.147 21.54-1.565 13.287-4.892 26.397-2.956 39.845.267 1.855.627 3.694 1.055 5.519.299 1.275 2.224.732 1.955-.539-1.44-6.814-1.736-13.794-1.176-20.727.528-6.542 1.741-12.999 2.661-19.491.967-6.823 1.585-13.695 1.198-20.59-.435-7.751-1.906-15.41-2.851-23.105-.929-7.57-1.483-15.351-.066-22.898 1.38-7.352 4.288-14.408 6.972-21.357 2.68-6.94 5.371-13.913 6.941-21.205 1.471-6.832 2.06-13.819 2.474-20.784.82-13.816.957-28.066 5.939-41.181.634-1.668 1.358-3.29 2.174-4.876C388.779 536.701 388.42 536.488 388.287 536.729L388.287 536.729zM415.711 637.632c-7.24 2.861-14.427 6.379-20.668 11.075-6.438 4.845-11.245 11.007-14.212 18.513-3.116 7.885-4.335 16.365-5.735 24.678-1.639 9.728-3.253 19.461-4.878 29.192-.893 5.345-1.785 10.69-2.678 16.035-.905 5.419-1.999 10.845-2.641 16.302-.123 1.043 1.609 1.266 1.831.248 1.018-4.673 1.654-9.448 2.443-14.165.791-4.728 1.582-9.456 2.373-14.184 1.582-9.456 3.164-18.912 4.746-28.368 1.401-8.376 2.476-16.916 4.98-25.055 2.382-7.742 6.373-14.602 12.523-19.941 6.625-5.752 14.646-9.311 22.28-13.464C416.537 638.248 416.22 637.431 415.711 637.632L415.711 637.632z" class="color205749 svgShape"/><path fill="#205749" d="M394.167,680.25c-8.279,6.586-14.192,15.53-18.393,25.155c-4.291,9.831-7.024,20.239-9.456,30.658     c-0.671,2.874-1.319,5.753-1.972,8.631c-0.328,1.444-0.656,2.887-0.99,4.33c-0.333,1.438-0.776,2.921-0.73,4.404     c0.023,0.753,1.075,1.101,1.463,0.396c1.192-2.169,1.488-4.97,2.031-7.366c0.571-2.517,1.134-5.035,1.71-7.551     c1.189-5.196,2.428-10.383,3.872-15.515c2.815-10.004,6.446-19.882,12.055-28.685c3.174-4.982,6.989-9.535,11.382-13.487     C395.809,680.619,394.843,679.713,394.167,680.25L394.167,680.25z" class="color205749 svgShape"/><path fill="#398c5b" d="M323.343,675.614c0.054-0.193,0.096-0.405,0.141-0.603l-9.159-5.921      c-18.208-21.575-37.253-10.443-61.828-15.895c-9.562-2.123-19.525-12-30.913-11.238c-23.794,1.592-42.933,19.375-45.391,22.001      c-0.383,0.405-0.363,0.455,0.073,0.044c0,0,0,0,0.015-0.004c0.806-0.111,27.618-3.789,34.425,2.419      c20.383,18.527,29.727,10.368,43.875,17.102c15.98,9.798,32.682,24.802,52.21,13.638      C315.032,692.772,321.229,684.706,323.343,675.614z" class="color398C5B svgShape"/><path fill="#50a673" d="M324.113,676.081c0.054-0.193,0.095-0.406,0.139-0.604c0,0-7.16-4.148-9.223-5.96      c-21.34-18.745-37.47-10.575-62.185-16.112c-9.616-2.156-19.659-12.081-31.101-11.353      c-23.908,1.523-43.089,19.281-45.551,21.904l0.074,0.045c0,0,0,0,0.015-0.003c0.621-0.399,27.535-16.108,41.158-6.421      c8.638,6.142,17.051,15.787,31.731,10.203c14.694-5.588,16.609-2.258,32.796,7.841      C297.735,685.454,306.889,692.836,324.113,676.081z" class="color50A673 svgShape"/><path fill="#276b5a" d="M320.971,644.944c-5.083,6.539-16.336,3.927-26.493-2.319c-5.543-3.835-9.83-9.252-15.264-13.246      c-11.228-8.172-24.994-9.453-38.634-10.441c-5.518-0.393-11.011-0.745-16.319-1.49c14.619-12.116,35.15-5.987,52.483-7.77      c18.697-4.731,43.499-1.993,46.772,21.025C324.244,637.5,323.198,642.089,320.971,644.944z" class="color276B5A svgShape"/><path fill="#205749" d="M320.971,644.944c-5.083,6.539-16.336,3.927-26.493-2.319c-5.543-3.835-9.83-9.252-15.264-13.246      c-11.228-8.172-24.994-9.453-38.634-10.441c10.375-2.964,29.859-6.589,43.85,2.403      C302.642,633.046,311.383,643.563,320.971,644.944z" class="color205749 svgShape"/><path fill="#80bf9a" d="M319.999,598.194c-0.017,0.134-0.05,0.268-0.075,0.402c-11.982,4.245-31.391,2.855-40.819-6.188      c-3.55-3.173-12.376-15.792-16.579-18.028c-5.861-3.106-20.623-2.813-27.137-4.061c-21.485-4.128-34.129-21.058-30.763-42.745      c38.818,37.009,90.162,4.103,109.588,36.105C320.41,573.878,322.361,586.505,319.999,598.194z" class="color80BF9A svgShape"/><path fill="#62a67e" d="M319.999,598.194c-0.017,0.134-0.05,0.268-0.075,0.402c-11.982,4.245-31.391,2.855-40.819-6.188      c-3.55-3.173-12.376-15.792-16.579-18.028c-5.861-3.106-20.623-2.813-27.137-4.061c-21.485-4.128-34.129-21.058-30.763-42.745      c0,0-0.553,28.879,22.239,29.825c22.783,0.955,48.974-4.457,57.514,15.22C292.082,590.346,314.08,597.943,319.999,598.194z" class="color62A67E svgShape"/><path fill="#50a673" d="M323.755,562.539c-0.447,1.351-0.905,2.679-1.375,3.982c-5.495-38.936-91.562-26.023-79.01-86.716      c0,0,21.447,30.032,46.057,26.739c9.138-1.225,21.361,0.742,28.377,6.733C332.434,526.242,329.284,545.78,323.755,562.539z" class="color50A673 svgShape"/><path fill="#398c5b" d="M323.755,562.539c-0.295,1.283-0.753,2.61-1.375,3.982c-5.495-38.936-91.562-26.023-79.01-86.716      c0,0,0.715,14.94,6.618,24.14c15.912,24.794,34.426,3.774,47.914,23.4C303.413,535.36,327.778,545.166,323.755,562.539z" class="color398C5B svgShape"/><path fill="#276b5a" d="M359.199,594.645c-0.161,0.089-0.322,0.169-0.483,0.249c-16.824-0.093-23.902-21.268-19.667-35.376      c5.611-13.85,4.121-14.981-3.071-26.788c-1.405-4.848,1.522-9.747,3.313-14.464c3.734-9.806,4.609-24.995-2.217-31.902      c-1.31-1.337-2.903-2.353-4.823-2.975c25.126,8.021,19.636,24.671,30.204,39.361c9.78,7.025,15.606,16.313,15.429,28.821      C379.047,567.67,374.506,586.746,359.199,594.645z" class="color276B5A svgShape"/><path fill="#205749" d="M360.41,572.16c-2.345,9.494-1.919,17.586-1.211,22.485c-0.161,0.089-0.322,0.169-0.483,0.249      c-16.824-0.093-23.902-21.268-19.667-35.376c5.611-13.85,4.121-14.981-3.071-26.788c-1.405-4.848,1.522-9.747,3.313-14.464      c3.734-9.806,4.609-24.995-2.217-31.902c5.785,4.505,14.404,14.685,12.248,34.586      C346.152,550.325,364.269,556.494,360.41,572.16z" class="color205749 svgShape"/><path fill="#276b5a" d="M461.413,524.455c-10.349,12.903-5.233,32.379-14.1,45.768c-3.081,4.622-16.554,11.454-17.584,16.922       c-4.521,23.922-27.732,23.277-37.654,18.505c-0.025-0.008-0.05-0.025-0.075-0.034c-13.757-16.998-1.842-27.447,6.673-42.075       c3.751-23.445,20.782-25.915,40.903-29.808c7.687-1.951,15.072-5.091,21.812-9.261       C461.405,524.463,461.413,524.455,461.413,524.455z" class="color276B5A svgShape"/><path fill="#205749" d="M461.413,524.455c-10.349,12.903-5.233,32.379-14.1,45.768c-3.081,4.622-16.554,11.454-17.584,16.922      c-4.521,23.922-27.732,23.277-37.654,18.505c1.708-3.626,4.873-9.696,9.872-16.889c8.164-11.756,21.621-6.033,24.625-30.503      c1.434-11.679,33.886-33.099,34.815-33.786C461.405,524.463,461.413,524.455,461.413,524.455z" class="color205749 svgShape"/><path fill="#80bf9a" d="M495.542,617.346c-6.514,1.247-21.276,0.955-27.137,4.069c-4.203,2.227-13.029,14.854-16.579,18.027      c-9.428,9.043-28.837,10.433-40.819,6.188c-2.47-11.815-0.552-24.609,5.711-34.924c19.426-31.994,70.77,0.913,109.588-36.097      C529.671,596.296,517.028,613.227,495.542,617.346z" class="color80BF9A svgShape"/><path fill="#62a67e" d="M495.542,617.346c-6.514,1.247-21.276,0.955-27.137,4.069c-4.203,2.227-13.029,14.854-16.579,18.027      c-9.428,9.043-28.837,10.433-40.819,6.188c15.44-2.721,22.415-13.372,32.505-29.984c10.098-16.621,39.429-12.719,60.245-18.22      c20.815-5.51,22.549-22.817,22.549-22.817C529.671,596.296,517.028,613.227,495.542,617.346z" class="color62A67E svgShape"/><path fill="#276b5a" d="M506.955,655.536c-18.17-3.634-23.587,21-52.006,18.714c-21.075-1.7-12.635,17.994-43.105,21.569      c-5.912,0.695-13.531-3.508-17.877-9.68c-5.736-8.13-5.811-19.677,11.12-27.941c12.677-6.196,31.433,0.117,43.239-7.603      c14.385-9.395,27.405-11.32,40.794-7.511c8.114,2.311,16.395,7.904,18.789,10.776c0,0,0,0,0.008,0.008      C509.006,655.176,508.872,655.921,506.955,655.536z" class="color276B5A svgShape"/><path fill="#205749" d="M506.955,655.536c-18.17-3.634-23.587,21-52.006,18.714c-21.075-1.7-12.635,17.994-43.105,21.569      c-5.912,0.695-13.531-3.508-17.877-9.68c5.526-13.933,19.149-18.898,37.788-17.567c21.335,1.516,27.464-8.239,44.42-16.135      c11.212-5.216,24.215-1.616,31.734,1.424c0,0,0,0,0.008,0.008C509.006,655.176,508.872,655.921,506.955,655.536z" class="color205749 svgShape"/><g fill="#000000" class="color000 svgShape"><path fill="#ff7a9e" d="M378.378,858.767h-40.243c-2.778,0-5.184-1.919-5.803-4.627c-8.203-35.92-12.982-79.72-9.179-133.816      h70.219c3.354,53.482-0.747,97.377-9.195,133.832C383.552,856.855,381.15,858.767,378.378,858.767z" class="colorFF7A9E svgShape"/><path fill="#e6537a" d="M393.372,720.324h-70.219c-0.528,7.51-0.885,14.814-1.096,21.934h14.808      c24.938,0,45.133,20.405,44.709,45.339c-0.448,26.296-2.858,49.901-6.718,71.17h3.521c2.772,0,5.174-1.911,5.8-4.611      C392.625,817.7,396.726,773.806,393.372,720.324z" class="colorE6537A svgShape"/><path fill="#ff7a9e" d="M393.03,714.124h-68.796c-3.672,0-6.648,2.897-6.648,6.471s2.976,6.471,6.648,6.471h68.796      c3.672,0,6.648-2.897,6.648-6.471S396.702,714.124,393.03,714.124z" class="colorFF7A9E svgShape"/></g><g fill="#000000" class="color000 svgShape"><path fill="#80bf9a" d="M398.342,533.99c-4.831,1.373-9.06,3.751-11.764,7.837c-0.008,0.008-0.008,0.017-0.008,0.017     c-3.391-4.12-3.994-10.55-5.309-15.725c-5.635-31.726,31.751-35.586,29.248-80.575c7.075,7.695,6.054,19.719,10.274,29.281     c2.11,4.781,5.535,8.909,7.427,13.774C435.804,509.214,416.931,528.062,398.342,533.99z" class="color80BF9A svgShape"/><path fill="#62a67e" d="M398.342,533.99c-4.831,1.373-9.06,3.751-11.764,7.837c0.226-0.41,3.894-7.151,6.313-22.892     c2.504-16.252,8.005-12.752,17.617-28.485c9.62-15.733,0-44.905,0-44.905c7.075,7.695,6.054,19.719,10.274,29.281     c2.11,4.781,5.535,8.909,7.427,13.774C435.804,509.214,416.931,528.062,398.342,533.99z" class="color62A67E svgShape"/></g></g></svg>