<?xml version="1.0" standalone="no"?><!DOCTYPE svg PUBLIC "-//W3C//DTD SVG 1.1//EN" "http://www.w3.org/Graphics/SVG/1.1/DTD/svg11.dtd"><svg t="1723870472294" class="icon" viewBox="0 0 1024 1024" version="1.1" xmlns="http://www.w3.org/2000/svg" p-id="44754" xmlns:xlink="http://www.w3.org/1999/xlink" width="200" height="200"><path d="M857.310253 538.929427v-449.960053c0-49.086551-39.882823-88.969374-88.969374-88.969374H412.122503l-66.81225 0.681758-289.406125 288.724367v645.624501c0 49.086551 39.882823 88.969374 88.969374 88.969374h623.467377c49.086551 0 88.969374-39.882823 88.969374-88.969374v-39.882823h-66.81225v17.725699c0 24.543276-19.770972 44.655126-44.655127 44.655126H167.030626c-24.543276 0-44.655126-19.770972-44.655127-44.655126V356.218375h200.436751c49.086551 0 88.969374-39.882823 88.969375-88.969374V66.81225h334.061251c24.543276 0 44.655126 19.770972 44.655127 44.655127v427.802929h66.81225zM353.491345 241.683089c0 26.24767-21.475366 47.723036-47.723036 47.723036h-146.577896l194.300932-194.300932v146.577896z" fill="#060001" p-id="44755"></path><path d="M370.194407 842.652463v-221.912117h149.304927v44.996006h-97.491345v41.928095h92.037284v42.950733h-92.037284v46.018642h103.286285v45.677763h-155.099867zM694.370173 842.652463l-48.745672-78.40213-46.7004 78.40213h-64.08522l77.720373-117.262317-71.584554-104.6498h64.766978l41.246338 68.857524 40.905459-68.857524h62.380826l-70.221039 104.6498 80.447404 117.262317h-66.130493zM780.953395 842.652463v-221.912117h149.304927v44.996006h-97.491345v41.928095h92.037284v42.950733h-92.037284v46.018642h103.286285v45.677763h-155.099867z" fill="" p-id="44756"></path></svg>