<?xml version="1.0" standalone="no"?><!DOCTYPE svg PUBLIC "-//W3C//DTD SVG 1.1//EN" "http://www.w3.org/Graphics/SVG/1.1/DTD/svg11.dtd"><svg t="1723869334305" class="icon" viewBox="0 0 1024 1024" version="1.1" xmlns="http://www.w3.org/2000/svg" p-id="12683" xmlns:xlink="http://www.w3.org/1999/xlink" width="200" height="200"><path d="M114.688 194.56c-4.096 0-8.192 3.072-8.192 7.168l-1.024 10.24-10.24-1.024c-4.096 0-8.192 3.072-8.192 7.168 0 4.096 3.072 8.192 7.168 8.192l10.24 1.024-1.024 10.24c0 4.096 3.072 8.192 7.168 8.192 4.096 0 8.192-3.072 8.192-7.168l1.024-10.24 10.24 1.024c4.096 0 8.192-3.072 8.192-7.168 0-4.096-3.072-8.192-7.168-8.192l-10.24-1.024 1.024-10.24c0-5.12-3.072-8.192-7.168-8.192zM946.176 497.664c4.096 0 7.168-3.072 8.192-7.168v-11.264h11.264c4.096 0 7.168-3.072 8.192-7.168 0-4.096-3.072-7.168-7.168-8.192h-11.264v-11.264c0-4.096-3.072-7.168-7.168-8.192-4.096 0-7.168 3.072-8.192 7.168v11.264h-11.264c-4.096 0-7.168 3.072-8.192 7.168 0 4.096 3.072 7.168 7.168 8.192h11.264v11.264c0 5.12 3.072 8.192 7.168 8.192zM910.336 238.592c4.096 0 7.168-3.072 8.192-7.168v-11.264h11.264c4.096 0 7.168-3.072 8.192-7.168 0-4.096-3.072-7.168-7.168-8.192h-11.264v-11.264c0-4.096-3.072-7.168-7.168-8.192-4.096 0-7.168 3.072-8.192 7.168v11.264h-11.264c-4.096 0-7.168 3.072-8.192 7.168 0 4.096 3.072 7.168 7.168 8.192h11.264v11.264c0 5.12 3.072 8.192 7.168 8.192zM440.32 836.608c4.096 0 7.168-3.072 8.192-7.168v-11.264h11.264c4.096 0 7.168-3.072 8.192-7.168 0-4.096-3.072-7.168-7.168-8.192h-11.264v-11.264c0-4.096-3.072-7.168-7.168-8.192-4.096 0-7.168 3.072-8.192 7.168v11.264h-11.264c-4.096 0-7.168 3.072-8.192 7.168 0 4.096 3.072 7.168 7.168 8.192h11.264v11.264c-1.024 4.096 3.072 8.192 7.168 8.192zM983.04 745.472c0-6.144-4.096-10.24-10.24-10.24h-8.192c-6.144 0-10.24 4.096-10.24 10.24s4.096 10.24 10.24 10.24h8.192c6.144 0 10.24-5.12 10.24-10.24zM824.32 601.088c-5.12 3.072-9.216 6.144-11.264 10.24-3.072 4.096-4.096 9.216-4.096 14.336 0 6.144 2.048 11.264 5.12 14.336 3.072 4.096 7.168 6.144 11.264 8.192 7.168 3.072 15.36 5.12 17.408 6.144v32.768c-2.048 0-13.312 0-25.6-6.144-2.048-1.024-5.12-1.024-7.168 1.024-1.024 1.024-2.048 3.072-2.048 4.096 0 1.024 0 2.048 1.024 3.072 1.024 1.024 2.048 2.048 3.072 2.048 15.36 7.168 28.672 7.168 30.72 7.168v11.264c0 1.024 0 2.048 1.024 2.048 1.024 1.024 1.024 1.024 2.048 1.024s2.048 0 2.048-1.024c1.024-1.024 1.024-1.024 1.024-2.048v-11.264c2.048 0 9.216 0 17.408-4.096 10.24-5.12 16.384-13.312 16.384-23.552 0-6.144-2.048-11.264-5.12-15.36-3.072-4.096-7.168-7.168-11.264-8.192-7.168-3.072-16.384-5.12-17.408-5.12v-33.792c2.048 0 10.24 0 21.504 4.096 1.024 0 2.048 1.024 3.072 1.024 1.024 0 2.048-1.024 4.096-2.048 1.024-1.024 2.048-3.072 2.048-4.096 0-3.072-1.024-5.12-4.096-6.144-7.168-2.048-14.336-4.096-22.528-5.12H849.92v-11.264c0-1.024 0-2.048-1.024-2.048-1.024-1.024-4.096-1.024-5.12 0-1.024 1.024-1.024 1.024-1.024 2.048v11.264H839.68c-6.144 2.048-11.264 3.072-15.36 5.12z m24.576 55.296c3.072 1.024 10.24 3.072 15.36 6.144 3.072 2.048 5.12 5.12 5.12 8.192 0 9.216-5.12 14.336-16.384 15.36l-4.096 1.024v-30.72z m-6.144-15.36c-3.072-1.024-10.24-3.072-15.36-6.144-3.072-2.048-5.12-5.12-5.12-10.24 0-4.096 2.048-8.192 6.144-11.264 3.072-2.048 6.144-4.096 10.24-4.096l4.096-1.024v32.768zM368.64 640h315.392c6.144 0 11.264-5.12 11.264-11.264 0-6.144-5.12-11.264-11.264-11.264h-13.312v-153.6c0-9.216-7.168-16.384-16.384-16.384h-23.552c-9.216 0-16.384 7.168-16.384 16.384v153.6h-14.336V492.544c0-9.216-7.168-16.384-16.384-16.384h-23.552c-9.216 0-16.384 7.168-16.384 16.384v123.904h-14.336v-89.088c0-9.216-7.168-16.384-16.384-16.384h-23.552c-9.216 0-16.384 7.168-16.384 16.384v89.088h-14.336v-50.176c0-9.216-7.168-16.384-16.384-16.384H419.84c-9.216 0-16.384 7.168-16.384 16.384v50.176h-23.552v-215.04c0-6.144-5.12-11.264-11.264-11.264-6.144 0-11.264 5.12-11.264 11.264v226.304c0 7.168 5.12 12.288 11.264 12.288z m256-177.152c0-3.072 3.072-6.144 6.144-6.144h23.552c3.072 0 6.144 3.072 6.144 6.144v153.6H624.64v-153.6z m-70.656 29.696c0-3.072 3.072-6.144 6.144-6.144H583.68c3.072 0 6.144 3.072 6.144 6.144v123.904h-35.84V492.544z m-69.632 34.816c0-3.072 3.072-6.144 6.144-6.144h23.552c3.072 0 6.144 3.072 6.144 6.144v89.088h-35.84v-89.088z m-70.656 38.912c0-3.072 3.072-6.144 6.144-6.144h23.552c3.072 0 6.144 3.072 6.144 6.144v50.176h-35.84v-50.176z" p-id="12684"></path><path d="M419.84 502.784c14.336 0 25.6-11.264 25.6-25.6 0-3.072-1.024-6.144-2.048-9.216l46.08-45.056c3.072 1.024 7.168 2.048 10.24 2.048 6.144 0 12.288-2.048 16.384-6.144l30.72 16.384c0 14.336 11.264 25.6 25.6 25.6s25.6-11.264 25.6-25.6v-2.048l46.08-33.792c17.408 9.216 36.864-4.096 36.864-22.528 0-14.336-11.264-25.6-25.6-25.6s-25.6 11.264-25.6 25.6c0 2.048 0 4.096 1.024 6.144l-43.008 31.744c-10.24-7.168-22.528-6.144-31.744 1.024l-30.72-15.36c0-14.336-11.264-25.6-25.6-25.6s-25.6 11.264-25.6 25.6c0 3.072 0 5.12 1.024 7.168l-47.104 45.056c-3.072-1.024-6.144-2.048-9.216-2.048-14.336 0-25.6 11.264-25.6 25.6 2.048 15.36 13.312 26.624 26.624 26.624z m234.496-139.264c8.192 0 15.36 7.168 15.36 15.36s-7.168 15.36-15.36 15.36-15.36-7.168-15.36-15.36c0-9.216 7.168-15.36 15.36-15.36z m-82.944 57.344c8.192 0 15.36 7.168 15.36 15.36s-7.168 15.36-15.36 15.36-15.36-7.168-15.36-15.36c1.024-9.216 7.168-15.36 15.36-15.36z m-71.68-34.816c8.192 0 15.36 7.168 15.36 15.36s-7.168 15.36-15.36 15.36-15.36-7.168-15.36-15.36 7.168-15.36 15.36-15.36zM419.84 462.848c8.192 0 15.36 7.168 15.36 15.36s-7.168 15.36-15.36 15.36-15.36-7.168-15.36-15.36c1.024-9.216 7.168-15.36 15.36-15.36z" p-id="12685"></path><path d="M40.96 745.472c0 6.144 4.096 10.24 10.24 10.24h189.44c6.144 0 10.24-4.096 10.24-10.24s-4.096-10.24-10.24-10.24H163.84c-37.888 0-65.536-19.456-70.656-49.152h147.456l6.144 14.336c2.048 6.144 9.216 11.264 16.384 11.264h114.688c7.168 0 14.336-4.096 16.384-11.264l6.144-15.36h133.12c2.048 19.456 12.288 36.864 25.6 49.152H307.2c-6.144 0-10.24 4.096-10.24 10.24s4.096 10.24 10.24 10.24h607.232c6.144 0 10.24-4.096 10.24-10.24s-4.096-10.24-10.24-10.24h-7.168c26.624-19.456 44.032-49.152 44.032-83.968 1.024-58.368-46.08-107.52-105.472-108.544h-9.216V303.104c0-27.648-22.528-49.152-49.152-49.152H263.168c-27.648 0-49.152 22.528-49.152 49.152V665.6H81.92c-6.144 0-10.24 4.096-10.24 10.24 0 24.576 11.264 45.056 28.672 59.392H51.2c-6.144 0-10.24 4.096-10.24 10.24z m718.848-159.744c-15.36 21.504-23.552 50.176-19.456 78.848v1.024H292.864V332.8h466.944v252.928zM384 696.32c-1.024 2.048-4.096 4.096-7.168 4.096H262.144c-3.072 0-6.144-2.048-7.168-4.096l-4.096-11.264H389.12l-5.12 11.264zM552.96 685.056h192.512v1.024c7.168 18.432 18.432 33.792 31.744 44.032l1.024 1.024h-1.024c-6.144 2.048-13.312 3.072-18.432 3.072H611.328c-28.672 0-53.248-20.48-58.368-49.152z m293.888-122.88c48.128 1.024 86.016 39.936 84.992 88.064-1.024 47.104-39.936 84.992-88.064 84.992-14.336 0-28.672-4.096-40.96-11.264-26.624-15.36-45.056-45.056-44.032-76.8 1.024-48.128 40.96-84.992 86.016-84.992h2.048zM233.472 303.104c0-16.384 13.312-28.672 28.672-28.672H788.48c16.384 0 28.672 13.312 28.672 28.672v242.688c-13.312 4.096-27.648 11.264-37.888 18.432V322.56c0-6.144-4.096-10.24-10.24-10.24H282.624c-6.144 0-10.24 4.096-10.24 10.24V665.6h-37.888V303.104z" p-id="12686"></path></svg>