<?xml version="1.0" standalone="no"?><!DOCTYPE svg PUBLIC "-//W3C//DTD SVG 1.1//EN" "http://www.w3.org/Graphics/SVG/1.1/DTD/svg11.dtd"><svg t="1723870816761" class="icon" viewBox="0 0 1024 1024" version="1.1" xmlns="http://www.w3.org/2000/svg" p-id="18946" xmlns:xlink="http://www.w3.org/1999/xlink" width="200" height="200"><path d="M347.253859 840.814935l-15.052183-0.75261 35.372629-714.376598c0.903131-18.213141-13.095399-33.71689-31.30854-34.620021-8.730266-0.451565-17.159488 2.558871-23.782449 8.579745-6.62296 5.870351-10.386006 13.99853-10.837571 22.728796L266.273115 836.901367l-15.052183-0.752609 35.37263-714.376599c0.602087-12.794355 6.171395-24.535058 15.804792-33.265324s21.825665-13.095399 34.62002-12.34279c26.491842 1.354696 46.962811 23.932971 45.608114 50.424813l-35.372629 714.226077zM666.811701 842.621197L623.762458 128.696163c-0.752609-12.794355 3.462002-25.137145 12.041746-34.770542s20.320447-15.353227 33.114802-16.105836c26.491842-1.65574 49.220638 18.664707 50.876378 45.156549L762.694106 836.901367l-15.052183 0.903131-42.898721-713.925033C703.689549 105.666324 687.884757 91.818315 669.822137 92.871968c-8.730266 0.602087-16.858445 4.515655-22.728796 11.138616-5.870351 6.62296-8.880788 15.052183-8.2787 23.782448L681.863884 841.718066l-15.052183 0.903131z" fill="#231815" p-id="18947"></path><path d="M372.240482 211.332647h261.606938v15.052183H372.240482zM372.240482 175.960018h258.897545v15.052182h-258.897545zM368.77848 307.215052h273.799206v15.052183H368.77848zM364.112303 342.587682h278.465383v15.052183h-278.465383zM359.596649 465.564016h292.463913v15.052183H359.596649zM363.209172 430.191386h286.593562v15.052183H363.209172zM354.629428 608.710275h302.548876v15.052183h-302.548876zM354.629428 573.337645h300.44157v15.052183H354.629428zM344.996031 733.342349h323.170366v15.052183H344.996031z" fill="#231815" p-id="18948"></path><path d="M343.189769 768.564457h324.976628v15.052183H343.189769z" fill="#231815" p-id="18949"></path><path d="M809.95796 891.841834h-596.066442c-16.406879 0-29.6528-13.396443-29.6528-29.6528 0-16.406879 13.396443-29.6528 29.6528-29.6528h596.066442c16.406879 0 29.6528 13.396443 29.6528 29.6528 0 16.256357-13.245921 29.6528-29.6528 29.6528z m-596.066442-44.403939c-8.128179 0-14.600617 6.62296-14.600617 14.600617s6.62296 14.600617 14.600617 14.600618h596.066442c8.128179 0 14.600617-6.62296 14.600617-14.600618s-6.62296-14.600617-14.600617-14.600617h-596.066442z" fill="#231815" p-id="18950"></path></svg>