<?xml version="1.0" standalone="no"?><!DOCTYPE svg PUBLIC "-//W3C//DTD SVG 1.1//EN" "http://www.w3.org/Graphics/SVG/1.1/DTD/svg11.dtd"><svg t="1723870654793" class="icon" viewBox="0 0 1024 1024" version="1.1" xmlns="http://www.w3.org/2000/svg" p-id="11780" xmlns:xlink="http://www.w3.org/1999/xlink" width="200" height="200"><path d="M849.317647 783.058824H174.682353C96.376471 783.058824 30.117647 716.8 30.117647 638.494118V144.564706C30.117647 66.258824 96.376471 0 174.682353 0h674.635294C927.623529 0 993.882353 66.258824 993.882353 144.564706v493.929412c0 78.305882-66.258824 144.564706-144.564706 144.564706zM174.682353 48.188235C120.470588 48.188235 78.305882 90.352941 78.305882 144.564706v493.929412c0 54.211765 42.164706 96.376471 96.376471 96.37647h674.635294c54.211765 0 96.376471-42.164706 96.376471-96.37647V144.564706c0-54.211765-42.164706-96.376471-96.376471-96.376471H174.682353z" fill="#2c2c2c" p-id="11781"></path><path d="M138.541176 283.105882L186.729412 481.882353l54.211764-198.776471h42.164706L337.317647 481.882353l48.188235-198.776471h42.164706L355.388235 542.117647h-42.164706l-48.188235-198.776471L210.823529 542.117647h-42.164705L90.352941 283.105882h48.188235zM644.517647 283.105882v36.141177H499.952941v72.282353H632.470588v36.141176H499.952941v84.329412h150.588235V542.117647H457.788235V283.105882h186.729412zM807.152941 283.105882c24.094118 0 42.164706 6.023529 60.235294 18.070589 12.047059 12.047059 18.070588 24.094118 18.070589 48.188235 0 12.047059-6.023529 24.094118-12.047059 36.141176-6.023529 12.047059-18.070588 18.070588-30.117647 24.094118 18.070588 6.023529 30.117647 12.047059 36.141176 18.070588 6.023529 12.047059 12.047059 24.094118 12.047059 42.164706 0 24.094118-12.047059 42.164706-24.094118 54.211765-12.047059 12.047059-30.117647 18.070588-60.235294 18.070588h-120.470588V283.105882h120.470588z m-78.305882 108.42353h66.258823c18.070588 0 30.117647-6.023529 36.141177-12.047059 6.023529-6.023529 12.047059-18.070588 12.047059-30.117647s-6.023529-24.094118-12.047059-30.117647c-6.023529-6.023529-18.070588-12.047059-36.141177-12.047059h-66.258823v84.329412z m0 120.470588h72.282353c18.070588 0 30.117647 0 36.141176-6.023529 12.047059-6.023529 18.070588-18.070588 18.070588-30.117647 0-18.070588-6.023529-24.094118-12.047058-36.141177-12.047059-6.023529-24.094118-12.047059-42.164706-12.047059h-72.282353v84.329412z" fill="#2c2c2c" p-id="11782"></path><path d="M758.964706 987.858824H319.247059c-12.047059 0-24.094118-12.047059-24.094118-24.094118s12.047059-24.094118 24.094118-24.094118h439.717647c12.047059 0 24.094118 12.047059 24.094118 24.094118s-12.047059 24.094118-24.094118 24.094118z" fill="#2c2c2c" p-id="11783"></path></svg>