<?xml version="1.0" standalone="no"?><!DOCTYPE svg PUBLIC "-//W3C//DTD SVG 1.1//EN" "http://www.w3.org/Graphics/SVG/1.1/DTD/svg11.dtd"><svg t="1723870516283" class="icon" viewBox="0 0 1024 1024" version="1.1" xmlns="http://www.w3.org/2000/svg" p-id="46699" xmlns:xlink="http://www.w3.org/1999/xlink" width="200" height="200"><path d="M964.608 49.834667H461.482667c-32.768 0-59.392 26.624-59.392 59.392v91.477333H109.226667c-60.074667 0-109.226667 49.834667-109.226667 109.909333v403.456c0.682667 60.074667 49.834667 109.226667 109.909333 109.226667h53.248c3.413333 0 6.826667 0.682667 8.874667 2.730667 2.048 3.413333 2.730667 7.509333 2.048 10.922666l-12.970667 67.584c-4.778667 19.114667-1.365333 39.594667 10.24 56.661334 6.826667 8.192 17.066667 12.970667 27.989334 12.970666 15.701333-0.682667 30.72-6.144 43.690666-14.336l183.637334-110.592c27.306667-15.018667 57.344-23.210667 88.064-23.893333H716.8c60.074667 0 109.909333-49.152 109.909333-109.909333V562.517333l2.730667 2.048c32.085333 23.893333 50.517333 32.768 64.170667 32.768 30.72 0 30.72-44.373333 30.72-60.757333v-2.048c0-7.509333 6.826667-12.970667 14.336-12.970667h25.941333c32.768 0 59.392-26.624 59.392-59.392V109.226667c0-32.768-26.624-59.392-59.392-59.392zM238.250667 886.101333l14.336-71.68c3.413333-15.701333-0.682667-31.402667-10.24-43.690666-9.557333-10.922667-23.210667-17.066667-37.546667-17.066667H109.909333c-22.528 0-40.96-18.432-40.96-40.96V311.296c0-22.528 18.432-40.96 40.96-40.96l605.525334 0.682667c22.528 0 40.96 18.432 40.96 40.96v400.725333c0 22.528-18.432 40.96-40.96 40.96H501.76c-34.133333 1.365333-68.266667 11.605333-98.304 29.354667l-163.157333 103.765333c-0.682667-1.365333-1.365333-0.682667-2.048-0.682667z m552.277333-653.312c-20.48-20.48-48.469333-32.085333-77.824-32.085333H471.04v-65.536c0.682667-8.874667 7.509333-15.018667 15.701333-16.384h452.608c8.874667 0.682667 15.018667 7.509333 16.384 15.701333v304.469334c-0.682667 8.192-7.509333 13.653333-15.701333 12.970666h-25.941333c-28.672-0.682667-53.248 21.162667-55.978667 49.834667v4.778667c-2.730667-1.365333-6.144-3.413333-8.192-5.461334l-25.941333-17.066666V310.613333c-0.682667-29.354667-12.288-57.344-33.450667-77.824zM486.741333 621.226667H185.002667c-19.114667 0-34.816-15.701333-34.816-34.816-0.682667-18.432 13.653333-33.450667 32.085333-34.816h304.469333c19.114667 0 34.816 15.701333 34.816 34.816 0.682667 8.874667-2.730667 17.066667-8.874666 23.893333S498.346667 620.544 489.472 621.226667h-2.730667zM161.792 461.482667c-6.826667-6.144-10.24-14.336-10.922667-23.210667v-2.730667c0-19.114667 15.701333-34.133333 34.816-34.133333h452.608c8.874667-0.682667 17.066667 2.730667 23.893334 8.874667s10.24 14.336 10.922666 23.210666v2.730667c0 19.114667-15.701333 34.133333-34.816 34.133333H184.32c-8.874667 0-16.384-2.730667-22.528-8.874666z" p-id="46700"></path></svg>