<?xml version="1.0" standalone="no"?><!DOCTYPE svg PUBLIC "-//W3C//DTD SVG 1.1//EN" "http://www.w3.org/Graphics/SVG/1.1/DTD/svg11.dtd"><svg t="1727422042864" class="icon" viewBox="0 0 1024 1024" version="1.1" xmlns="http://www.w3.org/2000/svg" p-id="72204" xmlns:xlink="http://www.w3.org/1999/xlink" width="200" height="200"><path d="M363.8 326.5h287.8c19.5 0 38.1-8.2 50.5-23.1 29.7-35.3 57.8-78.6 64.2-117.4C779 108.2 745.7 68.8 649.1 68.8s-63.9 63.4-101.5 68.6c-28 3.9-27-33-71-68.5-31.6-25.4-67 46.3-108.6 46.7-48.7 0.6-117.1-12.9-117.1 70.3 0 33.5 29.4 79 61.5 116.6 13 15.2 31.6 24 51.4 24zM722.7 400.5c-15.3-17.4-37.7-27.2-60.8-27.2H354.8c-22.2 0-43.6 9-59 25C199.3 499.5 110.3 643.7 110.3 749c0 92.8 93.2 210 208.2 210H675c115 0 208.2-116.2 208.2-210 0.2-107.1-71.4-247.3-160.5-348.5z m-93.8 127.7l-61.7 112c-5.4 9.9 1.8 21.9 12.9 21.9h17.5c8.1 0.2 14.5 6.7 14.5 14.8 0 8.1-6.5 14.7-14.5 14.8h-44c-8.5 0-15.5 6.9-15.5 15.4v7.3c0 8.2 6.6 14.8 14.8 14.8h44.8c8.1 0 14.8 6.6 14.8 14.8 0 8.2-6.6 14.8-14.8 14.8h-44.8c-8.2 0-14.8 6.6-14.8 14.8v37.7c0 8.2-6.6 14.8-14.8 14.8h-26.8c-8.2 0-14.8-6.6-14.8-14.8v-37.7c0-8.2-6.6-14.8-14.8-14.8h-44.3c-8.1 0-14.8-6.6-14.8-14.8 0-8.2 6.6-14.8 14.8-14.8h44.2c8.2 0 14.9-6.6 14.9-14.8l0.1-7.2c0.1-8.5-6.9-15.6-15.5-15.6h-43.7c-8.1-0.2-14.5-6.7-14.5-14.8 0-8.1 6.5-14.7 14.5-14.8h17.1c11.3 0 18.3-12.1 12.9-21.9l-61.7-112c-5.5-9.9 1.8-21.9 12.9-21.9h29.7c5.6 0 10.7 3.2 13.2 8.1L497 614.6c5.5 10.8 21 10.8 26.4 0l50.3-100.3c2.6-4.9 7.6-8.1 13.2-8.1h29.4c11 0.2 18.1 12.2 12.6 22z" fill="#EEB368" p-id="72205"></path></svg>