<?xml version="1.0" standalone="no"?><!DOCTYPE svg PUBLIC "-//W3C//DTD SVG 1.1//EN" "http://www.w3.org/Graphics/SVG/1.1/DTD/svg11.dtd"><svg t="1727421296722" class="icon" viewBox="0 0 1024 1024" version="1.1" xmlns="http://www.w3.org/2000/svg" p-id="15418" xmlns:xlink="http://www.w3.org/1999/xlink" width="200" height="200"><path d="M367.082425 30.800685l54.65543-17.610414 12.909627 861.857896-54.65543 17.680576L367.082425 30.800685z" fill="#D5A4FF" p-id="15419"></path><path d="M599.806509 838.56444l0.561288 37.465981-222.410414-118.221308-0.561288-37.465982 222.410414 118.221309z" fill="#8655C6" p-id="15420"></path><path d="M377.396095 720.343131l54.725591-17.610414 222.340253 118.221308-54.65543 17.610415L377.396095 720.343131z" fill="#D5A4FF" p-id="15421"></path><path d="M598.403289 746.162384l0.561288 37.465982-222.410415-118.221309-0.561288-37.465981 222.410415 118.221308z" fill="#8655C6" p-id="15422"></path><path d="M367.082425 30.800685l12.909627 861.928058-24.766838-13.190271L342.315588 17.610415l24.766837 13.19027z" fill="#8655C6" p-id="15423"></path><path d="M375.992874 627.941076l54.725591-17.610415 222.340254 118.221309-54.65543 17.610414L375.992874 627.941076zM374.659815 535.398698l54.65543-17.610414 222.340253 118.221308-54.655429 17.610415L374.659815 535.398698zM373.256595 442.996643l54.65543-17.610415 222.410414 118.221309-54.725591 17.610414L373.256595 442.996643zM371.853374 350.594587l54.725591-17.610414L648.919219 451.275642l-54.65543 17.610415-222.410415-118.29147zM370.450154 258.05221l54.725591-17.610415L647.515999 358.663104l-54.65543 17.610414-222.410415-118.221308zM592.860569 376.273518l54.65543-17.610414 0.561288 37.465981-54.65543 17.680576-0.561288-37.536143zM369.117095 165.650154l54.65543-17.610414L646.112778 266.331209l-54.65543 17.610415L369.117095 165.650154z" fill="#D5A4FF" p-id="15424"></path><path d="M591.457348 283.941624l54.65543-17.610415 0.561288 37.255499-54.655429 17.610414-0.561289-37.255498z" fill="#D5A4FF" p-id="15425"></path><path d="M614.049195 162.142103l54.725591-17.680575 12.909626 861.928057-54.655429 17.610415-12.979788-861.857897z" fill="#D5A4FF" p-id="15426"></path><path d="M599.806509 838.56444l54.65543-17.610415 0.561288 37.465982-54.65543 17.610414-0.561288-37.465981zM342.315588 17.610415L396.971017 0l24.766838 13.190271-54.65543 17.610414L342.315588 17.610415zM598.403289 746.162384l54.65543-17.610414 0.561288 37.465981-54.65543 17.610415-0.561288-37.465982zM597.000069 653.620007l54.655429-17.610415 0.561289 37.465982-54.65543 17.610414-0.561288-37.465981z" fill="#D5A4FF" p-id="15427"></path><path d="M597.000069 653.620007l0.561288 37.465981L375.221103 572.86468l-0.561288-37.465982L597.000069 653.620007zM595.596848 561.217951l0.561288 37.465982L373.817883 480.462624l-0.561288-37.465981L595.596848 561.217951z" fill="#8655C6" p-id="15428"></path><path d="M595.596848 561.217951l54.725591-17.610414 0.561288 37.465981-54.725591 17.610415-0.561288-37.465982zM594.263789 468.886057l54.65543-17.610415 0.561288 37.255499-54.65543 17.610414-0.561288-37.255498z" fill="#D5A4FF" p-id="15429"></path><path d="M594.263789 468.886057l0.561288 37.255498-222.410414-118.221308-0.561289-37.32566 222.410415 118.29147zM592.860569 376.273518l0.561288 37.536143-222.410415-118.29147-0.561288-37.465981 222.410415 118.221308zM591.457348 283.941624l0.561289 37.255498L369.678383 202.975814l-0.561288-37.32566 222.340253 118.29147z" fill="#8655C6" p-id="15430"></path><path d="M614.049195 162.142103l12.979788 861.857897-24.626516-13.049949-2.03467-134.91963-0.561288-37.465981-0.841932-54.936074-0.561288-37.465982-0.841932-55.076396-0.561288-37.465981-0.841933-54.936074-0.561288-37.465982-0.771771-55.076396-0.561288-37.255498-0.841932-55.076396-0.561288-37.536143-0.841932-55.076396-0.561289-37.255498-2.034669-134.91963 24.626516 13.120109z" fill="#8655C6" p-id="15431"></path><path d="M589.422679 149.021994l54.725591-17.610415 24.626516 13.049949-54.725591 17.680575-24.626516-13.120109z" fill="#D5A4FF" p-id="15432"></path></svg>