<?xml version="1.0" standalone="no"?><!DOCTYPE svg PUBLIC "-//W3C//DTD SVG 1.1//EN" "http://www.w3.org/Graphics/SVG/1.1/DTD/svg11.dtd"><svg t="1727421778949" class="icon" viewBox="0 0 1024 1024" version="1.1" xmlns="http://www.w3.org/2000/svg" p-id="49952" xmlns:xlink="http://www.w3.org/1999/xlink" width="200" height="200"><path d="M518.8096 512.7168m-453.2224 0a453.2224 453.2224 0 1 0 906.4448 0 453.2224 453.2224 0 1 0-906.4448 0Z" fill="#9043F3" p-id="49953"></path><path d="M518.8096 59.4944a453.2224 453.2224 0 0 0-366.336 720.0768A453.2224 453.2224 0 0 0 785.664 146.3808a451.072 451.072 0 0 0-266.8544-86.8864z" fill="#A158F6" p-id="49954"></path><path d="M762.4704 306.176a451.1232 451.1232 0 0 0-47.5136-202.0352A453.2224 453.2224 0 0 0 113.152 714.8032 453.2736 453.2736 0 0 0 762.4704 306.176z" fill="#BB78FB" p-id="49955"></path><path d="M65.5872 512.7168a451.8912 451.8912 0 0 0 14.2336 112.64 445.0304 445.0304 0 0 0 559.616-430.08 442.2144 442.2144 0 0 0-17.7664-124.2112 453.4272 453.4272 0 0 0-556.0832 441.6512z" fill="#CD8FFF" p-id="49956"></path><path d="M786.2784 748.3392H706.56a316.6208 316.6208 0 1 0-198.0928 69.6832h277.7088a34.8672 34.8672 0 1 0 0-69.6832z m-277.7088-440.32a66.56 66.56 0 1 1-66.56 66.56 66.56 66.56 0 0 1 66.56-66.56zM378.88 571.2896a66.56 66.56 0 1 1 66.56-66.56 66.56 66.56 0 0 1-66.56 66.56z m129.8432 129.8432a66.56 66.56 0 1 1 66.56-66.56 66.56 66.56 0 0 1-66.7136 66.56z m129.8432-129.8432a66.56 66.56 0 1 1 66.56-66.56 66.56 66.56 0 0 1-66.7136 66.56z" fill="#E8CDFF" p-id="49957"></path><path d="M191.8464 501.2992a321.1264 321.1264 0 0 0 6.2464 62.8224l373.2992-373.248a316.7232 316.7232 0 0 0-379.5456 310.4256z" fill="#FFFFFF" p-id="49958"></path><path d="M571.392 190.8736l-373.2992 373.248A316.0576 316.0576 0 0 0 286.3104 727.04l447.7952-448a315.5968 315.5968 0 0 0-162.7136-88.1664zM378.88 571.2896a66.56 66.56 0 1 1 66.56-66.56 66.56 66.56 0 0 1-66.56 66.56z m129.6896-129.8432a66.56 66.56 0 1 1 66.56-66.56 66.56 66.56 0 0 1-66.56 66.56z" fill="#F5E9FF" p-id="49959"></path><path d="M734.1056 279.04L286.3104 727.04a315.6992 315.6992 0 0 0 165.0176 85.9136l368.64-368.64a315.904 315.904 0 0 0-85.8624-165.2736z m-225.28 422.0928a66.56 66.56 0 1 1 66.56-66.56 66.56 66.56 0 0 1-66.816 66.56z m129.8432-129.8432a66.56 66.56 0 1 1 66.56-66.56 66.56 66.56 0 0 1-66.816 66.56z" fill="#EDD8FF" p-id="49960"></path></svg>