<?xml version="1.0" standalone="no"?><!DOCTYPE svg PUBLIC "-//W3C//DTD SVG 1.1//EN" "http://www.w3.org/Graphics/SVG/1.1/DTD/svg11.dtd"><svg t="1727421996831" class="icon" viewBox="0 0 1024 1024" version="1.1" xmlns="http://www.w3.org/2000/svg" p-id="67887" xmlns:xlink="http://www.w3.org/1999/xlink" width="200" height="200"><path d="M512 114.51923413C293.38557877 114.51923413 114.51923413 293.38557877 114.51923413 512s178.86634465 397.48076587 397.48076587 397.48076587 397.48076587-178.86634465 397.48076587-397.48076587-178.86634465-397.48076587-397.48076587-397.48076587zM333.13365535 561.68509573c-24.84254788 0-49.68509573-19.8740383-49.68509573-49.68509573s19.8740383-49.68509573 49.68509573-49.68509573c24.84254788 0 49.68509573 19.8740383 49.68509573 49.68509573s-24.84254788 49.68509573-49.68509573 49.68509573zM512 561.68509573c-24.84254788 0-49.68509573-24.84254788-49.68509573-49.68509573s19.8740383-49.68509573 49.68509573-49.68509573c24.84254788 0 49.68509573 19.8740383 49.68509573 49.68509573s-24.84254788 49.68509573-49.68509573 49.68509573z m178.86634465 0c-24.84254788 0-49.68509573-19.8740383-49.68509573-49.68509573s19.8740383-49.68509573 49.68509573-49.68509573c24.84254788 0 49.68509573 19.8740383 49.68509573 49.68509573s-19.8740383 49.68509573-49.68509573 49.68509573z m0 0" fill="#F9766F" p-id="67888"></path></svg>