<?xml version="1.0" standalone="no"?><!DOCTYPE svg PUBLIC "-//W3C//DTD SVG 1.1//EN" "http://www.w3.org/Graphics/SVG/1.1/DTD/svg11.dtd"><svg t="1727421229143" class="icon" viewBox="0 0 1024 1024" version="1.1" xmlns="http://www.w3.org/2000/svg" p-id="13506" xmlns:xlink="http://www.w3.org/1999/xlink" width="200" height="200"><path d="M878 459.6c-34.1 0-63.4 20.5-76.2 49.9h-40.4V356.8c0-44.3-35.9-80.2-80.2-80.2H479.6V236c29-12.9 49.3-42 49.3-75.9 0-45.8-37.1-83-82.8-83-45.7 0-82.8 37.2-82.8 83 0 33.9 20.3 63 49.3 75.9v40.5H210.5c-44.3 0-80.2 35.9-80.2 80.2v169.1h40.4c12.8-29.3 42.1-49.9 76.2-49.9 45.9 0 83.1 37.2 83.1 83s-37.2 83-83.1 83c-34.1 0-63.4-20.5-76.2-49.9h-40.4v202.6c0 44.3 35.9 80.2 80.2 80.2h202.2v-40c-29-12.9-49.3-42.2-49.3-76.2 0-46 37.1-83.3 82.8-83.3 45.7 0 82.8 37.3 82.8 83.3 0 34-20.3 63.3-49.3 76.2v40h201.6c44.3 0 80.2-35.9 80.2-80.2v-219h40.4c12.8 29.3 42.1 49.9 76.2 49.9 45.9 0 83.1-37.2 83.1-83-0.1-45.7-37.3-82.9-83.2-82.9z" fill="#33A597" p-id="13507"></path></svg>