<?xml version="1.0" standalone="no"?><!DOCTYPE svg PUBLIC "-//W3C//DTD SVG 1.1//EN" "http://www.w3.org/Graphics/SVG/1.1/DTD/svg11.dtd"><svg t="1727421923309" class="icon" viewBox="0 0 1024 1024" version="1.1" xmlns="http://www.w3.org/2000/svg" p-id="63143" xmlns:xlink="http://www.w3.org/1999/xlink" width="200" height="200"><path d="M886.2336 507.0272l0.7616-0.6976-167.4432-162.5152-42.2016 40.9984 125.3696 121.6832-125.92 122.24 42.2016 40.96 167.4432-162.5152-0.1664-0.1664z m-669.1328-0.5376l125.3696-121.6832-42.2016-40.9984-167.4368 162.4896 0.7168 0.6976-0.1664 0.1664L300.8 669.7024l42.2016-40.96-125.92-122.24zM129.3632 166.4h761.0944a83.3472 83.3472 0 0 1 84.5632 82.08v533.5104a83.3472 83.3472 0 0 1-84.5632 82.0672H129.3632A83.3472 83.3472 0 0 1 44.8 781.9904V248.48A83.3472 83.3472 0 0 1 129.3632 166.4z m450.9056 150.08L387.8784 639.872l51.6736 28.9856 192.3904-323.392-51.6672-28.9728z" fill="#FFA17A" p-id="63144"></path></svg>