<?xml version="1.0" standalone="no"?><!DOCTYPE svg PUBLIC "-//W3C//DTD SVG 1.1//EN" "http://www.w3.org/Graphics/SVG/1.1/DTD/svg11.dtd"><svg t="1727421589523" class="icon" viewBox="0 0 1024 1024" version="1.1" xmlns="http://www.w3.org/2000/svg" p-id="32472" xmlns:xlink="http://www.w3.org/1999/xlink" width="200" height="200"><path d="M154.13333333 454.61333333c16.74666667 14.29333333 38.50666667 23.04 62.29333334 23.04h165.01333333c52.90666667 0 96-43.09333333 96-96V216.64c0-23.78666667-8.64-45.54666667-23.04-62.29333333-16.74666667-14.29333333-38.50666667-23.04-62.29333333-23.04H226.98666667c-51.2 0-93.22666667 40.42666667-95.78666667 90.98666666v-49.81333333c-6.18666667 11.84-9.92 25.06666667-10.66666667 39.14666667v174.93333333c0.74666667 14.08 4.48 27.30666667 10.66666667 39.14666667v-28.48c1.06666667 21.86666667 9.6 41.81333333 22.93333333 57.38666666z m13.86666667-237.97333333c0-26.66666667 21.65333333-48.42666667 48.42666667-48.42666667h165.01333333c26.66666667 0 48.42666667 21.65333333 48.42666667 48.42666667v165.01333333c0 26.66666667-21.65333333 48.42666667-48.42666667 48.42666667H216.32c-26.66666667 0-48.42666667-21.76-48.42666667-48.42666667V216.64zM381.33333333 120.74666667H216.32c-15.68 0-30.50666667 3.84-43.52 10.45333333h252.05333333c-13.01333333-6.72-27.84-10.45333333-43.52-10.45333333z" fill="#d81e06" p-id="32473"></path><path d="M226.98666667 131.41333333h165.01333333c23.78666667 0 45.54666667 8.64 62.29333333 23.04-8.10666667-9.49333333-18.13333333-17.49333333-29.33333333-23.25333333H172.8c-17.81333333 9.06666667-32.42666667 23.57333333-41.6 41.28v49.81333333c2.56-50.56 44.58666667-90.88 95.78666667-90.88zM154.13333333 454.61333333C140.8 439.04 132.26666667 419.09333333 131.2 397.33333333v28.48c5.76 10.98666667 13.54666667 20.8 22.93333333 28.8z" fill="#d81e06" p-id="32474"></path><path d="M415.78666667 512.10666667H250.88c-52.90666667 0-96 43.09333333-96 96v165.01333333c0 52.90666667 43.09333333 96 96 96h165.01333333c52.90666667 0 96-43.09333333 96-96V608.10666667c-0.10666667-52.90666667-43.2-96-96.10666666-96z m-1.81333334 238.61333333l-73.92 73.92c-3.62666667 3.62666667-8.42666667 5.12-13.12 4.8-4.69333333 0.42666667-9.6-1.17333333-13.12-4.8l-73.92-73.92c-6.4-6.4-6.4-16.96 0-23.36s16.96-6.4 23.36 0l46.08 46.08V586.13333333c0-9.06666667 7.46666667-16.53333333 16.53333334-16.53333333s16.53333333 7.46666667 16.53333333 16.53333333v189.44l48.21333333-48.21333333c6.4-6.4 16.96-6.4 23.36 0s6.4 16.96 0 23.36z" fill="#f77a7b" p-id="32475"></path><path d="M642.24 546.56c-52.90666667 0-96 43.09333333-96 96V807.46666667c0 23.78666667 8.64 45.54666667 23.04 62.29333333 16.74666667 14.29333333 38.50666667 23.04 62.29333333 23.04h165.01333334c52.90666667 0 96-43.09333333 96-96V631.89333333c0-23.78666667-8.64-45.54666667-23.04-62.29333333-16.74666667-14.29333333-38.50666667-23.04-62.29333334-23.04H642.24z m213.33333333 96V807.46666667c0 26.66666667-21.65333333 48.42666667-48.42666666 48.42666666H642.24c-26.66666667 0-48.42666667-21.65333333-48.42666667-48.42666666V642.56c0-26.66666667 21.65333333-48.42666667 48.42666667-48.42666667h165.01333333c26.56 0 48.32 21.76 48.32 48.42666667zM892.69333333 598.93333333v252.16c6.72-13.12 10.45333333-27.94666667 10.45333334-43.62666666V642.56c0-15.68-3.73333333-30.50666667-10.45333334-43.62666667zM642.24 903.46666667h165.01333333c15.04 0 29.22666667-3.52 41.92-9.6H600.32c12.69333333 6.08 26.88 9.6 41.92 9.6z" fill="#d81e06" p-id="32476"></path><path d="M869.44 569.6c14.29333333 16.74666667 23.04 38.50666667 23.04 62.29333333V796.8c0 52.90666667-43.09333333 96-96 96H631.57333333c-23.78666667 0-45.54666667-8.64-62.29333333-23.04 8.53333333 10.02666667 19.09333333 18.24 31.04 24H849.06666667c18.77333333-9.17333333 34.13333333-24.21333333 43.62666666-42.77333333V598.93333333c-5.76-11.2-13.65333333-21.22666667-23.25333333-29.33333333z" fill="#d81e06" p-id="32477"></path><path d="M607.78666667 512.10666667h165.01333333c52.90666667 0 96-43.09333333 96-96V251.2c0-52.90666667-43.09333333-96-96-96H607.78666667c-52.90666667 0-96 43.09333333-96 96v165.01333333c0 52.8 43.09333333 95.89333333 96 95.89333334z" fill="#f77a7b" p-id="32478"></path></svg>