<?xml version="1.0" standalone="no"?><!DOCTYPE svg PUBLIC "-//W3C//DTD SVG 1.1//EN" "http://www.w3.org/Graphics/SVG/1.1/DTD/svg11.dtd"><svg t="1727421902575" class="icon" viewBox="0 0 1024 1024" version="1.1" xmlns="http://www.w3.org/2000/svg" p-id="61243" xmlns:xlink="http://www.w3.org/1999/xlink" width="200" height="200"><path d="M512 1024C76.96384 1024 0 947.022507 0 512S76.96384 0 512 0 1024 76.96384 1024 512 947.022507 1024 512 1024z m0-998.4C98.727253 25.6 25.6 98.7136 25.6 512S98.727253 998.4 512 998.4 998.4 925.272747 998.4 512 925.272747 25.6 512 25.6z" fill="#EAC1B2" p-id="61244"></path><path d="M279.893333 785.066667c-101.034667 0-177.793707-5.270187-236.05248-21.149014C30.26944 698.69568 25.6 616.174933 25.6 512 25.6 98.7136 98.727253 25.6 512 25.6c31.402667 0 60.648107 0.49152 88.255147 1.460907C671.45728 83.367253 689.493333 187.665067 689.493333 375.466667c0 348.023467-61.576533 409.6-409.6 409.6z" fill="#EAC1B2" opacity=".2" p-id="61245"></path><path d="M300.373333 409.6m27.306667 0l409.6 0q27.306667 0 27.306667 27.306667l0 273.066666q0 27.306667-27.306667 27.306667l-409.6 0q-27.306667 0-27.306667-27.306667l0-273.066666q0-27.306667 27.306667-27.306667Z" fill="#EAC1B2" p-id="61246"></path><path d="M744.516267 750.933333H283.68896A37.956267 37.956267 0 0 1 245.76 713.018027V390.908587a37.956267 37.956267 0 0 1 37.888-37.915307h124.040533v-49.152a37.92896 37.92896 0 0 1 37.888-37.888h136.915627a37.942613 37.942613 0 0 1 37.915307 37.888v49.152h124.1088a37.874347 37.874347 0 0 1 37.819733 37.915307v322.10944A37.874347 37.874347 0 0 1 744.516267 750.933333zM596.800853 303.80032a14.308693 14.308693 0 0 0-14.308693-14.349653H445.617493a14.336 14.336 0 0 0-14.322346 14.281386v49.152h165.505706v-49.152z m161.928534 211.626667a11.455147 11.455147 0 0 1-6.075734 1.92512h-194.1504v53.49376a11.782827 11.782827 0 0 1-11.810133 11.79648h-65.194667a11.79648 11.79648 0 0 1-11.782826-11.79648v-55.760214a11.455147 11.455147 0 0 1-6.67648 2.33472h-68.266667A94.208 94.208 0 0 0 395.946667 505.173333a94.08512 94.08512 0 0 0-1.14688-11.373226h68.266666a11.4688 11.4688 0 0 1 6.67648 2.33472v-23.210667a11.79648 11.79648 0 0 1 11.782827-11.79648h65.194667a11.782827 11.782827 0 0 1 11.810133 11.79648v20.84864h194.1504a11.4688 11.4688 0 0 1 6.075733 1.92512v-104.789333a14.281387 14.281387 0 0 0-14.226773-14.322347H283.68896a14.363307 14.363307 0 0 0-14.322347 14.322347v102.877866h127.726934A94.644907 94.644907 0 0 0 395.946667 505.173333a93.989547 93.989547 0 0 0 1.2288 12.288h-127.808854v195.556694a14.363307 14.363307 0 0 0 14.322347 14.322346H744.516267a14.281387 14.281387 0 0 0 14.226773-14.322346V515.495253z" fill="#9B3A18" p-id="61247"></path></svg>