<?xml version="1.0" standalone="no"?><!DOCTYPE svg PUBLIC "-//W3C//DTD SVG 1.1//EN" "http://www.w3.org/Graphics/SVG/1.1/DTD/svg11.dtd"><svg t="1727422031077" class="icon" viewBox="0 0 2730 1024" version="1.1" xmlns="http://www.w3.org/2000/svg" p-id="70101" xmlns:xlink="http://www.w3.org/1999/xlink" width="533.203125" height="200"><path d="M1128.8576 251.118933q-136.533333 102.4-102.4 307.2 119.466667-153.6 170.666667-204.8t221.866666-170.666666q-153.6-34.133333-290.133333 68.266666zM1067.383467 660.718933l10.24 51.2 102.4 102.4 170.666666 34.133334 153.6-34.133334 119.466667-102.4 34.133333-85.333333h-187.733333l-51.2 34.133333-85.333333 34.133334-102.4-68.266667-17.066667-85.333333h477.866667l-34.133334-170.666667q-85.333333-136.533333-136.533333-153.6-51.2 17.066667-122.88 66.56 37.546667 18.773333 71.68 69.973333 34.133333 51.2 34.133333 85.333334-218.453333-13.653333-303.786666 20.48-88.746667 98.986667-133.12 201.386666z" fill="#4D6FEB" fill-opacity=".6" p-id="70102"></path><path d="M997.034667 851.012267c31.163733 31.163733 72.738133 41.8816 113.527466 41.301333 40.516267-0.546133 84.5824-12.0832 128.750934-30.446933 5.802667-2.423467 11.537067-4.949333 17.237333-7.5776a368.64 368.64 0 0 0 435.2-214.391467l15.189333-36.4544h-263.304533l-7.918933 10.513067a105.335467 105.335467 0 0 1-186.231467-36.864h462.779733l3.413334-22.289067c7.850667-50.517333 5.12-102.161067-7.9872-151.586133 2.628267-5.768533 5.12-11.537067 7.509333-17.237334 18.363733-44.168533 29.9008-88.234667 30.446933-128.750933 0.512-40.721067-10.1376-82.432-41.301333-113.493333-31.1296-31.163733-72.704-41.8816-113.527467-41.301334-40.516267 0.546133-84.548267 12.049067-128.750933 30.446934-6.178133 2.594133-12.458667 5.358933-18.8416 8.260266-271.633067-69.9392-518.690133 177.152-448.785067 448.750934-2.8672 6.314667-5.632 12.629333-8.192 18.8416-18.432 44.202667-29.934933 88.2688-30.481066 128.785066-0.512 40.721067 10.1376 82.432 41.301333 113.493334z m52.224-141.960534a370.210133 370.210133 0 0 0 134.382933 117.248c-65.1264 20.616533-118.784 18.090667-149.4016-12.526933-71.953067-71.918933 11.400533-271.940267 186.197333-446.6688 174.728533-174.7968 374.749867-258.1504 446.6688-186.129067 30.583467 30.549333 33.109333 84.206933 12.526934 149.265067A370.244267 370.244267 0 0 0 1570.133333 201.454933a395.264 395.264 0 0 0-63.419733 21.504 315.8016 315.8016 0 0 1 159.607467 301.499734H1193.506133v26.350933a157.969067 157.969067 0 0 0 275.694934 105.2672h155.921066a315.8016 315.8016 0 0 1-273.646933 158.0032 315.835733 315.835733 0 0 1-278.357333-166.468267 457.6256 457.6256 0 0 0-23.893334 61.44z m-13.380267-195.822933c-8.9088-186.1632 144.452267-339.524267 330.615467-330.6496-61.098667 37.888-124.0064 87.8592-183.364267 147.285333-59.357867 59.357867-109.397333 122.197333-147.2512 183.364267z m213.6064-106.7008c-17.237333 17.169067-33.450667 34.645333-48.810667 52.1216l308.770134 0.068267v-26.350934a157.969067 157.969067 0 0 0-109.499734-150.357333 923.989333 923.989333 0 0 0-62.805333 46.045867 105.335467 105.335467 0 0 1 116.224 77.9264h-203.332267l-0.546133 0.546133z" fill="#252B3A" p-id="70103"></path></svg>