<?xml version="1.0" standalone="no"?><!DOCTYPE svg PUBLIC "-//W3C//DTD SVG 1.1//EN" "http://www.w3.org/Graphics/SVG/1.1/DTD/svg11.dtd"><svg t="1727421841722" class="icon" viewBox="0 0 1024 1024" version="1.1" xmlns="http://www.w3.org/2000/svg" p-id="57062" xmlns:xlink="http://www.w3.org/1999/xlink" width="200" height="200"><path d="M158.4128 189.3376L189.44 180.0192c6.2464-1.8944 6.2464-10.7008 0-12.5952l-31.0272-9.3696c-2.0992-0.6144-3.7376-2.304-4.4032-4.4032l-9.3696-31.0272c-1.8944-6.2464-10.7008-6.2464-12.5952 0l-9.3696 31.0272c-0.6144 2.0992-2.304 3.7376-4.4032 4.4032l-31.0272 9.3696c-6.2464 1.8944-6.2464 10.7008 0 12.5952l31.0272 9.3696c2.0992 0.6144 3.7376 2.304 4.4032 4.4032l9.3696 31.0272c1.8944 6.2464 10.7008 6.2464 12.5952 0l9.3696-31.0272c0.6144-2.1504 2.304-3.7888 4.4032-4.4544z" fill="#FAC573" p-id="57063"></path><path d="M923.8016 861.5424m-38.4512 0a38.4512 38.4512 0 1 0 76.9024 0 38.4512 38.4512 0 1 0-76.9024 0Z" fill="#E2E5F1" p-id="57064"></path><path d="M856.1664 169.472m-31.6416 0a31.6416 31.6416 0 1 0 63.2832 0 31.6416 31.6416 0 1 0-63.2832 0Z" fill="#CBDCFF" p-id="57065"></path><path d="M810.6496 874.24H216.4224c-53.6064 0-97.0752-43.4688-97.0752-97.0752V379.0848c0-53.6064 43.4688-97.0752 97.0752-97.0752h594.2272c53.6064 0 97.0752 43.4688 97.0752 97.0752v398.1312c0 53.6064-43.4688 97.024-97.0752 97.024z" fill="#FAC573" p-id="57066"></path><path d="M795.0848 285.3888s39.2192 32.6656 39.2192 81.0496v392.1408c0 24.576-19.9168 44.4928-44.4928 44.4928H236.9024c-62.7712 0-94.6688-4.4544-111.0528-40.8064 0.6656 46.2336 7.3728 106.8544 133.7344 106.8544h538.1632c58.8288 0 110.0288-33.28 110.0288-97.0752V367.104c-0.0512-37.7856-38.8096-94.7712-112.6912-81.7152z" fill="#EF981A" p-id="57067"></path><path d="M594.944 668.16H432.128c-18.7904 0-33.9968-15.2064-33.9968-33.9968v-112.128c0-18.7904 15.2064-33.9968 33.9968-33.9968h162.816c18.7904 0 33.9968 15.2064 33.9968 33.9968v112.128c0 18.7904-15.2064 33.9968-33.9968 33.9968z" fill="#FF6C73" p-id="57068"></path><path d="M576.5632 496.4352v104.704a17.5616 17.5616 0 0 1-17.5616 17.5616H406.8352s-8.4992 49.5104 34.6624 49.5104h139.8784c18.7904 0 50.944-1.9968 50.944-50.944v-90.112c-0.0512-19.3536-9.3696-33.3312-55.7568-30.72z" fill="#D6283F" p-id="57069"></path><path d="M810.6496 261.5296h-28.8768v-43.6224c0-48.384-39.3728-87.7568-87.7568-87.7568h-360.96c-48.384 0-87.7568 39.3728-87.7568 87.7568v43.6224h-28.8768c-64.8192 0-117.5552 52.736-117.5552 117.5552v398.1312c0 64.8192 52.736 117.5552 117.5552 117.5552h594.2272c64.8192 0 117.5552-52.736 117.5552-117.5552V379.0848c0-64.8192-52.736-117.5552-117.5552-117.5552zM286.2592 217.9072c0-25.8048 20.992-46.7968 46.7968-46.7968h361.0112c25.8048 0 46.7968 20.992 46.7968 46.7968v43.6224H286.2592v-43.6224zM216.4224 302.4896h594.2272c42.24 0 76.5952 34.3552 76.5952 76.5952v178.5856h-237.824v-35.584c0-30.0544-24.4224-54.4768-54.4768-54.4768H432.1792c-30.0544 0-54.4768 24.4224-54.4768 54.4768v35.584H139.8784V379.0848c0-42.24 34.3552-76.5952 76.544-76.5952z m392.0384 219.5968v112.0768c0 7.4752-6.0416 13.5168-13.5168 13.5168H432.1792c-7.4752 0-13.5168-6.0416-13.5168-13.5168v-112.0768c0-7.4752 6.0416-13.5168 13.5168-13.5168h162.7648c7.4752 0 13.5168 6.0416 13.5168 13.5168z m202.1888 331.6736H216.4224c-42.24 0-76.5952-34.3552-76.5952-76.5952v-178.5856h237.824v35.584c0 30.0544 24.4224 54.4768 54.4768 54.4768h162.7648c30.0544 0 54.4768-24.4224 54.4768-54.4768v-35.584h237.824v178.5856c0.0512 42.24-34.304 76.5952-76.544 76.5952z" fill="#211D38" p-id="57070"></path><path d="M154.7776 706.4576a12.8 12.8 0 0 1-12.8-12.8v-66.3552a12.8 12.8 0 0 1 25.6 0v66.3552c0 7.1168-5.7344 12.8-12.8 12.8zM154.7776 520.9088a12.8 12.8 0 0 1-12.8-12.8V375.8592c0-40.1408 32.768-72.8064 73.0624-72.8064h76.544a12.8 12.8 0 0 1 0 25.6H215.04c-26.1632 0-47.4624 21.1968-47.4624 47.2064v132.1984c0 7.1168-5.7344 12.8512-12.8 12.8512zM432.896 610.4576a12.8 12.8 0 0 1-12.8-12.8v-66.816c0-7.5776 3.1744-12.2368 5.8368-14.848 6.8096-6.656 16.3328-6.4512 25.5488-6.2976 1.6384 0.0512 3.328 0.0512 5.0688 0.0512a12.8 12.8 0 0 1 0 25.6c-1.9456 0-3.7888-0.0512-5.5808-0.0512-1.6384-0.0512-3.584-0.1024-5.2224-0.0512v62.464a12.83584 12.83584 0 0 1-12.8512 12.7488z" fill="#FFFFFF" p-id="57071"></path></svg>